<svg width="50" height="50" viewBox="0 0 50 50" fill="none" xmlns="http://www.w3.org/2000/svg">
<mask id="mask0_20_1198" style="mask-type:alpha" maskUnits="userSpaceOnUse" x="0" y="0" width="50" height="50">
<circle cx="25" cy="25" r="25" fill="#D9D9D9"/>
</mask>
<g mask="url(#mask0_20_1198)">
<path d="M-13 0H63V50H-13V0Z" fill="#F8F8F8"/>
<path d="M-13 0H63V3.84503H-13V0ZM-13 7.69006H63V11.5351H-13V7.69006ZM-13 15.3801H63V19.2251H-13V15.3801ZM-13 23.0702H63V26.9152H-13V23.0702ZM-13 30.7749H63V34.6199H-13V30.7749ZM-13 38.4649H63V42.3099H-13V38.4649ZM-13 46.155H63V50H-13V46.155Z" fill="#D80027"/>
<path d="M-13 0H25V26.9152H-13V0Z" fill="#2E52B2"/>
<path d="M-5.91816 20.3072L-6.51076 18.4359L-7.16261 20.3072H-9.11816L-7.53298 21.433L-8.12557 23.3043L-6.51076 22.1493L-4.94039 23.3043L-5.54779 21.433L-3.93298 20.3072H-5.91816ZM2.42258 20.3072L1.81517 18.4359L1.19295 20.3072H-0.762609L0.822577 21.433L0.229984 23.3043L1.81517 22.1493L3.41517 23.3043L2.82258 21.433L4.40776 20.3072H2.42258ZM10.7929 20.3072L10.1559 18.4359L9.56332 20.3072H7.56332L9.19295 21.433L8.57073 23.3043L10.1559 22.1493L11.7855 23.3043L11.1633 21.433L12.7485 20.3072H10.7929ZM19.1189 20.3072L18.5263 18.4359L17.9041 20.3072H15.9337L17.5337 21.433L16.9411 23.3043L18.5263 22.1493L20.1263 23.3043L19.4892 21.433L21.1189 20.3072H19.1189ZM1.81517 11.009L1.19295 12.8803H-0.762609L0.822577 14.0353L0.229984 15.8774L1.81517 14.7371L3.41517 15.8774L2.82258 14.0353L4.40776 12.8803H2.42258L1.81517 11.009ZM-6.51076 11.009L-7.16261 12.8803H-9.11816L-7.53298 14.0353L-8.12557 15.8774L-6.51076 14.7371L-4.94039 15.8774L-5.54779 14.0353L-3.93298 12.8803H-5.91816L-6.51076 11.009ZM10.1559 11.009L9.56332 12.8803H7.56332L9.19295 14.0353L8.57073 15.8774L10.1559 14.7371L11.7855 15.8774L11.1633 14.0353L12.7485 12.8803H10.7929L10.1559 11.009ZM18.5263 11.009L17.9041 12.8803H15.9337L17.5337 14.0353L16.9411 15.8774L18.5263 14.7371L20.1263 15.8774L19.4892 14.0353L21.1189 12.8803H19.1189L18.5263 11.009ZM-6.51076 3.61133L-7.16261 5.45343H-9.11816L-7.53298 6.6084L-8.12557 8.46513L-6.51076 7.31016L-4.94039 8.46513L-5.54779 6.6084L-3.93298 5.45343H-5.91816L-6.51076 3.61133ZM1.81517 3.61133L1.19295 5.45343H-0.762609L0.822577 6.6084L0.229984 8.46513L1.81517 7.31016L3.41517 8.46513L2.82258 6.6084L4.40776 5.45343H2.42258L1.81517 3.61133ZM10.1559 3.61133L9.56332 5.45343H7.56332L9.19295 6.6084L8.57073 8.46513L10.1559 7.31016L11.7855 8.46513L11.1633 6.6084L12.7485 5.45343H10.7929L10.1559 3.61133ZM18.5263 3.61133L17.9041 5.45343H15.9337L17.5337 6.6084L16.9411 8.46513L18.5263 7.31016L20.1263 8.46513L19.4892 6.6084L21.1189 5.45343H19.1189L18.5263 3.61133Z" fill="#F8F8F8"/>
</g>
</svg>
