<svg width="50" height="50" viewBox="0 0 50 50" fill="none" xmlns="http://www.w3.org/2000/svg">
<mask id="mask0_20_1204" style="mask-type:alpha" maskUnits="userSpaceOnUse" x="0" y="0" width="50" height="50">
<circle cx="25" cy="25" r="25" fill="#D9D9D9"/>
</mask>
<g mask="url(#mask0_20_1204)">
<path d="M-9.4707 0H60.4708V50H-9.4707V0Z" fill="#181A93"/>
<path d="M-12 0H63V16.6667H-12V0Z" fill="#FFA44A"/>
<path d="M-12 33.3335H63V50.0002H-12V33.3335Z" fill="#1A9F0B"/>
<path d="M-12 16.6665H63V33.3332H-12V16.6665Z" fill="#F8F8F8"/>
<path d="M25.5 30C28.2614 30 30.5 27.7614 30.5 25C30.5 22.2386 28.2614 20 25.5 20C22.7386 20 20.5 22.2386 20.5 25C20.5 27.7614 22.7386 30 25.5 30Z" fill="white"/>
<path d="M25.4997 31.6668C21.8301 31.6668 18.833 28.6698 18.833 25.0002C18.833 21.3306 21.8301 18.3335 25.4997 18.3335C29.1693 18.3335 32.1663 21.3306 32.1663 25.0002C32.1663 28.6698 29.1693 31.6668 25.4997 31.6668ZM25.4997 30.0002C28.1605 30.0002 30.4997 27.661 30.4997 25.0002C30.4997 22.3393 28.1751 20.0002 25.4997 20.0002C22.8242 20.0002 20.4997 22.3393 20.4997 25.0002C20.4997 27.661 22.8389 30.0002 25.4997 30.0002Z" fill="#181A93"/>
<path d="M25.5003 28.3332C27.3413 28.3332 28.8337 26.8408 28.8337 24.9998C28.8337 23.1589 27.3413 21.6665 25.5003 21.6665C23.6594 21.6665 22.167 23.1589 22.167 24.9998C22.167 26.8408 23.6594 28.3332 25.5003 28.3332Z" fill="#181A93"/>
</g>
</svg>
