<svg width="50" height="50" viewBox="0 0 50 50" fill="none" xmlns="http://www.w3.org/2000/svg">
<mask id="mask0_20_1294" style="mask-type:alpha" maskUnits="userSpaceOnUse" x="0" y="0" width="50" height="50">
<circle cx="25" cy="25" r="25" fill="#D9D9D9"/>
</mask>
<g mask="url(#mask0_20_1294)">
<path d="M-12 0H63V50H-12V0Z" fill="#D80027"/>
<path d="M21.158 34.9707L19.7399 32.69L17.1229 33.3333L18.8627 31.2719L17.4445 28.9912L19.9445 29.9999L21.6697 27.9385L21.4796 30.6286L23.9796 31.6374L21.3627 32.2806L21.158 34.9707ZM30.4855 11.9882L29.0089 14.2397L30.7048 16.3303L28.1171 15.6286L26.6405 17.8947L26.4943 15.2046L23.9065 14.5029L26.4212 13.5379L26.275 10.8479L27.9709 12.9385L30.4855 11.9882ZM22.5323 3.71338L22.2399 6.38882L24.696 7.49993L22.0644 8.05548L21.772 10.7309L20.427 8.39174L17.81 8.9473L19.6083 6.94437L18.2633 4.61981L20.7194 5.7163L22.5323 3.71338ZM30.8071 23.6549L28.6288 25.2485L29.4767 27.8069L27.2984 26.228L25.12 27.8362L25.9387 25.2631L23.7603 23.6988L26.4504 23.6841L27.2691 21.111L28.1171 23.6695L30.8071 23.6549ZM4.81297 6.76893L7.34221 14.5906H15.5586L8.92116 19.4005L11.4504 27.2222L4.81297 22.3976L-1.83908 27.2222L0.704782 19.4005L-5.94727 14.5906H2.28373L4.81297 6.76893Z" fill="#FFE00B"/>
</g>
</svg>
