<svg width="50" height="50" viewBox="0 0 50 50" fill="none" xmlns="http://www.w3.org/2000/svg">
<mask id="mask0_20_1324" style="mask-type:alpha" maskUnits="userSpaceOnUse" x="0" y="0" width="50" height="50">
<circle cx="25" cy="25" r="25" fill="#D9D9D9"/>
</mask>
<g mask="url(#mask0_20_1324)">
<path d="M45.6422 12.478L48.2074 15.2429L51.6297 13.6578L49.7926 16.9517L52.358 19.7168L48.6574 18.9876L46.8207 22.2817L46.3705 18.537L42.6699 17.8078L46.0922 16.2229L45.6422 12.478Z" fill="white"/>
<path d="M-12 0.00195312H62.999V50.0002H-12V0.00195312Z" fill="#01411C"/>
<path d="M6.75 0H62.9993V49.9999H6.75V0Z" fill="#01411C"/>
<path d="M32.6148 31.4429C28.0684 34.7279 21.7197 33.7054 18.4347 29.1589C15.1496 24.6124 16.1722 18.2637 20.7188 14.9788C22.1363 13.9546 23.729 13.3492 25.3496 13.1386C22.232 12.6723 18.937 13.3748 16.1801 15.3667C10.5844 19.4099 9.32585 27.2236 13.3689 32.8194C17.412 38.4148 25.2258 39.6736 30.8216 35.6302C33.5784 33.6383 35.2799 30.7307 35.816 27.6242C35.1072 29.0964 34.0325 30.4185 32.6148 31.4429ZM32.4201 13.0001L34.9812 15.7602L38.3975 14.1779L36.5637 17.4659L39.1246 20.2263L35.4305 19.4985L33.5967 22.7871L33.1474 19.0487L29.4531 18.3208L32.8695 16.7385L32.4201 13.0001Z" fill="white"/>
</g>
</svg>
