<svg width="30" height="30" viewBox="0 0 30 30" fill="none" xmlns="http://www.w3.org/2000/svg">
<g clip-path="url(#clip0_106_2012)">
<path d="M20.6235 0C19.0242 0.110625 17.1548 1.13437 16.0654 2.4675C15.0717 3.67687 14.2542 5.47312 14.5729 7.21875C16.3204 7.27312 18.126 6.225 19.1723 4.86937C20.151 3.6075 20.8917 1.8225 20.6235 0Z" fill="black"/>
<path d="M26.9442 10.0651C25.4085 8.13947 23.2504 7.02197 21.2123 7.02197C18.5217 7.02197 17.3836 8.31009 15.5142 8.31009C13.5867 8.31009 12.1224 7.02572 9.7955 7.02572C7.50989 7.02572 5.07615 8.42259 3.53304 10.8113C1.36368 14.1751 1.73492 20.4994 5.25053 25.8862C6.50865 27.8137 8.18864 29.9812 10.3861 30C12.3417 30.0187 12.893 28.7456 15.5423 28.7325C18.1917 28.7175 18.6942 30.0168 20.6461 29.9962C22.8454 29.9793 24.6173 27.5775 25.8754 25.65C26.7773 24.2681 27.1129 23.5725 27.8123 22.0125C22.7254 20.0756 21.9098 12.8419 26.9442 10.0651Z" fill="black"/>
</g>
<defs>
<clipPath id="clip0_106_2012">
<rect width="30" height="30" fill="white"/>
</clipPath>
</defs>
</svg>
