<svg width="24" height="18" viewBox="0 0 24 18" fill="none" xmlns="http://www.w3.org/2000/svg">
<path d="M23.7024 4.71037V15.5234C23.7024 16.4804 22.9266 17.2562 21.9696 17.2562H4.26017C3.30317 17.2562 2.52734 16.4804 2.52734 15.5234V4.71037C2.52734 3.75337 3.30317 2.97754 4.26017 2.97754H21.9696C22.9266 2.97754 23.7024 3.75332 23.7024 4.71037Z" fill="#2777FC" fill-opacity="0.5"/>
<path d="M21.47 2.47697V13.29C21.47 14.247 20.6942 15.0228 19.7372 15.0228H2.02775C1.07075 15.0228 0.294922 14.247 0.294922 13.29V2.47697C0.294922 1.51997 1.07075 0.744141 2.02775 0.744141H19.7372C20.6942 0.744141 21.47 1.51997 21.47 2.47697Z" fill="#2777FC"/>
<path d="M21.4697 2.47568V13.2902C21.4697 14.2459 20.6943 15.0214 19.7354 15.0214H2.02602C1.10328 15.0214 0.351875 14.3 0.300781 13.3923C0.333828 13.3983 0.369922 13.3983 0.402969 13.3983H13.8564C17.1656 13.3983 19.8467 10.7172 19.8467 7.411V0.852629C19.8467 0.819629 19.8467 0.783488 19.8407 0.750488C20.7514 0.801535 21.4697 1.55599 21.4697 2.47568Z" fill="#222222" fill-opacity="0.08"/>
<path d="M6.24677 3.91255V5.80026C6.24677 6.11924 5.98816 6.37785 5.66917 6.37785H3.08345C2.76447 6.37785 2.50586 6.11924 2.50586 5.80026V3.91255C2.50586 3.59357 2.76447 3.33496 3.08345 3.33496H5.66913C5.98816 3.33496 6.24677 3.59357 6.24677 3.91255Z" fill="#FFE00B"/>
<path d="M2.92816 9.58776C3.16138 9.58776 3.35045 9.39869 3.35045 9.16546C3.35045 8.93223 3.16138 8.74316 2.92816 8.74316C2.69493 8.74316 2.50586 8.93223 2.50586 9.16546C2.50586 9.39869 2.69493 9.58776 2.92816 9.58776Z" fill="#E8F1F8"/>
<path d="M4.28753 9.58776C4.52076 9.58776 4.70983 9.39869 4.70983 9.16546C4.70983 8.93223 4.52076 8.74316 4.28753 8.74316C4.0543 8.74316 3.86523 8.93223 3.86523 9.16546C3.86523 9.39869 4.0543 9.58776 4.28753 9.58776Z" fill="#E8F1F8"/>
<path d="M5.64691 9.58776C5.88013 9.58776 6.0692 9.39869 6.0692 9.16546C6.0692 8.93223 5.88013 8.74316 5.64691 8.74316C5.41368 8.74316 5.22461 8.93223 5.22461 9.16546C5.22461 9.39869 5.41368 9.58776 5.64691 9.58776Z" fill="#E8F1F8"/>
<path d="M8.2055 9.58776C8.43873 9.58776 8.6278 9.39869 8.6278 9.16546C8.6278 8.93223 8.43873 8.74316 8.2055 8.74316C7.97227 8.74316 7.7832 8.93223 7.7832 9.16546C7.7832 9.39869 7.97227 9.58776 8.2055 9.58776Z" fill="#E8F1F8"/>
<path d="M9.56488 9.58776C9.7981 9.58776 9.98717 9.39869 9.98717 9.16546C9.98717 8.93223 9.7981 8.74316 9.56488 8.74316C9.33165 8.74316 9.14258 8.93223 9.14258 9.16546C9.14258 9.39869 9.33165 9.58776 9.56488 9.58776Z" fill="#E8F1F8"/>
<path d="M10.9243 9.58776C11.1575 9.58776 11.3465 9.39869 11.3465 9.16546C11.3465 8.93223 11.1575 8.74316 10.9243 8.74316C10.691 8.74316 10.502 8.93223 10.502 9.16546C10.502 9.39869 10.691 9.58776 10.9243 9.58776Z" fill="#E8F1F8"/>
<path d="M13.4809 9.58776C13.7141 9.58776 13.9032 9.39869 13.9032 9.16546C13.9032 8.93223 13.7141 8.74316 13.4809 8.74316C13.2477 8.74316 13.0586 8.93223 13.0586 9.16546C13.0586 9.39869 13.2477 9.58776 13.4809 9.58776Z" fill="#E8F1F8"/>
<path d="M14.8403 9.58776C15.0735 9.58776 15.2626 9.39869 15.2626 9.16546C15.2626 8.93223 15.0735 8.74316 14.8403 8.74316C14.607 8.74316 14.418 8.93223 14.418 9.16546C14.418 9.39869 14.607 9.58776 14.8403 9.58776Z" fill="#E8F1F8"/>
<path d="M16.2016 9.58776C16.4348 9.58776 16.6239 9.39869 16.6239 9.16546C16.6239 8.93223 16.4348 8.74316 16.2016 8.74316C15.9684 8.74316 15.7793 8.93223 15.7793 9.16546C15.7793 9.39869 15.9684 9.58776 16.2016 9.58776Z" fill="#E8F1F8"/>
<path d="M19.2593 11.8532C19.2593 12.173 19 12.4322 18.6802 12.4322H11.0009C10.6811 12.4322 10.4219 12.173 10.4219 11.8532C10.4219 11.5334 10.6811 11.2741 11.0009 11.2741H18.6802C19 11.2741 19.2593 11.5334 19.2593 11.8532ZM19.2593 3.91401C19.2593 4.23379 19 4.49306 18.6802 4.49306H16.912C16.5923 4.49306 16.333 4.23379 16.333 3.91401C16.333 3.59423 16.5923 3.33496 16.912 3.33496H18.6802C19 3.33496 19.2593 3.59423 19.2593 3.91401Z" fill="#E8F1F8"/>
</svg>
