<svg width="30" height="30" viewBox="0 0 30 30" fill="none" xmlns="http://www.w3.org/2000/svg">
<path d="M2.04545 26.2528H6.8182V14.6619L3.69293 9.20459L0 9.54824V24.2073C0 25.3374 0.915352 26.2528 2.04545 26.2528Z" fill="#0085F7"/>
<path d="M23.1816 26.2528H27.9544C29.0845 26.2528 29.9998 25.3374 29.9998 24.2073V9.54824L26.3122 9.20459L23.1817 14.6619V26.2528H23.1816Z" fill="#00A94B"/>
<path d="M23.182 5.79802L20.3784 11.1478L23.182 14.6617L30.0002 9.54802V6.82077C30.0002 4.29292 27.1144 2.84917 25.0911 4.36622L23.182 5.79802Z" fill="#FFBC00"/>
<path fill-rule="evenodd" clip-rule="evenodd" d="M6.81844 14.6615L4.14697 9.01834L6.81844 5.79785L15.0002 11.9342L23.182 5.79785V14.6615L15.0002 20.7979L6.81844 14.6615Z" fill="#FF4131"/>
<path d="M0 6.82077V9.54802L6.8182 14.6617V5.79802L4.9091 4.36622C2.8858 2.84917 0 4.29292 0 6.82077Z" fill="#E51C19"/>
</svg>
