<svg width="30" height="30" viewBox="0 0 30 30" fill="none" xmlns="http://www.w3.org/2000/svg">
<g clip-path="url(#clip0_106_1981)">
<path d="M28.8674 12.3917L16.6307 12.3911C16.0903 12.3911 15.6523 12.829 15.6523 13.3694V17.2785C15.6523 17.8187 16.0903 18.2568 16.6306 18.2568H23.5216C22.767 20.215 21.3587 21.855 19.5618 22.897L22.5001 27.9835C27.2135 25.2575 30.0001 20.4746 30.0001 15.1204C30.0001 14.358 29.9439 13.8131 29.8316 13.1994C29.7461 12.7332 29.3414 12.3917 28.8674 12.3917Z" fill="#167EE6"/>
<path d="M14.9998 24.1306C11.6275 24.1306 8.68355 22.2881 7.1024 19.5615L2.01611 22.4932C4.60449 26.9793 9.45336 30.0002 14.9998 30.0002C17.7208 30.0002 20.2882 29.2676 22.4998 27.9909V27.9839L19.5615 22.8974C18.2175 23.6769 16.6622 24.1306 14.9998 24.1306Z" fill="#12B347"/>
<path d="M22.5 27.9905V27.9835L19.5617 22.897C18.2177 23.6764 16.6625 24.1302 15 24.1302V29.9998C17.7209 29.9998 20.2884 29.2672 22.5 27.9905Z" fill="#0F993E"/>
<path d="M5.86957 14.9999C5.86957 13.3376 6.3232 11.7825 7.10256 10.4385L2.01627 7.50684C0.732539 9.71154 0 12.272 0 14.9999C0 17.7278 0.732539 20.2882 2.01627 22.4929L7.10256 19.5612C6.3232 18.2172 5.86957 16.6621 5.86957 14.9999Z" fill="#FFE00B"/>
<path d="M14.9998 5.86957C17.1989 5.86957 19.2189 6.65098 20.7966 7.95076C21.1859 8.27139 21.7516 8.24824 22.1081 7.8917L24.8779 5.12197C25.2824 4.71744 25.2536 4.05527 24.8214 3.68039C22.178 1.38709 18.7385 0 14.9998 0C9.45336 0 4.60449 3.02092 2.01611 7.50697L7.1024 10.4387C8.68355 7.71211 11.6275 5.86957 14.9998 5.86957Z" fill="#FF4B26"/>
<path d="M20.7968 7.95076C21.186 8.27139 21.7518 8.24824 22.1083 7.8917L24.878 5.12197C25.2825 4.71744 25.2537 4.05527 24.8216 3.68039C22.1781 1.38703 18.7387 0 15 0V5.86957C17.199 5.86957 19.219 6.65098 20.7968 7.95076Z" fill="#D93F21"/>
</g>
<defs>
<clipPath id="clip0_106_1981">
<rect width="30" height="30" fill="white"/>
</clipPath>
</defs>
</svg>
