<svg width="24" height="24" viewBox="0 0 24 24" fill="none" xmlns="http://www.w3.org/2000/svg">
<path d="M7.11034 20.9719C5.65252 20.9766 4.19002 20.9813 2.73221 20.9766C2.33846 20.9766 2.08534 20.6298 2.15096 20.2266C2.39471 18.6751 2.6244 17.1235 2.86815 15.5766C3.08846 14.1844 3.32752 12.7923 3.54784 11.3954C3.70721 10.3876 3.84784 9.37976 4.00721 8.37194C4.24159 6.886 4.48534 5.40007 4.7244 3.91413C4.86034 3.06101 4.9869 2.20788 5.11815 1.35476C5.20252 0.796943 5.64315 0.417255 6.21502 0.417255C8.68065 0.417255 11.151 0.398505 13.6166 0.42663C14.9619 0.440693 16.2978 0.609443 17.5213 1.23288C18.7916 1.87038 19.565 2.90632 19.8181 4.31257C19.9353 4.96882 19.8932 5.62507 19.7666 6.28132C19.2416 6.01413 18.6885 5.84069 18.1166 5.72819C17.4041 5.58757 16.6728 5.55007 15.9463 5.54069C14.1135 5.52194 12.276 5.52663 10.4431 5.54069C10.0541 5.54538 9.70721 5.70475 9.55252 6.10319C9.48221 6.286 9.45877 6.49225 9.43065 6.69382C9.30409 7.46257 9.18221 8.236 9.06034 9.00944C8.96659 9.60475 8.86346 10.2001 8.7744 10.7954C8.6619 11.5501 8.56346 12.3094 8.41815 13.0594C8.37127 13.3079 8.26815 13.561 8.34315 13.8282C8.2869 13.9969 8.23534 14.1657 8.20721 14.3438C8.07596 15.211 7.94002 16.0782 7.80409 16.9454C7.64002 17.9954 7.48534 19.0501 7.30721 20.1001C7.25096 20.3907 7.26971 20.7001 7.11034 20.9719Z" fill="#002987"/>
<path d="M7.10973 20.9718C7.2691 20.7046 7.25035 20.3905 7.29723 20.0999C7.47535 19.0499 7.63004 17.9999 7.7941 16.9452C7.93004 16.078 8.06598 15.2108 8.19723 14.3437C8.22535 14.1655 8.27691 13.9968 8.33316 13.828C8.58629 13.4343 8.93785 13.2608 9.41598 13.2655C10.6113 13.2655 11.8066 13.3265 12.9972 13.1765C14.0613 13.0452 15.0785 12.7733 16.0254 12.2671C17.4832 11.4843 18.4769 10.289 19.1003 8.7749C19.3957 8.05303 19.63 7.30772 19.7285 6.52959C19.7378 6.51084 19.7425 6.49209 19.7519 6.47803C19.7613 6.43115 19.7707 6.38428 19.78 6.3374C20.8957 6.92803 21.491 7.8749 21.6503 9.1124C21.7816 10.1296 21.6269 11.1187 21.3738 12.103C21.1722 12.8858 20.8629 13.6218 20.4222 14.2968C19.705 15.403 18.7066 16.1718 17.4644 16.6124C16.8175 16.8421 16.1519 16.9733 15.4722 17.053C14.905 17.1187 14.3379 17.1187 13.7707 17.1233C13.1988 17.1233 12.8332 17.4374 12.7535 17.9999C12.58 19.1858 12.4066 20.3718 12.2003 21.5577C12.13 21.9608 12.0738 22.3687 12.0035 22.7671C11.9144 23.2546 11.5675 23.5452 11.0754 23.5452C9.88004 23.5452 8.68473 23.5452 7.48941 23.5452C7.03473 23.5452 6.81441 23.2827 6.88941 22.8421C6.97848 22.2983 7.06754 21.7593 7.1566 21.2155C7.17066 21.1265 7.1941 21.0374 7.10973 20.9718Z" fill="#0085CC"/>
<path d="M19.7859 6.32828C19.7765 6.37516 19.7671 6.42203 19.7578 6.46891C19.7484 6.48766 19.7437 6.50641 19.7343 6.52047C19.6359 7.2986 19.4015 8.04391 19.1062 8.76578C18.4828 10.2798 17.489 11.4752 16.0312 12.258C15.0843 12.7642 14.0625 13.0361 13.0031 13.1673C11.8125 13.3127 10.6171 13.2564 9.42183 13.2564C8.9437 13.2564 8.59214 13.4252 8.33902 13.8189C8.26402 13.5564 8.36714 13.2986 8.41402 13.0502C8.55464 12.3002 8.65777 11.5408 8.77027 10.7861C8.85933 10.1908 8.96245 9.59547 9.0562 9.00016C9.17808 8.22672 9.29995 7.45797 9.42652 6.68454C9.45933 6.48766 9.47808 6.28141 9.54839 6.09391C9.70308 5.69547 10.05 5.53141 10.439 5.53141C12.2718 5.51735 14.1093 5.51266 15.9421 5.53141C16.6687 5.54078 17.3953 5.57828 18.1125 5.71891C18.6843 5.83141 19.2421 6.00485 19.7625 6.27203C19.7718 6.30016 19.7812 6.31422 19.7859 6.32828Z" fill="#00186A"/>
</svg>
