<svg xmlns="http://www.w3.org/2000/svg" xmlns:xlink="http://www.w3.org/1999/xlink" version="1.1" width="256" height="256" viewBox="0 0 256 256" xml:space="preserve">
<g style="stroke: none; stroke-width: 0; stroke-dasharray: none; stroke-linecap: butt; stroke-linejoin: miter; stroke-miterlimit: 10; fill: none; fill-rule: nonzero; opacity: 1;" transform="translate(1.4065934065934016 1.4065934065934016) scale(2.81 2.81)">
	<path d="M 45 89 L 45 89 c -10.966 0 -19.856 -8.89 -19.856 -19.856 V 53.317 h 39.713 v 15.827 C 64.856 80.11 55.966 89 45 89 z" style="stroke: none; stroke-width: 1; stroke-dasharray: none; stroke-linecap: butt; stroke-linejoin: miter; stroke-miterlimit: 10; fill: rgb(247,217,205); fill-rule: nonzero; opacity: 1;" transform=" matrix(1 0 0 1 0 0) " stroke-linecap="round"/>
	<path d="M 25.144 53.317 v -4.451 v -8.962" style="stroke: none; stroke-width: 1; stroke-dasharray: none; stroke-linecap: butt; stroke-linejoin: miter; stroke-miterlimit: 10; fill: rgb(50,75,111); fill-rule: nonzero; opacity: 1;" transform=" matrix(1 0 0 1 0 0) " stroke-linecap="round"/>
	<path d="M 64.856 39.903 v 8.962 v 4.451" style="stroke: none; stroke-width: 1; stroke-dasharray: none; stroke-linecap: butt; stroke-linejoin: miter; stroke-miterlimit: 10; fill: rgb(50,75,111); fill-rule: nonzero; opacity: 1;" transform=" matrix(1 0 0 1 0 0) " stroke-linecap="round"/>
	<path d="M 64.858 47.243 c 7.53 -1.772 13.135 -8.534 13.135 -16.605 c 0 -9.247 -7.362 -16.757 -16.542 -17.032 C 59.49 6.348 52.878 1 45 1 S 30.51 6.348 28.549 13.606 c -9.18 0.275 -16.542 7.785 -16.542 17.032 c 0 8.071 5.605 14.832 13.135 16.605 l 0.001 6.074 h 39.713 L 64.858 47.243 z" style="stroke: none; stroke-width: 1; stroke-dasharray: none; stroke-linecap: butt; stroke-linejoin: miter; stroke-miterlimit: 10; fill: rgb(242,242,242); fill-rule: nonzero; opacity: 1;" transform=" matrix(1 0 0 1 0 0) " stroke-linecap="round"/>
	<path d="M 61.451 13.606 c -0.061 -0.224 -0.139 -0.44 -0.208 -0.661 c -3.045 0.023 -1.41 0.805 -3.915 2.165 c 1.094 -0.254 -2.27 -0.402 -1.098 -0.402 c 8.564 0 15.452 7.178 14.976 15.845 c -0.418 7.616 -6.684 13.804 -14.304 14.138 c -2.341 0.103 -4.568 -0.334 -6.571 -1.194 c -0.64 -0.275 -1.179 0.55 -0.651 1.004 c 3.141 2.705 7.229 4.341 11.7 4.341 c 1.191 0 2.353 -0.119 3.479 -0.34 l 0 -1.26 c 7.53 -1.772 13.135 -8.534 13.135 -16.605 C 77.992 21.391 70.631 13.881 61.451 13.606 z" style="stroke: none; stroke-width: 1; stroke-dasharray: none; stroke-linecap: butt; stroke-linejoin: miter; stroke-miterlimit: 10; fill: rgb(224,224,224); fill-rule: nonzero; opacity: 1;" transform=" matrix(1 0 0 1 0 0) " stroke-linecap="round"/>
	<path d="M 63.145 13.74 c -0.557 -0.072 -1.122 -0.118 -1.695 -0.135 C 59.49 6.348 52.878 1 45 1 c -0.978 0 -1.936 0.083 -2.868 0.241 C 49.879 2.4 55.715 9.407 54.955 17.637 c -0.654 7.085 -6.333 12.854 -13.408 13.613 c -3.105 0.333 -6.04 -0.277 -8.565 -1.576 c -0.617 -0.318 -1.168 0.512 -0.664 0.989 c 3.548 3.353 8.423 5.316 13.756 5.014 c 8.095 -0.459 15.037 -6.324 16.906 -14.214 C 63.618 18.774 63.611 16.176 63.145 13.74 z" style="stroke: none; stroke-width: 1; stroke-dasharray: none; stroke-linecap: butt; stroke-linejoin: miter; stroke-miterlimit: 10; fill: rgb(224,224,224); fill-rule: nonzero; opacity: 1;" transform=" matrix(1 0 0 1 0 0) " stroke-linecap="round"/>
	<path d="M 56.439 45.568 v 6.619 V 49.61 v 3.706 h 8.417 v -1.13 v -4.786 C 62.734 46.511 59.719 45.878 56.439 45.568 z" style="stroke: none; stroke-width: 1; stroke-dasharray: none; stroke-linecap: butt; stroke-linejoin: miter; stroke-miterlimit: 10; fill: rgb(224,224,224); fill-rule: nonzero; opacity: 1;" transform=" matrix(1 0 0 1 0 0) " stroke-linecap="round"/>
	<path d="M 64.856 54.316 H 25.144 c -0.552 0 -1 -0.447 -1 -1 V 42.902 c 0 -0.552 0.448 -1 1 -1 s 1 0.448 1 1 v 9.414 h 37.713 v -9.414 c 0 -0.552 0.447 -1 1 -1 s 1 0.448 1 1 v 10.414 C 65.856 53.869 65.409 54.316 64.856 54.316 z" style="stroke: none; stroke-width: 1; stroke-dasharray: none; stroke-linecap: butt; stroke-linejoin: miter; stroke-miterlimit: 10; fill: rgb(0,0,0); fill-rule: nonzero; opacity: 1;" transform=" matrix(1 0 0 1 0 0) " stroke-linecap="round"/>
	<path d="M 35.409 40.806 c -0.482 0 -0.907 -0.35 -0.986 -0.841 c -0.088 -0.545 0.283 -1.059 0.828 -1.146 c 2.871 -0.463 6.242 -0.708 9.749 -0.708 c 3.508 0 6.879 0.245 9.749 0.708 c 0.545 0.088 0.916 0.602 0.828 1.146 s -0.604 0.915 -1.146 0.828 C 51.664 40.346 48.402 40.11 45 40.11 s -6.663 0.236 -9.431 0.683 C 35.516 40.802 35.462 40.806 35.409 40.806 z" style="stroke: none; stroke-width: 1; stroke-dasharray: none; stroke-linecap: butt; stroke-linejoin: miter; stroke-miterlimit: 10; fill: rgb(0,0,0); fill-rule: nonzero; opacity: 1;" transform=" matrix(1 0 0 1 0 0) " stroke-linecap="round"/>
	<path d="M 64.856 48.242 c -0.453 0 -0.864 -0.311 -0.973 -0.771 c -0.126 -0.538 0.207 -1.076 0.744 -1.203 c 7.28 -1.713 12.364 -8.141 12.364 -15.631 c 0 -8.728 -6.84 -15.77 -15.571 -16.032 c -0.44 -0.013 -0.82 -0.313 -0.936 -0.739 C 58.598 6.88 52.23 2 45 2 S 31.402 6.88 29.515 13.867 c -0.115 0.425 -0.495 0.726 -0.936 0.739 c -8.731 0.262 -15.571 7.304 -15.571 16.032 c 0 7.49 5.084 13.918 12.364 15.631 c 0.538 0.127 0.871 0.665 0.745 1.203 c -0.127 0.537 -0.668 0.865 -1.203 0.744 c -8.188 -1.927 -13.906 -9.155 -13.906 -17.578 c 0 -9.572 7.313 -17.341 16.781 -17.995 C 30.138 5.163 37.113 0 45 0 c 7.887 0 14.862 5.163 17.211 12.643 c 9.469 0.654 16.781 8.423 16.781 17.995 c 0 8.423 -5.718 15.651 -13.905 17.578 C 65.01 48.233 64.933 48.242 64.856 48.242 z" style="stroke: none; stroke-width: 1; stroke-dasharray: none; stroke-linecap: butt; stroke-linejoin: miter; stroke-miterlimit: 10; fill: rgb(0,0,0); fill-rule: nonzero; opacity: 1;" transform=" matrix(1 0 0 1 0 0) " stroke-linecap="round"/>
	<path d="M 28.661 23.948 c -0.43 0 -0.828 -0.28 -0.958 -0.714 c -0.505 -1.69 -0.762 -3.432 -0.762 -5.176 C 26.942 8.101 35.043 0 45 0 c 9.958 0 18.059 8.101 18.059 18.058 c 0 0.552 -0.447 1 -1 1 s -1 -0.448 -1 -1 C 61.059 9.204 53.854 2 45 2 S 28.942 9.204 28.942 18.058 c 0 1.55 0.228 3.099 0.678 4.603 c 0.158 0.529 -0.143 1.086 -0.671 1.245 C 28.853 23.934 28.756 23.948 28.661 23.948 z" style="stroke: none; stroke-width: 1; stroke-dasharray: none; stroke-linecap: butt; stroke-linejoin: miter; stroke-miterlimit: 10; fill: rgb(0,0,0); fill-rule: nonzero; opacity: 1;" transform=" matrix(1 0 0 1 0 0) " stroke-linecap="round"/>
	<path d="M 56.475 53.317 v 14.54 c 0 10.551 -8.236 19.156 -18.626 19.794 C 40.07 88.51 42.476 89 45 89 c 10.966 0 19.856 -8.89 19.856 -19.856 V 53.317 H 56.475 z" style="stroke: none; stroke-width: 1; stroke-dasharray: none; stroke-linecap: butt; stroke-linejoin: miter; stroke-miterlimit: 10; fill: rgb(245,200,182); fill-rule: nonzero; opacity: 1;" transform=" matrix(1 0 0 1 0 0) " stroke-linecap="round"/>
	<path d="M 45 90 c -11.5 0 -20.856 -9.356 -20.856 -20.856 V 53.316 c 0 -0.553 0.448 -1 1 -1 h 39.713 c 0.553 0 1 0.447 1 1 v 15.827 C 65.856 80.644 56.5 90 45 90 z M 26.144 54.316 v 14.827 C 26.144 79.541 34.603 88 45 88 s 18.856 -8.459 18.856 -18.856 V 54.316 H 26.144 z" style="stroke: none; stroke-width: 1; stroke-dasharray: none; stroke-linecap: butt; stroke-linejoin: miter; stroke-miterlimit: 10; fill: rgb(0,0,0); fill-rule: nonzero; opacity: 1;" transform=" matrix(1 0 0 1 0 0) " stroke-linecap="round"/>
	<path d="M 41.861 64.949 c -0.156 0 -0.314 -0.036 -0.461 -0.113 c -2.033 -1.061 -4.01 -1.061 -6.042 0 c -0.491 0.256 -1.093 0.065 -1.35 -0.424 c -0.255 -0.49 -0.065 -1.094 0.424 -1.35 c 2.619 -1.364 5.275 -1.365 7.893 0 c 0.49 0.256 0.68 0.859 0.424 1.35 C 42.57 64.754 42.222 64.949 41.861 64.949 z" style="stroke: none; stroke-width: 1; stroke-dasharray: none; stroke-linecap: butt; stroke-linejoin: miter; stroke-miterlimit: 10; fill: rgb(0,0,0); fill-rule: nonzero; opacity: 1;" transform=" matrix(1 0 0 1 0 0) " stroke-linecap="round"/>
	<path d="M 55.105 64.949 c -0.155 0 -0.313 -0.036 -0.462 -0.113 c -2.032 -1.061 -4.01 -1.061 -6.042 0 c -0.494 0.257 -1.094 0.064 -1.35 -0.424 c -0.255 -0.49 -0.065 -1.094 0.424 -1.35 c 2.619 -1.365 5.274 -1.365 7.894 0 c 0.489 0.256 0.679 0.859 0.424 1.35 C 55.814 64.754 55.466 64.949 55.105 64.949 z" style="stroke: none; stroke-width: 1; stroke-dasharray: none; stroke-linecap: butt; stroke-linejoin: miter; stroke-miterlimit: 10; fill: rgb(0,0,0); fill-rule: nonzero; opacity: 1;" transform=" matrix(1 0 0 1 0 0) " stroke-linecap="round"/>
	<path d="M 52.993 74.714 c -5.328 7.004 -10.657 7.052 -15.985 0 H 52.993 z" style="stroke: none; stroke-width: 1; stroke-dasharray: none; stroke-linecap: butt; stroke-linejoin: miter; stroke-miterlimit: 10; fill: rgb(242,242,242); fill-rule: nonzero; opacity: 1;" transform=" matrix(1 0 0 1 0 0) " stroke-linecap="round"/>
	<path d="M 44.986 80.985 c -0.004 0 -0.008 0 -0.012 0 c -2.978 -0.005 -5.927 -1.912 -8.765 -5.669 c -0.229 -0.303 -0.267 -0.709 -0.097 -1.048 c 0.169 -0.34 0.516 -0.555 0.895 -0.555 h 15.986 c 0.38 0 0.728 0.216 0.896 0.556 c 0.169 0.341 0.131 0.747 -0.1 1.05 C 50.929 79.079 47.967 80.985 44.986 80.985 z M 39.132 75.714 c 1.987 2.169 3.948 3.268 5.845 3.271 c 0.003 0 0.006 0 0.008 0 c 1.901 0 3.871 -1.099 5.874 -3.271 H 39.132 z" style="stroke: none; stroke-width: 1; stroke-dasharray: none; stroke-linecap: butt; stroke-linejoin: miter; stroke-miterlimit: 10; fill: rgb(0,0,0); fill-rule: nonzero; opacity: 1;" transform=" matrix(1 0 0 1 0 0) " stroke-linecap="round"/>
</g>
</svg>