<svg width="50" height="50" viewBox="0 0 50 50" fill="none" xmlns="http://www.w3.org/2000/svg">
<path d="M25 43.3829C35.1526 43.3829 43.3829 35.1526 43.3829 25.0001C43.3829 14.8475 35.1526 6.61719 25 6.61719C14.8475 6.61719 6.61719 14.8475 6.61719 25.0001C6.61719 35.1526 14.8475 43.3829 25 43.3829Z" fill="#F85F00"/>
<path d="M37.5 37.5C44.4036 30.5964 44.4036 19.4035 37.5 12.5C30.5964 5.59643 19.4036 5.59642 12.5 12.5C5.59646 19.4035 5.59644 30.5964 12.5 37.5C19.4036 44.4036 30.5964 44.4035 37.5 37.5Z" fill="url(#paint0_linear_375_4804)"/>
<path d="M25.0207 41.645C34.0575 41.645 41.3833 34.1927 41.3833 24.9997C41.3833 15.8068 34.0575 8.35449 25.0207 8.35449C15.9839 8.35449 8.6582 15.8068 8.6582 24.9997C8.6582 34.1927 15.9839 41.645 25.0207 41.645Z" fill="url(#paint1_radial_375_4804)"/>
<path d="M29.5915 38.2014C29.6293 38.2284 29.6748 38.2423 29.7213 38.2409C29.7677 38.2396 29.8123 38.2231 29.8485 38.1939C29.8846 38.1648 29.9102 38.1246 29.9213 38.0796C29.9325 38.0345 29.9286 37.987 29.9102 37.9444C28.9027 35.6469 26.8082 34.0537 24.9902 34.0537C23.1455 34.0537 21.0729 35.6375 20.0701 37.9249C20.0517 37.9675 20.0478 38.015 20.0589 38.0601C20.0701 38.1051 20.0957 38.1453 20.1318 38.1744C20.1679 38.2036 20.2127 38.2201 20.2591 38.2214C20.3055 38.2227 20.351 38.2088 20.3888 38.1818C21.7625 37.1814 23.4345 36.577 24.987 36.577C26.5271 36.577 28.2077 37.1939 29.5915 38.2014Z" fill="#FF7800"/>
<path d="M29.592 37.2858C29.6298 37.3128 29.6753 37.3267 29.7217 37.3254C29.7681 37.3241 29.8128 37.3076 29.8489 37.2784C29.8851 37.2493 29.9107 37.2091 29.9218 37.1641C29.9329 37.119 29.929 37.0715 29.9106 37.0289C28.9032 34.7313 26.8087 33.1382 24.9906 33.1382C23.146 33.1382 21.0734 34.722 20.0706 37.0086C20.0519 37.0513 20.0477 37.0989 20.0588 37.1441C20.0698 37.1894 20.0953 37.2298 20.1316 37.2591C20.1678 37.2884 20.2126 37.3049 20.2592 37.3062C20.3057 37.3075 20.3514 37.2935 20.3893 37.2663C21.763 36.2659 23.435 35.6614 24.9875 35.6614C26.5275 35.6614 28.2081 36.2737 29.592 37.2858Z" fill="#DC4900"/>
<path d="M25.029 34.2784C26.7541 34.2784 28.7159 35.549 29.8803 37.4561C28.8494 35.2374 26.8057 33.7075 25.0298 33.7075C23.2258 33.7075 21.2031 35.2226 20.1816 37.4272C21.3375 35.5373 23.2789 34.2784 25.029 34.2784Z" fill="#4A0900"/>
<path d="M20.3887 37.835C21.7624 36.8354 23.4345 36.2309 24.987 36.2309C26.5208 36.2309 28.2014 36.8432 29.5853 37.8553C29.623 37.8823 29.6686 37.8962 29.715 37.8949C29.7614 37.8935 29.8061 37.877 29.8422 37.8479C29.8783 37.8187 29.9039 37.7786 29.9151 37.7335C29.9262 37.6884 29.9223 37.641 29.9039 37.5984C29.8828 37.5492 29.8602 37.5015 29.8375 37.4531C28.6731 35.546 26.7137 34.2754 24.9862 34.2754C23.2361 34.2754 21.2947 35.5343 20.1389 37.4273C20.1154 37.4773 20.0928 37.5273 20.0701 37.578C20.0517 37.6207 20.0478 37.6681 20.0589 37.7132C20.0701 37.7583 20.0957 37.7984 20.1318 37.8276C20.1679 37.8567 20.2127 37.8732 20.2591 37.8746C20.3055 37.8759 20.351 37.862 20.3887 37.835Z" fill="#7C1900"/>
<path d="M26.9352 26.4999C27.2422 26.5975 27.2437 26.3648 28.5752 25.3035C29.9068 24.2422 31.8686 23.7065 32.2543 23.6034C32.6401 23.5003 34.3379 23.2059 34.7214 23.1699C34.7896 23.1626 34.8554 23.1405 34.9142 23.1052C34.973 23.0698 35.0234 23.0221 35.0619 22.9653C35.4391 23.3011 35.1283 23.6596 34.8362 23.6869C34.4527 23.7229 32.7565 24.0173 32.3699 24.1204C31.9834 24.2234 30.0208 24.76 28.6901 25.8205C27.3593 26.881 27.3624 27.1138 27.0501 27.0161C26.9204 26.9747 26.8564 26.7818 26.9048 26.4835C26.9146 26.4896 26.9248 26.4951 26.9352 26.4999Z" fill="#FFAD1E"/>
<path d="M23.0411 26.4999C22.735 26.5975 22.7334 26.3648 21.4011 25.3035C20.0688 24.2422 18.1078 23.7065 17.7212 23.6034C17.3347 23.5003 15.6384 23.2059 15.255 23.1699C15.1867 23.1629 15.1208 23.1409 15.062 23.1055C15.0031 23.0701 14.9528 23.0223 14.9145 22.9653C14.5373 23.3011 14.8473 23.6596 15.1394 23.6869C15.5236 23.7229 17.2198 24.0173 17.6064 24.1204C17.993 24.2234 19.9555 24.76 21.2855 25.8205C22.6155 26.881 22.617 27.1138 22.9255 27.0161C23.0552 26.9747 23.1192 26.7818 23.07 26.4835C23.0609 26.4899 23.0512 26.4954 23.0411 26.4999Z" fill="#FFAD1E"/>
<path d="M20.0055 30.6478C18.9356 30.6478 18.0531 29.5544 17.8734 28.1089C17.8515 28.2827 17.8403 28.4577 17.8398 28.6329C17.8398 30.3244 18.809 31.6958 20.0055 31.6958C21.2019 31.6958 22.171 30.3244 22.171 28.6329C22.1704 28.4577 22.1588 28.2827 22.1367 28.1089C21.9609 29.5505 21.0746 30.6478 20.0055 30.6478Z" fill="#FF8C00"/>
<path d="M20.0043 25.577C21.0734 25.577 21.9566 26.6751 22.1355 28.1159C22.1577 27.9421 22.1692 27.7671 22.1699 27.5919C22.1699 25.9011 21.1999 24.5298 20.0043 24.5298C18.8086 24.5298 17.8379 25.9011 17.8379 27.5919C17.8383 27.7671 17.8495 27.9421 17.8715 28.1159C18.0488 26.6751 18.9312 25.577 20.0043 25.577Z" fill="#CE4000"/>
<path d="M20.0043 31.1946C21.1792 31.1946 22.1316 29.8233 22.1316 28.1317C22.1316 26.4402 21.1792 25.0688 20.0043 25.0688C18.8294 25.0688 17.877 26.4402 17.877 28.1317C17.877 29.8233 18.8294 31.1946 20.0043 31.1946Z" fill="#7C1900"/>
<path d="M20.0043 25.9295C21.0773 25.9295 21.9621 27.0751 22.1074 28.5621C22.1224 28.4191 22.1302 28.2755 22.1308 28.1317C22.1308 26.4402 21.1788 25.0688 20.0043 25.0688C18.8297 25.0688 17.877 26.4402 17.877 28.1317C17.877 28.2786 17.8871 28.4215 17.9004 28.5621C18.0464 27.0751 18.9313 25.9295 20.0043 25.9295Z" fill="#4A0900"/>
<path d="M29.9957 30.6478C28.9258 30.6478 28.0433 29.5544 27.8637 28.1089C27.8421 28.2827 27.8309 28.4577 27.8301 28.6329C27.8301 30.3244 28.7992 31.6958 29.9957 31.6958C31.1921 31.6958 32.1612 30.3244 32.1612 28.6329C32.1604 28.4577 32.1492 28.2827 32.1277 28.1089C31.9512 29.5505 31.0648 30.6478 29.9957 30.6478Z" fill="#FF8C00"/>
<path d="M29.9957 25.577C31.0648 25.577 31.9481 26.6751 32.1277 28.1159C32.1493 27.9421 32.1605 27.7671 32.1612 27.5919C32.1612 25.9011 31.1913 24.5298 29.9957 24.5298C28.8 24.5298 27.8301 25.9011 27.8301 27.5919C27.8308 27.7671 27.8421 27.9421 27.8637 28.1159C28.0402 26.6751 28.9281 25.577 29.9957 25.577Z" fill="#CE4000"/>
<path d="M29.9925 31.1946C31.1674 31.1946 32.1199 29.8233 32.1199 28.1317C32.1199 26.4402 31.1674 25.0688 29.9925 25.0688C28.8176 25.0688 27.8652 26.4402 27.8652 28.1317C27.8652 29.8233 28.8176 31.1946 29.9925 31.1946Z" fill="#7C1900"/>
<path d="M29.9925 25.9295C31.0656 25.9295 31.9504 27.0751 32.0957 28.5621C32.1106 28.4191 32.1184 28.2755 32.1191 28.1317C32.1191 26.4402 31.1671 25.0688 29.9925 25.0688C28.818 25.0688 27.8652 26.4402 27.8652 28.1317C27.8652 28.2786 27.8754 28.4215 27.8886 28.5621C28.0347 27.0751 28.9195 25.9295 29.9925 25.9295Z" fill="#4A0900"/>
<path d="M31.6934 22.4104C31.6934 22.4104 33.367 22.0035 34.533 22.3893C35.6989 22.7751 35.2788 23.3952 34.8907 23.4311C34.5025 23.467 32.7868 23.7638 32.3963 23.8676C32.0058 23.9715 30.0206 24.5158 28.6774 25.5967C27.3342 26.6775 27.3334 26.9157 27.0226 26.815C26.7117 26.7142 26.7641 25.7341 27.8457 24.6103C28.9273 23.4865 30.1846 22.7462 31.6934 22.4104Z" fill="#7C1900"/>
<path d="M34.6513 22.9181C33.4854 22.5323 31.8118 22.9391 31.8118 22.9391C30.303 23.275 29.0456 24.0137 27.964 25.1383C27.3393 25.7873 27.0597 26.3878 26.9933 26.7986C26.7192 26.6424 26.8027 25.6951 27.8461 24.6119C28.9277 23.4874 30.1851 22.7486 31.6946 22.412C31.6946 22.412 33.3674 22.0059 34.5334 22.3909C35.3018 22.6455 35.3815 23.0008 35.2362 23.2242C35.0638 23.0839 34.8649 22.9798 34.6513 22.9181Z" fill="#4A0900"/>
<path d="M18.3139 22.4104C18.3139 22.4104 16.6411 22.0035 15.4751 22.3893C14.3092 22.7751 14.7285 23.3952 15.1167 23.4311C15.5048 23.467 17.2205 23.7638 17.6118 23.8676C18.0031 23.9715 19.9875 24.5158 21.3307 25.5967C22.674 26.6775 22.6747 26.9157 22.9848 26.815C23.2948 26.7142 23.244 25.7341 22.1624 24.6103C21.0808 23.4865 19.8227 22.7462 18.3139 22.4104Z" fill="#7C1900"/>
<path d="M15.3569 22.9181C16.5229 22.5323 18.1965 22.9391 18.1965 22.9391C19.7061 23.275 20.9634 24.0137 22.045 25.1383C22.6698 25.7873 22.9486 26.3878 23.015 26.7986C23.2898 26.6424 23.2063 25.6951 22.1622 24.6119C21.0805 23.4874 19.8193 22.7486 18.3144 22.412C18.3144 22.412 16.6408 22.0059 15.4749 22.3909C14.7072 22.6455 14.6275 23.0008 14.772 23.2242C14.9445 23.084 15.1434 22.9799 15.3569 22.9181Z" fill="#4A0900"/>
<defs>
<linearGradient id="paint0_linear_375_4804" x1="24.9998" y1="7.12471" x2="24.9998" y2="42.5753" gradientUnits="userSpaceOnUse">
<stop stop-color="#FF8900"/>
<stop offset="1" stop-color="#E33300"/>
</linearGradient>
<radialGradient id="paint1_radial_375_4804" cx="0" cy="0" r="1" gradientUnits="userSpaceOnUse" gradientTransform="translate(25.1129 8.58331) scale(33.0187 33.0187)">
<stop stop-color="#FFD974"/>
<stop offset="0.28" stop-color="#FFBA49"/>
<stop offset="0.51" stop-color="#FF8700"/>
<stop offset="0.77" stop-color="#FF6A00"/>
<stop offset="1" stop-color="#FB3800"/>
</radialGradient>
</defs>
</svg>
