<svg width="50" height="50" viewBox="0 0 50 50" fill="none" xmlns="http://www.w3.org/2000/svg">
<path d="M25.0001 43.3829C35.1526 43.3829 43.3829 35.1526 43.3829 25.0001C43.3829 14.8475 35.1526 6.61719 25.0001 6.61719C14.8475 6.61719 6.61719 14.8475 6.61719 25.0001C6.61719 35.1526 14.8475 43.3829 25.0001 43.3829Z" fill="#F85F00"/>
<path d="M37.5 37.5C44.4036 30.5964 44.4036 19.4036 37.5 12.5C30.5964 5.59645 19.4036 5.59645 12.5 12.5C5.59643 19.4036 5.59644 30.5964 12.5 37.5C19.4036 44.4036 30.5964 44.4036 37.5 37.5Z" fill="url(#paint0_linear_375_4802)"/>
<path d="M25.0207 41.6455C34.0575 41.6455 41.3833 34.1932 41.3833 25.0002C41.3833 15.8073 34.0575 8.35498 25.0207 8.35498C15.984 8.35498 8.6582 15.8073 8.6582 25.0002C8.6582 34.1932 15.984 41.6455 25.0207 41.6455Z" fill="url(#paint1_radial_375_4802)"/>
<path d="M13.848 20.5822C13.6465 20.5408 13.495 20.7782 13.6387 20.9094C15.3099 22.4299 17.7504 22.9774 19.4178 22.3151C21.1117 21.6451 22.5002 19.5927 22.6759 17.3522C22.6915 17.1593 22.419 17.0898 22.3003 17.2569C21.3631 18.5767 20.0254 19.6778 18.5986 20.2432C17.1897 20.804 15.4474 20.911 13.848 20.5822Z" fill="#F4A800"/>
<path d="M14.1449 21.3344C13.9434 21.293 13.7919 21.5304 13.9356 21.6608C15.606 23.1813 18.0473 23.7296 19.7146 23.0665C21.4085 22.3973 22.7971 20.3441 22.9736 18.1044C22.9884 17.9107 22.7166 17.8412 22.5972 18.0083C21.66 19.3281 20.3222 20.4293 18.8954 20.9947C17.4858 21.5554 15.7443 21.6624 14.1449 21.3344Z" fill="#FFDB65"/>
<path d="M13.9593 20.8668C13.7579 20.8255 13.6063 21.0637 13.75 21.1941C15.4213 22.7146 17.8618 23.262 19.5291 22.6037C21.223 21.9344 22.6123 19.8813 22.788 17.6407C22.8036 17.4478 22.5311 17.3783 22.4124 17.5454C21.4752 18.8653 20.1367 19.9664 18.7107 20.5318C17.301 21.0886 15.5587 21.1956 13.9593 20.8668Z" fill="#A24200"/>
<path d="M18.8653 20.9239C20.3382 20.3413 21.7283 19.219 22.706 17.8828C22.7236 17.8593 22.7453 17.8392 22.7701 17.8235C22.7763 17.7626 22.7826 17.7016 22.7873 17.6407C22.8029 17.4478 22.5303 17.3783 22.4116 17.5454C21.4745 18.8653 20.1359 19.9664 18.7099 20.5318C17.3042 21.0886 15.5587 21.1956 13.9593 20.8669C13.7579 20.8255 13.6063 21.0637 13.75 21.1941L13.8875 21.3151C13.9164 21.3096 13.9461 21.3096 13.975 21.3151C15.6158 21.6267 17.4119 21.4994 18.8653 20.9239Z" fill="#6B2300"/>
<path d="M36.1554 20.5822C36.3569 20.5408 36.5084 20.7782 36.3647 20.9094C34.6935 22.4299 32.253 22.9774 30.5857 22.3151C28.8918 21.6451 27.5032 19.5927 27.3268 17.3522C27.3119 17.1593 27.5845 17.0898 27.7032 17.2569C28.6403 18.5767 29.9781 19.6778 31.4049 20.2432C32.8098 20.804 34.5521 20.911 36.1554 20.5822Z" fill="#F4A800"/>
<path d="M35.8547 21.3344C36.0562 21.293 36.2077 21.5304 36.064 21.6608C34.3935 23.1813 31.9522 23.7296 30.2849 23.0665C28.591 22.3973 27.2025 20.3441 27.026 18.1044C27.0111 17.9107 27.2829 17.8412 27.4024 18.0083C28.3396 19.3281 29.6773 20.4293 31.1041 20.9947C32.5138 21.5554 34.2553 21.6624 35.8547 21.3344Z" fill="#FFDB65"/>
<path d="M36.0414 20.8668C36.2429 20.8255 36.3944 21.0637 36.2507 21.1941C34.5795 22.7146 32.139 23.262 30.4717 22.6037C28.7785 21.9344 27.3892 19.8813 27.2135 17.6407C27.1979 17.4478 27.4704 17.3783 27.5891 17.5454C28.5263 18.8653 29.8649 19.9664 31.2909 20.5318C32.6997 21.0886 34.4397 21.1956 36.0414 20.8668Z" fill="#A24200"/>
<path d="M31.1355 20.9239C29.6626 20.3413 28.2725 19.219 27.2947 17.8828C27.2772 17.8593 27.2555 17.8392 27.2307 17.8235C27.2244 17.7626 27.2182 17.7016 27.2135 17.6407C27.1979 17.4478 27.4704 17.3783 27.5891 17.5454C28.5263 18.8653 29.8649 19.9664 31.2909 20.5318C32.6966 21.0886 34.442 21.1956 36.0414 20.8669C36.2429 20.8255 36.3944 21.0637 36.2507 21.1941L36.1133 21.3151C36.0844 21.3096 36.0547 21.3096 36.0258 21.3151C34.3842 21.6267 32.5912 21.4994 31.1355 20.9239Z" fill="#6B2300"/>
<path d="M33.7778 16.5388C33.7304 16.5132 33.6811 16.4915 33.6302 16.474C33.5615 16.4498 33.4905 16.4302 33.4202 16.4107C32.7804 16.2252 32.1692 15.9527 31.6036 15.6009C30.0831 14.6637 29.0007 13.2057 28.1089 11.6859C27.9714 11.4517 27.7184 11.4087 27.5622 11.5196C27.5583 11.4805 27.5536 11.4415 27.5505 11.4025C27.5161 10.9784 28.0191 10.8769 28.2338 11.2463C29.1257 12.766 30.2081 14.2217 31.7286 15.1612C32.2932 15.5118 32.9034 15.783 33.542 15.9671C33.6122 15.9874 33.6833 16.007 33.7521 16.0312C33.803 16.0486 33.8524 16.0702 33.8996 16.096C33.992 16.144 34.0674 16.2191 34.1157 16.3113C34.164 16.4034 34.1829 16.5082 34.1699 16.6114C34.1593 16.7174 34.1153 16.8172 34.0441 16.8965C34.0292 16.8208 33.9976 16.7493 33.9515 16.6874C33.9055 16.6255 33.8461 16.5748 33.7778 16.5388Z" fill="#6B2300"/>
<path d="M28.9701 14.901C29.4673 15.5028 30.0728 16.006 30.7554 16.3848C31.5364 16.8182 32.5001 17.161 33.4052 17.1337C33.6395 17.1267 33.8949 17.0681 34.044 16.8994C34.0528 16.951 34.0541 17.0036 34.0479 17.0556C34.0018 17.4461 33.6231 17.5617 33.2834 17.5718C32.379 17.5984 31.4184 17.2594 30.6336 16.8221C29.73 16.3214 28.9643 15.6051 28.4045 14.7369C27.8448 13.8687 27.5085 12.8755 27.4254 11.8459C27.4166 11.7847 27.4243 11.7223 27.4478 11.6652C27.4713 11.608 27.5097 11.5582 27.559 11.521C27.6842 12.7626 28.1754 13.939 28.9701 14.901Z" fill="#FFEBB5"/>
<path d="M33.4048 17.1258C32.4997 17.1531 31.5399 16.8134 30.7551 16.3769C29.869 15.8856 29.1153 15.1868 28.5586 14.3404C28.0019 13.494 27.6587 12.5251 27.5586 11.517C27.7148 11.4061 27.9709 11.4483 28.1053 11.6833C28.9971 13.2031 30.0795 14.6588 31.6 15.5982C32.1673 15.9506 32.7804 16.2231 33.422 16.4081C33.4923 16.4276 33.5634 16.4471 33.6321 16.4714C33.6829 16.4889 33.7323 16.5106 33.7797 16.5362C33.8481 16.5723 33.9076 16.6233 33.9537 16.6855C33.9998 16.7477 34.0313 16.8194 34.046 16.8954C33.8945 17.0579 33.6407 17.1188 33.4048 17.1258Z" fill="#A24200"/>
<path d="M16.2222 16.5388C16.2696 16.5132 16.319 16.4915 16.3698 16.474C16.4385 16.4498 16.5096 16.4302 16.5799 16.4107C17.2196 16.2252 17.8308 15.9527 18.3964 15.6009C19.9169 14.6637 20.9993 13.2057 21.8911 11.6859C22.0286 11.4517 22.2816 11.4087 22.4378 11.5196C22.4417 11.4805 22.4464 11.4415 22.4496 11.4025C22.4839 10.9784 21.981 10.8769 21.7662 11.2463C20.8744 12.766 19.792 14.2217 18.2715 15.1612C17.7068 15.5118 17.0966 15.783 16.4581 15.9671C16.3878 15.9874 16.3167 16.007 16.248 16.0312C16.197 16.0486 16.1477 16.0702 16.1004 16.096C16.0081 16.144 15.9327 16.2191 15.8844 16.3113C15.8361 16.4034 15.8172 16.5082 15.8302 16.6114C15.8407 16.7174 15.8847 16.8172 15.9559 16.8965C15.9708 16.8208 16.0024 16.7493 16.0485 16.6874C16.0946 16.6255 16.1539 16.5748 16.2222 16.5388Z" fill="#6B2300"/>
<path d="M21.0291 14.901C20.532 15.5028 19.9264 16.006 19.2439 16.3848C18.459 16.8182 17.4992 17.161 16.5941 17.1337C16.3598 17.1267 16.1044 17.0681 15.9553 16.8994C15.9461 16.951 15.9448 17.0036 15.9514 17.0556C15.9974 17.4461 16.3762 17.5617 16.7159 17.5718C17.6203 17.5984 18.5808 17.2594 19.3657 16.8221C20.2692 16.3214 21.035 15.6051 21.5947 14.7369C22.1545 13.8687 22.4908 12.8755 22.5739 11.8459C22.5827 11.7847 22.575 11.7223 22.5515 11.6652C22.528 11.608 22.4896 11.5582 22.4403 11.521C22.3151 12.7626 21.8239 13.939 21.0291 14.901Z" fill="#FFEBB5"/>
<path d="M16.5869 17.1258C17.492 17.1531 18.4518 16.8134 19.2367 16.3769C20.1227 15.8856 20.8764 15.1868 21.4331 14.3404C21.9898 13.494 22.333 12.5251 22.4331 11.517C22.2769 11.4061 22.0207 11.4483 21.8864 11.6833C20.9946 13.2031 19.9122 14.6588 18.3917 15.5982C17.8261 15.9501 17.2149 16.2226 16.5752 16.4081C16.5049 16.4276 16.4338 16.4471 16.3651 16.4714C16.3142 16.4889 16.2649 16.5106 16.2175 16.5362C16.149 16.5723 16.0896 16.6233 16.0435 16.6855C15.9974 16.7477 15.9658 16.8194 15.9512 16.8954C16.0972 17.0579 16.351 17.1188 16.5869 17.1258Z" fill="#A24200"/>
<path d="M35.7719 35.748C35.7719 29.7424 30.9409 25.4722 24.9822 25.4722C19.0236 25.4722 14.1934 29.7338 14.1934 35.7394V35.7511C14.1936 35.7925 14.1975 35.8338 14.2051 35.8745C14.4612 30.1298 19.1883 26.1001 24.9822 26.1001C30.7761 26.1001 35.5001 30.1352 35.7594 35.8768C35.7669 35.8353 35.7708 35.7933 35.7711 35.7511L35.7719 35.748Z" fill="#F4A800"/>
<path d="M24.9705 26.106C19.1758 26.106 14.4487 30.1357 14.1934 35.8804C14.206 35.9557 14.2307 36.0285 14.2668 36.0959C14.936 30.8175 19.4734 27.1891 24.9713 27.1891C30.4692 27.1891 35.0027 30.8214 35.6751 36.0975C35.7112 36.0304 35.7363 35.9578 35.7493 35.8827C35.4884 30.1411 30.7629 26.106 24.9705 26.106Z" fill="#6B2300"/>
<path d="M34.9761 36.4077C32.0569 35.437 28.6457 34.8794 25.0002 34.8794C21.3547 34.8794 17.9435 35.437 15.0243 36.4077C14.8861 36.4515 14.7368 36.4446 14.6033 36.3882C14.4697 36.3318 14.3607 36.2296 14.2957 36.1C14.2749 36.2661 14.2577 36.4345 14.2441 36.6053C14.2659 36.6856 14.3036 36.7607 14.355 36.8261C14.4064 36.8915 14.4705 36.9459 14.5434 36.9861C14.6162 37.0262 14.6964 37.0513 14.7792 37.0598C14.8619 37.0683 14.9456 37.0601 15.0251 37.0356C17.9443 36.0649 21.3555 35.5073 25.001 35.5073C28.6465 35.5073 32.0577 36.0649 34.9769 37.0356C35.0563 37.0601 35.1398 37.0685 35.2224 37.0601C35.305 37.0517 35.3851 37.0269 35.458 36.987C35.5308 36.947 35.5949 36.8929 35.6464 36.8277C35.698 36.7626 35.7358 36.6877 35.7579 36.6076C35.7446 36.4374 35.7274 36.2679 35.7063 36.1016C35.641 36.2311 35.5315 36.3331 35.3977 36.3892C35.2638 36.4454 35.1144 36.4519 34.9761 36.4077Z" fill="#FFDB65"/>
<path d="M15.0509 36.4039C17.9701 35.4332 21.3813 34.8756 25.0268 34.8756C28.6723 34.8756 32.0835 35.4332 35.0027 36.4039C35.1406 36.4475 35.2895 36.4406 35.4229 36.3845C35.5562 36.3285 35.6652 36.2268 35.7305 36.0978C35.0581 30.8217 30.5224 27.1895 25.0268 27.1895C19.5312 27.1895 14.9915 30.8178 14.3223 36.0962C14.3872 36.2258 14.4963 36.328 14.6298 36.3844C14.7634 36.4408 14.9127 36.4477 15.0509 36.4039Z" fill="#A24200"/>
<path d="M31.5988 30.2553C31.9174 30.3974 32.1837 29.9726 31.9112 29.7516C29.9633 28.1485 27.5189 27.272 24.9962 27.272C22.4735 27.272 20.0291 28.1485 18.0813 29.7516C17.8118 29.9726 18.0813 30.3974 18.3936 30.2553C20.4716 29.3337 22.7195 28.8575 24.9927 28.8575C27.2659 28.8575 29.5138 29.3337 31.5918 30.2553H31.5988Z" fill="#F3F3F3"/>
<path d="M20.5358 28.2305C19.6548 28.6265 18.8306 29.1384 18.0852 29.7525C17.8157 29.9736 18.0852 30.3984 18.3975 30.2563C18.963 30.0051 19.5423 29.7866 20.1328 29.6018C20.0689 29.4676 20.0354 29.321 20.0344 29.1723C20.036 28.8341 20.2148 28.5147 20.5358 28.2305Z" fill="#C5D6D6"/>
<path d="M31.9148 29.7515C31.2103 29.171 30.4358 28.6812 29.6094 28.2935C29.8851 28.5621 30.0389 28.8589 30.0389 29.1712C30.0378 29.3275 30.0007 29.4815 29.9303 29.6211C30.4978 29.8018 31.055 30.0135 31.5992 30.2552C31.9179 30.3974 32.1842 29.9725 31.9148 29.7515Z" fill="#C5D6D6"/>
<defs>
<linearGradient id="paint0_linear_375_4802" x1="24.9998" y1="7.12529" x2="24.9998" y2="42.5759" gradientUnits="userSpaceOnUse">
<stop stop-color="#FFCC00"/>
<stop offset="1" stop-color="#FB7F00"/>
</linearGradient>
<radialGradient id="paint1_radial_375_4802" cx="0" cy="0" r="1" gradientUnits="userSpaceOnUse" gradientTransform="translate(25.1129 8.5838) scale(33.0187 33.0187)">
<stop stop-color="#FCFCDD"/>
<stop offset="0.28" stop-color="#FCF1A0"/>
<stop offset="0.51" stop-color="#FFDA00"/>
<stop offset="0.77" stop-color="#FFB400"/>
<stop offset="1" stop-color="#FA9000"/>
</radialGradient>
</defs>
</svg>
