<svg width="50" height="50" viewBox="0 0 50 50" fill="none" xmlns="http://www.w3.org/2000/svg">
<path d="M25.0001 43.3834C35.1526 43.3834 43.3829 35.1531 43.3829 25.0005C43.3829 14.848 35.1526 6.61768 25.0001 6.61768C14.8475 6.61768 6.61719 14.848 6.61719 25.0005C6.61719 35.1531 14.8475 43.3834 25.0001 43.3834Z" fill="#F85F00"/>
<path d="M37.5 37.5C44.4035 30.5964 44.4036 19.4035 37.5 12.5C30.5964 5.59643 19.4035 5.59645 12.5 12.5C5.59643 19.4036 5.59644 30.5964 12.5 37.5C19.4036 44.4036 30.5964 44.4036 37.5 37.5Z" fill="url(#paint0_linear_375_4780)"/>
<path d="M25.0207 41.646C34.0575 41.646 41.3833 34.1936 41.3833 25.0007C41.3833 15.8078 34.0575 8.35547 25.0207 8.35547C15.984 8.35547 8.6582 15.8078 8.6582 25.0007C8.6582 34.1936 15.984 41.646 25.0207 41.646Z" fill="url(#paint1_radial_375_4780)"/>
<path d="M30.9918 23.5157C29.9226 23.5157 29.0394 22.5785 28.8605 21.354C28.8383 21.5016 28.8269 21.6507 28.8262 21.7999C28.8262 23.2408 29.7961 24.4083 30.9918 24.4083C32.1874 24.4083 33.1581 23.2369 33.1581 21.7999C33.1575 21.6507 33.146 21.5016 33.1238 21.354C32.9481 22.5817 32.0617 23.5157 30.9918 23.5157Z" fill="#FFDF9D"/>
<path d="M30.9918 19.1871C32.0617 19.1871 32.9481 20.1242 33.1238 21.3487C33.146 21.2011 33.1575 21.0521 33.1581 20.9028C33.1581 19.462 32.1882 18.2944 30.9918 18.2944C29.7953 18.2944 28.8262 19.4659 28.8262 20.9028C28.8269 21.0521 28.8383 21.2011 28.8605 21.3487C29.0362 20.1211 29.9226 19.1871 30.9918 19.1871Z" fill="#F4A800"/>
<path d="M30.9691 23.9696C32.144 23.9696 33.0964 22.8021 33.0964 21.362C33.0964 19.9219 32.144 18.7544 30.9691 18.7544C29.7942 18.7544 28.8418 19.9219 28.8418 21.362C28.8418 22.8021 29.7942 23.9696 30.9691 23.9696Z" fill="#A24200"/>
<path d="M30.9683 19.4869C32.0414 19.4869 32.927 20.4616 33.0723 21.7283C33.0872 21.6067 33.095 21.4844 33.0957 21.362C33.0957 19.9219 32.1437 18.7544 30.9683 18.7544C29.793 18.7544 28.8418 19.9219 28.8418 21.362C28.8425 21.4844 28.8503 21.6067 28.8652 21.7283C29.0105 20.4616 29.8953 19.4869 30.9683 19.4869Z" fill="#6B2300"/>
<path d="M19.0269 23.5157C17.957 23.5157 17.0745 22.5785 16.8949 21.354C16.8733 21.5017 16.8621 21.6507 16.8613 21.7999C16.8613 23.2408 17.8305 24.4083 19.0269 24.4083C20.2233 24.4083 21.1925 23.2369 21.1925 21.7999C21.1917 21.6507 21.1804 21.5017 21.1589 21.354C20.9824 22.5817 20.096 23.5157 19.0269 23.5157Z" fill="#FFDF9D"/>
<path d="M19.0269 19.1871C20.096 19.1871 20.9793 20.1242 21.1589 21.3487C21.1804 21.2011 21.1917 21.0521 21.1925 20.9028C21.1925 19.462 20.2226 18.2944 19.0269 18.2944C17.8313 18.2944 16.8613 19.4659 16.8613 20.9028C16.8621 21.0521 16.8733 21.2011 16.8949 21.3487C17.0714 20.1211 17.957 19.1871 19.0269 19.1871Z" fill="#F4A800"/>
<path d="M19.0093 23.9696C20.1838 23.9696 21.1359 22.8021 21.1359 21.362C21.1359 19.9219 20.1838 18.7544 19.0093 18.7544C17.8349 18.7544 16.8828 19.9219 16.8828 21.362C16.8828 22.8021 17.8349 23.9696 19.0093 23.9696Z" fill="#A24200"/>
<path d="M19.0082 19.4869C20.0812 19.4869 20.966 20.4616 21.1113 21.7283C21.1262 21.6067 21.1341 21.4844 21.1347 21.362C21.1347 19.9219 20.1827 18.7544 19.0082 18.7544C17.8336 18.7544 16.8809 19.9219 16.8809 21.362C16.8819 21.4844 16.8897 21.6067 16.9043 21.7283C17.0503 20.4616 17.9352 19.4869 19.0082 19.4869Z" fill="#6B2300"/>
<path d="M24.9922 28.0992C26.2377 28.0933 27.4691 28.3626 28.5984 28.8879C29.7277 29.4132 30.727 30.1815 31.5248 31.1379C32.0715 31.7822 32.9407 32.8248 33.7513 33.9127C33.7825 33.957 33.8287 33.9884 33.8813 34.0011C33.934 34.0137 33.9895 34.0068 34.0373 33.9815C34.0852 33.9562 34.1223 33.9143 34.1415 33.8637C34.1607 33.8131 34.1608 33.7572 34.1418 33.7065C32.726 29.708 29.1648 26.8716 24.9945 26.8716C20.8453 26.8716 17.299 29.683 15.8691 33.6456C15.8446 33.7129 15.8458 33.7869 15.8726 33.8534C15.8993 33.9199 15.9497 33.9741 16.014 34.0057C16.0783 34.0373 16.1521 34.044 16.221 34.0245C16.29 34.005 16.3493 33.9607 16.3876 33.9002C16.8835 33.1294 17.3654 32.4312 17.7519 31.89C19.3709 29.6198 21.9433 28.182 24.7305 28.1031C24.8164 28.1008 24.9039 28.0992 24.9922 28.0992Z" fill="#F4A800"/>
<path d="M34.139 34.1339C32.7232 30.1362 29.162 27.2998 24.9917 27.2998C20.8425 27.2998 17.2962 30.1112 15.8663 34.0738C15.8467 34.1291 15.8443 34.189 15.8593 34.2458C15.8743 34.3025 15.906 34.3534 15.9504 34.3918C15.9947 34.4302 16.0496 34.4544 16.1079 34.4612C16.1661 34.468 16.2251 34.4571 16.2771 34.4299C16.2164 34.4026 16.1685 34.353 16.1435 34.2913C16.1185 34.2296 16.1182 34.1607 16.1428 34.0988C17.5297 30.3869 20.9691 27.759 24.9925 27.759C29.0355 27.759 32.4897 30.4142 33.8618 34.155C33.8788 34.1958 33.8815 34.2412 33.8694 34.2837C33.8574 34.3262 33.8313 34.3634 33.7954 34.3893C33.8338 34.4187 33.8808 34.4349 33.9292 34.4353C33.9776 34.4356 34.0248 34.4202 34.0637 34.3913C34.1025 34.3625 34.1309 34.3217 34.1445 34.2753C34.1581 34.2288 34.1562 34.1792 34.139 34.1339Z" fill="#6B2300"/>
<path d="M33.7512 34.3445C32.9406 33.2566 32.0737 32.214 31.5247 31.5698C30.727 30.6132 29.7277 29.8449 28.5983 29.3197C27.469 28.7945 26.2375 28.5255 24.992 28.5318C24.9037 28.5318 24.8163 28.5318 24.728 28.5318C21.9408 28.6099 19.3684 30.0477 17.7494 32.3179C17.3629 32.8599 16.881 33.5573 16.3851 34.3289C16.3584 34.3713 16.3213 34.4063 16.2773 34.4304C16.3391 34.4644 16.4115 34.4737 16.4799 34.4565C16.5483 34.4392 16.6076 34.3967 16.6459 34.3375C17.127 33.6159 17.594 32.963 17.9689 32.4554C18.7554 31.3913 19.7732 30.5196 20.9455 29.9059C22.1178 29.2921 23.414 28.9524 24.7366 28.9122C24.8217 28.9122 24.9069 28.9122 24.9928 28.9122C26.0755 28.9105 27.1487 29.1129 28.1564 29.5088C29.3757 29.9972 30.4622 30.7671 31.3271 31.7556C31.8597 32.3585 32.7 33.3347 33.4857 34.3531C33.5034 34.3765 33.5256 34.3961 33.5511 34.4107C33.5766 34.4253 33.6048 34.4346 33.634 34.438C33.6632 34.4415 33.6928 34.439 33.7209 34.4307C33.7491 34.4224 33.7754 34.4085 33.798 34.3898C33.7801 34.3773 33.7643 34.362 33.7512 34.3445Z" fill="#FFDF9D"/>
<path d="M33.8623 34.1548C32.4902 30.4132 29.036 27.7588 24.993 27.7588C20.9695 27.7588 17.5302 30.3867 16.1432 34.0986C16.1187 34.1604 16.1189 34.2294 16.144 34.2911C16.169 34.3528 16.2169 34.4024 16.2776 34.4297C16.3216 34.4056 16.3586 34.3706 16.3853 34.3282C16.8812 33.5566 17.3631 32.8592 17.7497 32.3172C19.3686 30.047 21.941 28.61 24.7283 28.5311C24.8165 28.5311 24.904 28.5311 24.9922 28.5311C26.2377 28.5248 27.4692 28.7938 28.5986 29.319C29.7279 29.8442 30.7272 30.6125 31.5249 31.5691C32.0716 32.2133 32.9408 33.2559 33.7514 34.3438C33.7638 34.3611 33.7788 34.3764 33.7959 34.3891C33.8318 34.3632 33.8578 34.326 33.8699 34.2835C33.8819 34.241 33.8793 34.1956 33.8623 34.1548Z" fill="#A24200"/>
<defs>
<linearGradient id="paint0_linear_375_4780" x1="24.9997" y1="7.12471" x2="24.9997" y2="42.5753" gradientUnits="userSpaceOnUse">
<stop stop-color="#FFCC00"/>
<stop offset="1" stop-color="#FB7F00"/>
</linearGradient>
<radialGradient id="paint1_radial_375_4780" cx="0" cy="0" r="1" gradientUnits="userSpaceOnUse" gradientTransform="translate(25.1137 8.58429) scale(33.0187 33.0187)">
<stop stop-color="#FCFCDD"/>
<stop offset="0.28" stop-color="#FCF1A0"/>
<stop offset="0.51" stop-color="#FFDA00"/>
<stop offset="0.77" stop-color="#FFB400"/>
<stop offset="1" stop-color="#FA9000"/>
</radialGradient>
</defs>
</svg>
