<svg width="50" height="50" viewBox="0 0 50 50" fill="none" xmlns="http://www.w3.org/2000/svg">
<path d="M25.0001 43.3824C35.1526 43.3824 43.3829 35.1521 43.3829 24.9996C43.3829 14.847 35.1526 6.6167 25.0001 6.6167C14.8475 6.6167 6.61719 14.847 6.61719 24.9996C6.61719 35.1521 14.8475 43.3824 25.0001 43.3824Z" fill="#F85F00"/>
<path d="M37.5 37.5C44.4035 30.5964 44.4035 19.4036 37.5 12.5C30.5964 5.59645 19.4036 5.59645 12.5 12.5C5.59644 19.4036 5.59644 30.5964 12.5 37.5C19.4036 44.4036 30.5964 44.4036 37.5 37.5Z" fill="url(#paint0_linear_375_4792)"/>
<path d="M25.0207 41.645C34.0575 41.645 41.3833 34.1927 41.3833 24.9997C41.3833 15.8068 34.0575 8.35449 25.0207 8.35449C15.984 8.35449 8.6582 15.8068 8.6582 24.9997C8.6582 34.1927 15.984 41.645 25.0207 41.645Z" fill="url(#paint1_radial_375_4792)"/>
<path d="M36.5511 33.6949C39.5586 33.6949 41.9967 31.2568 41.9967 28.2493C41.9967 25.2418 39.5586 22.8037 36.5511 22.8037C33.5436 22.8037 31.1055 25.2418 31.1055 28.2493C31.1055 31.2568 33.5436 33.6949 36.5511 33.6949Z" fill="url(#paint2_radial_375_4792)"/>
<path d="M13.4378 33.6949C16.4453 33.6949 18.8834 31.2568 18.8834 28.2493C18.8834 25.2418 16.4453 22.8037 13.4378 22.8037C10.4303 22.8037 7.99219 25.2418 7.99219 28.2493C7.99219 31.2568 10.4303 33.6949 13.4378 33.6949Z" fill="url(#paint3_radial_375_4792)"/>
<path d="M19.8101 19.1742C21.472 19.1742 22.8192 21.1648 22.8192 23.6201C22.8192 23.7646 22.8137 23.9083 22.8043 24.0497C22.9049 23.604 22.9552 23.1484 22.9543 22.6916C22.9543 20.2363 21.5486 18.2456 19.8101 18.2456C18.0717 18.2456 16.666 20.2363 16.666 22.6916C16.6651 23.1484 16.7154 23.604 16.816 24.0497C16.8066 23.9083 16.8011 23.7646 16.8011 23.6201C16.8011 21.1648 18.1483 19.1742 19.8101 19.1742Z" fill="#F4A800"/>
<path d="M19.7563 22.7459C20.7481 22.7459 21.6095 23.6932 22.0492 25.0888C22.0649 25.1435 22.0983 25.1914 22.1441 25.2251C22.19 25.2589 22.2457 25.2765 22.3025 25.2752C22.3594 25.274 22.4143 25.2539 22.4586 25.2182C22.5029 25.1825 22.5341 25.1332 22.5475 25.0778C22.705 24.5188 22.7839 23.9405 22.7817 23.3597C22.7817 20.9052 21.4276 18.9146 19.7571 18.9146C18.0866 18.9146 16.7325 20.9052 16.7325 23.3597C16.7303 23.9405 16.8092 24.5188 16.9668 25.0778C16.9801 25.1332 17.0113 25.1825 17.0556 25.2182C17.0999 25.2539 17.1548 25.274 17.2117 25.2752C17.2686 25.2765 17.3243 25.2589 17.3701 25.2251C17.4159 25.1914 17.4493 25.1435 17.465 25.0888C17.9031 23.6932 18.7645 22.7459 19.7563 22.7459Z" fill="#A24100"/>
<path d="M22.5482 25.0697C22.5349 25.125 22.5036 25.1744 22.4593 25.2101C22.415 25.2458 22.3602 25.2659 22.3033 25.2671C22.2464 25.2683 22.1907 25.2507 22.1449 25.217C22.099 25.1833 22.0657 25.1353 22.0499 25.0807C21.6103 23.6874 20.7489 22.7378 19.7571 22.7378C18.7653 22.7378 17.9039 23.6851 17.4642 25.0807C17.4485 25.1353 17.4151 25.1833 17.3693 25.217C17.3234 25.2507 17.2677 25.2683 17.2108 25.2671C17.154 25.2659 17.0991 25.2458 17.0548 25.2101C17.0105 25.1744 16.9792 25.125 16.9659 25.0697C16.8335 24.5998 16.7573 24.1159 16.7387 23.6281C16.7387 23.7304 16.7324 23.8327 16.7324 23.9405C16.7325 24.4717 16.7849 25.0017 16.8886 25.5227C16.902 25.6005 16.9415 25.6715 17.0005 25.7241C17.0595 25.7766 17.1345 25.8076 17.2134 25.812C17.2923 25.8163 17.3703 25.7938 17.4347 25.748C17.4992 25.7023 17.5462 25.6361 17.568 25.5602C18.0304 24.1669 18.8394 23.2438 19.7602 23.2438C20.6809 23.2438 21.4869 24.163 21.95 25.5563C21.9719 25.6322 22.0189 25.6984 22.0833 25.7441C22.1477 25.7899 22.2257 25.8124 22.3046 25.8081C22.3835 25.8037 22.4586 25.7727 22.5176 25.7202C22.5766 25.6676 22.616 25.5966 22.6294 25.5188C22.7332 24.9978 22.7855 24.4678 22.7856 23.9366C22.7856 23.8327 22.7856 23.7304 22.7794 23.6242C22.7598 24.1135 22.6822 24.5987 22.5482 25.0697Z" fill="#FFF083"/>
<path d="M19.7571 19.8446C21.3557 19.8446 22.6513 21.8352 22.6513 24.2898C22.6513 24.435 22.6466 24.5787 22.6372 24.7201C22.734 24.2736 22.7824 23.818 22.7817 23.3612C22.7817 20.9067 21.4275 18.916 19.7571 18.916C18.0866 18.916 16.7324 20.9067 16.7324 23.3612C16.7317 23.818 16.7802 24.2736 16.8769 24.7201C16.8675 24.5787 16.8629 24.435 16.8629 24.2898C16.8629 21.8352 18.1585 19.8446 19.7571 19.8446Z" fill="#6B2300"/>
<path d="M30.2172 19.1742C31.879 19.1742 33.2254 21.1648 33.2254 23.6201C33.2254 23.7646 33.2207 23.9083 33.2113 24.0497C33.3119 23.604 33.3622 23.1484 33.3613 22.6916C33.3613 20.2363 31.9556 18.2456 30.2172 18.2456C28.4788 18.2456 27.0723 20.2363 27.0723 22.6916C27.0716 23.1485 27.1222 23.604 27.223 24.0497C27.2136 23.9083 27.2082 23.7646 27.2082 23.6201C27.2082 21.1648 28.5553 19.1742 30.2172 19.1742Z" fill="#F4A800"/>
<path d="M30.2368 22.7459C31.2286 22.7459 32.09 23.6932 32.5297 25.0888C32.5454 25.1435 32.5788 25.1914 32.6246 25.2251C32.6704 25.2589 32.7261 25.2765 32.783 25.2752C32.8399 25.274 32.8948 25.2539 32.9391 25.2182C32.9834 25.1825 33.0146 25.1332 33.0279 25.0778C33.1855 24.5188 33.2643 23.9405 33.2622 23.3597C33.2622 20.9052 31.908 18.9146 30.2376 18.9146C28.5671 18.9146 27.2129 20.9052 27.2129 23.3597C27.2108 23.9405 27.2896 24.5188 27.4472 25.0778C27.4605 25.1332 27.4918 25.1825 27.5361 25.2182C27.5804 25.2539 27.6352 25.274 27.6921 25.2752C27.749 25.2765 27.8047 25.2589 27.8505 25.2251C27.8964 25.1914 27.9297 25.1435 27.9455 25.0888C28.3836 23.6932 29.245 22.7459 30.2368 22.7459Z" fill="#A24100"/>
<path d="M33.0287 25.0697C33.0153 25.125 32.9841 25.1744 32.9398 25.2101C32.8955 25.2458 32.8406 25.2659 32.7837 25.2671C32.7269 25.2683 32.6712 25.2507 32.6253 25.217C32.5795 25.1833 32.5461 25.1353 32.5304 25.0807C32.0907 23.6874 31.2293 22.7378 30.2375 22.7378C29.2457 22.7378 28.3843 23.6851 27.9446 25.0807C27.9289 25.1353 27.8955 25.1833 27.8497 25.217C27.8039 25.2507 27.7482 25.2683 27.6913 25.2671C27.6344 25.2659 27.5795 25.2458 27.5352 25.2101C27.4909 25.1744 27.4597 25.125 27.4464 25.0697C27.3136 24.5999 27.2373 24.116 27.2191 23.6281C27.2152 23.7304 27.2129 23.8327 27.2129 23.9405C27.213 24.4717 27.2653 25.0017 27.3691 25.5227C27.3825 25.6005 27.4219 25.6715 27.4809 25.7241C27.5399 25.7766 27.615 25.8076 27.6939 25.812C27.7728 25.8163 27.8508 25.7938 27.9152 25.748C27.9796 25.7023 28.0266 25.6361 28.0485 25.5602C28.5108 24.1669 29.3199 23.2438 30.2406 23.2438C31.1614 23.2438 31.9705 24.1669 32.4328 25.5602C32.4547 25.6361 32.5017 25.7023 32.5661 25.748C32.6305 25.7938 32.7085 25.8163 32.7874 25.812C32.8663 25.8076 32.9414 25.7766 33.0004 25.7241C33.0594 25.6715 33.0988 25.6005 33.1122 25.5227C33.216 25.0017 33.2683 24.4717 33.2684 23.9405C33.2684 23.8366 33.2684 23.7343 33.2622 23.6281C33.2415 24.1162 33.1632 24.6001 33.0287 25.0697Z" fill="#FFF083"/>
<path d="M30.2375 19.8446C31.8361 19.8446 33.1317 21.8352 33.1317 24.2898C33.1317 24.435 33.1271 24.5787 33.1177 24.7201C33.2144 24.2736 33.2629 23.818 33.2622 23.3612C33.2622 20.9067 31.908 18.916 30.2375 18.916C28.5671 18.916 27.2129 20.9067 27.2129 23.3612C27.2122 23.818 27.2606 24.2736 27.3574 24.7201C27.348 24.5787 27.3433 24.435 27.3433 24.2898C27.3433 21.8352 28.6389 19.8446 30.2375 19.8446Z" fill="#6B2300"/>
<path d="M16.4645 29.8916C16.4114 29.851 16.3455 29.8306 16.2788 29.8342C16.212 29.8379 16.1487 29.8653 16.1004 29.9115C16.052 29.9576 16.0218 30.0196 16.0151 30.0861C16.0084 30.1526 16.0257 30.2194 16.0639 30.2743C17.0694 31.7116 18.4068 32.8851 19.9626 33.6954C21.5183 34.5057 23.2466 34.9288 25.0007 34.9288C26.7548 34.9288 28.4831 34.5057 30.0389 33.6954C31.5946 32.8851 32.932 31.7116 33.9376 30.2743C33.9762 30.2193 33.9939 30.1523 33.9873 30.0855C33.9807 30.0186 33.9504 29.9563 33.9017 29.91C33.8531 29.8636 33.7895 29.8362 33.7224 29.8329C33.6553 29.8295 33.5892 29.8503 33.5361 29.8916C31.0735 31.7383 28.0784 32.7366 25.0003 32.7366C21.9222 32.7366 18.9271 31.7383 16.4645 29.8916Z" fill="#F4A800"/>
<path d="M16.4653 30.9825C16.4123 30.9423 16.3466 30.9223 16.2802 30.926C16.2137 30.9298 16.1507 30.9571 16.1025 31.003C16.0544 31.0489 16.0241 31.1105 16.0172 31.1767C16.0102 31.2429 16.0271 31.3094 16.0647 31.3644C17.0701 32.8018 18.4075 33.9755 19.9632 34.7859C21.519 35.5963 23.2473 36.0195 25.0015 36.0195C26.7557 36.0195 28.484 35.5963 30.0398 34.7859C31.5956 33.9755 32.9329 32.8018 33.9384 31.3644C33.9765 31.3094 33.9937 31.2426 33.9868 31.1761C33.98 31.1096 33.9496 31.0477 33.9012 31.0016C33.8527 30.9555 33.7894 30.9282 33.7226 30.9247C33.6558 30.9212 33.59 30.9417 33.537 30.9825C31.0744 32.8292 28.0793 33.8275 25.0011 33.8275C21.923 33.8275 18.9279 32.8292 16.4653 30.9825Z" fill="#FFF083"/>
<path d="M16.4645 30.2676C16.4114 30.2269 16.3455 30.2066 16.2788 30.2102C16.212 30.2139 16.1487 30.2412 16.1004 30.2874C16.052 30.3336 16.0218 30.3956 16.0151 30.4621C16.0084 30.5286 16.0257 30.5953 16.0639 30.6502C17.0694 32.0875 18.4068 33.2611 19.9626 34.0714C21.5183 34.8817 23.2466 35.3048 25.0007 35.3048C26.7548 35.3048 28.4831 34.8817 30.0389 34.0714C31.5946 33.2611 32.932 32.0875 33.9376 30.6502C33.9762 30.5953 33.9939 30.5283 33.9873 30.4614C33.9807 30.3946 33.9504 30.3323 33.9017 30.2859C33.8531 30.2396 33.7895 30.2122 33.7224 30.2088C33.6553 30.2055 33.5892 30.2263 33.5361 30.2676C31.0735 32.1143 28.0784 33.1126 25.0003 33.1126C21.9222 33.1126 18.9271 32.1143 16.4645 30.2676Z" fill="#A24200"/>
<path d="M33.8188 30.8142C33.8587 30.7596 33.8969 30.7057 33.9376 30.6502C33.9762 30.5953 33.9939 30.5283 33.9873 30.4614C33.9807 30.3946 33.9504 30.3323 33.9017 30.2859C33.8531 30.2396 33.7895 30.2122 33.7224 30.2088C33.6553 30.2055 33.5892 30.2263 33.5361 30.2676C31.0735 32.1143 28.0784 33.1126 25.0003 33.1126C21.9222 33.1126 18.9271 32.1143 16.4645 30.2676C16.4114 30.2269 16.3455 30.2066 16.2788 30.2102C16.212 30.2139 16.1487 30.2412 16.1004 30.2874C16.052 30.3336 16.0218 30.3956 16.0151 30.4621C16.0084 30.5286 16.0257 30.5953 16.0639 30.6502C16.1029 30.7057 16.142 30.7596 16.1826 30.8142C18.7788 32.5942 21.8529 33.5467 25.0007 33.5467C28.1485 33.5467 31.2226 32.5942 33.8188 30.8142Z" fill="#6B2300"/>
<defs>
<linearGradient id="paint0_linear_375_4792" x1="24.9996" y1="7.12474" x2="24.9996" y2="42.5753" gradientUnits="userSpaceOnUse">
<stop stop-color="#FFCC00"/>
<stop offset="1" stop-color="#FB7F00"/>
</linearGradient>
<radialGradient id="paint1_radial_375_4792" cx="0" cy="0" r="1" gradientUnits="userSpaceOnUse" gradientTransform="translate(25.1137 8.58331) scale(33.0187 33.0187)">
<stop stop-color="#FCFCDD"/>
<stop offset="0.28" stop-color="#FCF1A0"/>
<stop offset="0.51" stop-color="#FFDA00"/>
<stop offset="0.77" stop-color="#FFB400"/>
<stop offset="1" stop-color="#FA9000"/>
</radialGradient>
<radialGradient id="paint2_radial_375_4792" cx="0" cy="0" r="1" gradientUnits="userSpaceOnUse" gradientTransform="translate(36.5511 28.2493) scale(5.44559 5.44559)">
<stop stop-color="#FF6400"/>
<stop offset="0.28" stop-color="#FF6700"/>
<stop offset="0.49" stop-color="#FF7100"/>
<stop offset="0.68" stop-color="#FE8100"/>
<stop offset="0.86" stop-color="#FE9700"/>
<stop offset="1" stop-color="#FDB000"/>
</radialGradient>
<radialGradient id="paint3_radial_375_4792" cx="0" cy="0" r="1" gradientUnits="userSpaceOnUse" gradientTransform="translate(13.4378 28.2493) scale(5.44558 5.44559)">
<stop stop-color="#FF6400"/>
<stop offset="0.24" stop-color="#FF6800"/>
<stop offset="0.47" stop-color="#FF7300"/>
<stop offset="0.68" stop-color="#FE8600"/>
<stop offset="0.9" stop-color="#FDA000"/>
<stop offset="1" stop-color="#FDB000"/>
</radialGradient>
</defs>
</svg>
