<svg width="50" height="50" viewBox="0 0 50 50" fill="none" xmlns="http://www.w3.org/2000/svg">
<path d="M25.0001 43.3824C35.1526 43.3824 43.3829 35.1522 43.3829 24.9996C43.3829 14.847 35.1526 6.6167 25.0001 6.6167C14.8475 6.6167 6.61719 14.847 6.61719 24.9996C6.61719 35.1522 14.8475 43.3824 25.0001 43.3824Z" fill="#F85F00"/>
<path d="M37.5 37.5C44.4035 30.5964 44.4035 19.4036 37.5 12.5C30.5964 5.59645 19.4035 5.59646 12.5 12.5C5.59643 19.4036 5.59644 30.5964 12.5 37.5C19.4036 44.4036 30.5964 44.4036 37.5 37.5Z" fill="url(#paint0_linear_375_4777)"/>
<path d="M25.0207 41.6445C34.0575 41.6445 41.3833 34.1922 41.3833 24.9993C41.3833 15.8063 34.0575 8.354 25.0207 8.354C15.984 8.354 8.6582 15.8063 8.6582 24.9993C8.6582 34.1922 15.984 41.6445 25.0207 41.6445Z" fill="url(#paint1_radial_375_4777)"/>
<path d="M15.7826 31.8195C15.5093 31.75 15.2305 31.9117 15.2305 32.1413V32.2974C15.2305 36.2975 19.5491 39.1425 24.8768 39.1425C30.2045 39.1425 34.5239 36.3037 34.5239 32.3029V32.1467C34.5239 31.9124 34.2451 31.7562 33.9718 31.8242C31.3236 32.4981 28.2099 32.8863 24.8768 32.8863C21.5437 32.8863 18.4308 32.4935 15.7826 31.8195Z" fill="#F4A800"/>
<path d="M15.9119 32.7082C15.6433 32.6403 15.3652 32.7996 15.3652 33.0253V33.1815C15.3652 37.119 19.6168 39.9188 24.8609 39.9188C30.105 39.9188 34.3565 37.1245 34.3565 33.1869V33.0307C34.3565 32.805 34.0823 32.6457 33.8098 32.7145C31.203 33.3775 28.1385 33.7594 24.8577 33.7594C21.5769 33.7594 18.5187 33.372 15.9119 32.7082Z" fill="#FFDB65"/>
<path d="M16.022 32.3249C15.6628 32.2359 15.2988 32.4515 15.2988 32.7529C15.2988 36.7319 19.5941 39.5613 24.8936 39.5613C30.1932 39.5613 34.4923 36.7405 34.4923 32.7615V32.7529C34.4923 32.4515 34.1284 32.2359 33.7684 32.3249C31.1725 32.9685 28.1393 33.3402 24.8967 33.3402C21.6542 33.3402 18.6179 32.9685 16.022 32.3249Z" fill="#A24200"/>
<path d="M34.4892 32.7615V32.7529C34.4892 32.4515 34.1253 32.2359 33.7653 32.3249C31.1694 32.9677 28.1361 33.3402 24.8936 33.3402C21.6511 33.3402 18.6179 32.9708 16.022 32.3249C15.6628 32.2359 15.2988 32.4515 15.2988 32.7529C15.2988 34.9185 16.571 36.7436 18.5859 37.9572C17.1075 36.874 16.2008 35.38 16.2008 33.6369C16.2008 33.3636 16.5312 33.1684 16.8568 33.2465C19.2083 33.8283 21.9564 34.1633 24.8936 34.1633C27.8308 34.1633 30.5766 33.8353 32.9273 33.2496C33.253 33.1715 33.5825 33.3636 33.5833 33.6401V33.6479C33.5833 35.3863 32.6766 36.8818 31.2006 37.9642C33.2139 36.749 34.4892 34.9286 34.4892 32.7615Z" fill="#6B2300"/>
<path d="M37.7509 19.4095C36.0476 18.8558 34.6482 19.5821 34.1585 19.8929C34.1502 19.898 34.1409 19.9014 34.1312 19.9027C34.1215 19.9041 34.1117 19.9035 34.1023 19.901C34.0928 19.8984 34.084 19.8939 34.0764 19.8879C34.0687 19.8818 34.0624 19.8742 34.0578 19.8656C33.8001 19.3447 32.9933 18.0311 31.2557 17.6438C29.069 17.1573 27.3267 18.2131 26.848 20.3599C26.3896 22.4178 26.7277 25.1792 30.9785 29.4831L31.0808 29.5861C31.1342 29.6381 31.1998 29.6757 31.2717 29.6953C31.3435 29.715 31.4192 29.7161 31.4916 29.6986L31.6524 29.6572C37.5877 28.1375 39.3511 25.9508 40.0602 23.9617C40.8005 21.8867 39.8767 20.1007 37.7509 19.4095Z" fill="#F9B700"/>
<path d="M12.228 19.4095C13.9305 18.8558 15.3307 19.5821 15.8204 19.8929C15.8287 19.898 15.838 19.9014 15.8477 19.9027C15.8574 19.9041 15.8672 19.9035 15.8766 19.901C15.8861 19.8984 15.8949 19.8939 15.9025 19.8879C15.9102 19.8818 15.9165 19.8742 15.9211 19.8656C16.1788 19.3447 16.9856 18.0311 18.7232 17.6438C20.9099 17.1573 22.6522 18.2131 23.1309 20.3599C23.5893 22.4178 23.2512 25.1792 19.0004 29.4831L18.8981 29.5861C18.8448 29.6381 18.7791 29.6757 18.7072 29.6953C18.6354 29.715 18.5598 29.7161 18.4874 29.6986L18.3257 29.6572C12.3904 28.1375 10.6278 25.9508 9.91794 23.9617C9.17838 21.8867 10.1022 20.1007 12.228 19.4095Z" fill="#F9B700"/>
<path d="M37.3723 18.9103C35.7229 18.3784 34.3734 19.0594 33.9017 19.3507C33.8936 19.3555 33.8846 19.3587 33.8752 19.36C33.8659 19.3613 33.8564 19.3606 33.8473 19.3582C33.8382 19.3557 33.8296 19.3514 33.8222 19.3456C33.8148 19.3397 33.8086 19.3324 33.8041 19.3242C33.5526 18.8298 32.7662 17.5834 31.084 17.2085C28.97 16.74 27.2886 17.7287 26.8364 19.7568C26.403 21.7022 26.7435 24.3152 30.8739 28.4082L30.9731 28.5058C31.0252 28.5555 31.0888 28.5914 31.1582 28.6104C31.2276 28.6293 31.3006 28.6307 31.3706 28.6144L31.5268 28.5761C37.2543 27.1665 38.9514 25.1071 39.6269 23.2289C40.3321 21.2687 39.4301 19.5748 37.3723 18.9103Z" fill="#D00018"/>
<path d="M38.6557 20.8277C38.3792 20.2881 37.8474 19.8773 37.1164 19.6399C35.9489 19.2603 34.9516 19.7617 34.5783 19.9944C34.439 20.0783 34.2839 20.1327 34.1227 20.1543C33.9616 20.1759 33.7977 20.1643 33.6412 20.1202C33.4863 20.0801 33.3415 20.0081 33.216 19.9089C33.0906 19.8096 32.9872 19.6853 32.9125 19.5438C32.7173 19.158 32.1355 18.2303 30.9398 17.9639C29.3678 17.6133 28.219 18.3544 27.8652 19.9366C27.203 22.9043 29.3787 25.6665 31.4318 27.7719C36.8204 26.349 38.1418 24.4138 38.6885 22.884C38.9595 22.1124 38.9493 21.4025 38.6557 20.8277Z" fill="#FD0000"/>
<path d="M32.3345 25.6868C34.7179 26.2179 37.0397 25.4525 38.3423 23.9031C38.5321 23.5851 38.689 23.2486 38.8109 22.8988C39.092 22.1124 39.0811 21.3861 38.7804 20.7981C38.4985 20.2459 37.9534 19.825 37.206 19.5821C36.0112 19.1916 34.9912 19.7063 34.6086 19.9453C34.4661 20.0309 34.3076 20.0866 34.1428 20.1087C33.978 20.1309 33.8104 20.1191 33.6503 20.0741C33.4908 20.0332 33.3416 19.9592 33.2125 19.8569C33.0833 19.7547 32.9771 19.6265 32.9006 19.4806C32.7015 19.0901 32.1056 18.1366 30.8819 17.864C29.2739 17.5056 28.0985 18.26 27.7362 19.8828C27.6216 20.4003 27.5869 20.9323 27.6331 21.4603C28.1368 23.4416 29.926 25.1495 32.3345 25.6868Z" fill="url(#paint2_linear_375_4777)"/>
<path d="M12.5842 18.9103C14.2328 18.3784 15.5831 19.0594 16.0548 19.3507C16.0629 19.3555 16.0719 19.3587 16.0812 19.36C16.0906 19.3613 16.1001 19.3606 16.1092 19.3582C16.1183 19.3557 16.1269 19.3514 16.1343 19.3456C16.1417 19.3397 16.1478 19.3324 16.1524 19.3242C16.4039 18.8298 17.1903 17.5834 18.8725 17.2085C20.9865 16.74 22.6679 17.7287 23.1201 19.7568C23.5535 21.7022 23.213 24.3152 19.0825 28.4082L18.9833 28.5058C18.9313 28.5555 18.8677 28.5914 18.7983 28.6104C18.7289 28.6293 18.6559 28.6307 18.5858 28.6144L18.4297 28.5761C12.7021 27.1665 11.0051 25.1071 10.3296 23.2289C9.62283 21.2687 10.5256 19.5748 12.5842 18.9103Z" fill="#D00018"/>
<path d="M11.3431 20.8274C11.6196 20.2878 12.1514 19.877 12.8824 19.6396C14.0538 19.26 15.0464 19.7614 15.4205 19.9941C15.5598 20.0781 15.7148 20.1326 15.876 20.1542C16.0372 20.1758 16.2011 20.1641 16.3576 20.1199C16.5135 20.08 16.6593 20.0078 16.7854 19.9079C16.9116 19.8081 17.0155 19.6829 17.0902 19.5404C17.2846 19.1546 17.8711 18.2268 19.0629 17.9605C20.6341 17.6099 21.7837 18.351 22.1367 19.9332C22.7997 22.9008 20.624 25.6631 18.5709 27.7685C13.1823 26.3456 11.8609 24.4104 11.3142 22.8805C11.0393 22.1121 11.0495 21.4022 11.3431 20.8274Z" fill="#FD0000"/>
<path d="M17.6816 25.6868C15.2982 26.2179 12.9764 25.4525 11.6738 23.9031C11.484 23.5851 11.327 23.2486 11.2052 22.8988C10.924 22.1124 10.935 21.3861 11.2356 20.7981C11.5176 20.2459 12.0619 19.825 12.81 19.5821C14.0049 19.1916 15.0248 19.7063 15.4075 19.9453C15.55 20.0309 15.7085 20.0866 15.8733 20.1087C16.0381 20.1309 16.2057 20.1191 16.3657 20.0741C16.5252 20.033 16.6743 19.959 16.8034 19.8568C16.9326 19.7545 17.0389 19.6264 17.1154 19.4806C17.3146 19.0901 17.9105 18.1366 19.1342 17.864C20.7422 17.5056 21.9175 18.26 22.2791 19.8828C22.3939 20.4003 22.4289 20.9322 22.383 21.4603C21.8793 23.4416 20.0893 25.1495 17.6816 25.6868Z" fill="url(#paint3_linear_375_4777)"/>
<defs>
<linearGradient id="paint0_linear_375_4777" x1="24.9997" y1="7.12418" x2="24.9997" y2="42.5748" gradientUnits="userSpaceOnUse">
<stop stop-color="#FFCC00"/>
<stop offset="1" stop-color="#FB7F00"/>
</linearGradient>
<radialGradient id="paint1_radial_375_4777" cx="0" cy="0" r="1" gradientUnits="userSpaceOnUse" gradientTransform="translate(25.1129 8.58282) scale(33.0187 33.0187)">
<stop stop-color="#FCFCDD"/>
<stop offset="0.28" stop-color="#FCF1A0"/>
<stop offset="0.51" stop-color="#FFDA00"/>
<stop offset="0.77" stop-color="#FFB400"/>
<stop offset="1" stop-color="#FA9000"/>
</radialGradient>
<linearGradient id="paint2_linear_375_4777" x1="33.9674" y1="18.7836" x2="32.4031" y2="25.729" gradientUnits="userSpaceOnUse">
<stop stop-color="#FFD5D3"/>
<stop offset="0.3" stop-color="#FF1311"/>
</linearGradient>
<linearGradient id="paint3_linear_375_4777" x1="16.3478" y1="19.2479" x2="17.9123" y2="26.194" gradientUnits="userSpaceOnUse">
<stop stop-color="#FFD5D3"/>
<stop offset="0.3" stop-color="#FF1311"/>
</linearGradient>
</defs>
</svg>
