<svg width="36" height="36" viewBox="0 0 36 36" fill="none" xmlns="http://www.w3.org/2000/svg">
<path d="M33.9938 9.89181C33.9753 9.72094 33.913 9.55773 33.813 9.41795C33.713 9.27816 33.5786 9.16652 33.4229 9.09381L18.4228 2.0938C18.2904 2.03202 18.1461 2 18 2C17.8538 2 17.7095 2.03202 17.5771 2.0938L2.57706 9.09381C2.42134 9.16654 2.28699 9.27818 2.18698 9.41796C2.08698 9.55774 2.02469 9.72094 2.00613 9.89181C2.00373 9.92785 2.00169 9.96391 2 10L2 27C1.99999 27.1999 2.05988 27.3951 2.17193 27.5606C2.28398 27.7261 2.44306 27.8542 2.62863 27.9285L17.6286 33.9285C17.867 34.0238 18.133 34.0238 18.3714 33.9285L33.3714 27.9285C33.557 27.8542 33.7161 27.7261 33.8281 27.5606C33.9402 27.3951 34.0001 27.1999 34 27V10C34 9.99475 33.9946 9.89893 33.9938 9.89181ZM18 4.10349L30.484 9.92937L25.6769 11.8522L12.958 6.45649L18 4.10349ZM10.5194 7.59449L23.041 12.9066L18 14.9229L5.51601 9.92937L10.5194 7.59449ZM4 11.477L17 16.677V31.523L4 26.323V11.477ZM19 31.523V16.677L32 11.477V26.323L19 31.523Z" fill="#2777FC"/>
</svg>
