<svg width="22" height="22" viewBox="0 0 22 22" fill="none" xmlns="http://www.w3.org/2000/svg">
<path d="M20.1654 6.92087C20.1654 7.52587 19.6704 8.02087 19.0654 8.02087H2.93203C2.32703 8.02087 1.83203 7.52587 1.83203 6.92087V6.9117C1.83203 4.81253 3.52786 3.1167 5.62703 3.1167H16.3612C18.4604 3.1167 20.1654 4.8217 20.1654 6.92087Z" fill="#BED6FE"/>
<path d="M1.83203 10.496V15.0885C1.83203 17.1877 3.52786 18.8835 5.62703 18.8835H16.3612C18.4604 18.8835 20.1654 17.1785 20.1654 15.0793V10.496C20.1654 9.891 19.6704 9.396 19.0654 9.396H2.93203C2.32703 9.396 1.83203 9.891 1.83203 10.496ZM7.33203 15.8127H5.4987C5.12286 15.8127 4.8112 15.501 4.8112 15.1252C4.8112 14.7493 5.12286 14.4377 5.4987 14.4377H7.33203C7.70786 14.4377 8.01953 14.7493 8.01953 15.1252C8.01953 15.501 7.70786 15.8127 7.33203 15.8127ZM13.2904 15.8127H9.6237C9.24786 15.8127 8.9362 15.501 8.9362 15.1252C8.9362 14.7493 9.24786 14.4377 9.6237 14.4377H13.2904C13.6662 14.4377 13.9779 14.7493 13.9779 15.1252C13.9779 15.501 13.6662 15.8127 13.2904 15.8127Z" fill="#BED6FE"/>
</svg>
