<svg width="15" height="15" viewBox="0 0 15 15" fill="none" xmlns="http://www.w3.org/2000/svg">
<path d="M6.06589 11.9503C6.00798 12.0085 5.93913 12.0547 5.8633 12.0863C5.78747 12.1178 5.70615 12.134 5.62402 12.134C5.54189 12.134 5.46057 12.1178 5.38474 12.0863C5.3089 12.0547 5.24005 12.0085 5.18214 11.9503L1.65339 8.42089C1.47764 8.24509 1.37891 8.00667 1.37891 7.75808C1.37891 7.50949 1.47764 7.27108 1.65339 7.09527L2.09527 6.65339C2.27108 6.47764 2.50949 6.37891 2.75808 6.37891C3.00667 6.37891 3.24509 6.47764 3.42089 6.65339L5.62402 8.85652L11.5771 2.90339C11.7529 2.72764 11.9914 2.62891 12.24 2.62891C12.4885 2.62891 12.727 2.72764 12.9028 2.90339L13.3446 3.34527C13.5204 3.52108 13.6191 3.75949 13.6191 4.00808C13.6191 4.25667 13.5204 4.49509 13.3446 4.67089L6.06589 11.9503Z" fill="#DDDDDD"/>
</svg>
