<svg width="50" height="50" viewBox="0 0 50 50" fill="none" xmlns="http://www.w3.org/2000/svg">
<path d="M25 50C38.2138 50 48.9258 38.8071 48.9258 25C48.9258 11.1929 38.2138 0 25 0C11.7862 0 1.07422 11.1929 1.07422 25C1.07422 38.8071 11.7862 50 25 50Z" fill="#E88102"/>
<path d="M25 47.3633C38.079 47.3633 48.6816 36.7607 48.6816 23.6816C48.6816 10.6026 38.079 0 25 0C11.921 0 1.31836 10.6026 1.31836 23.6816C1.31836 36.7607 11.921 47.3633 25 47.3633Z" fill="#FDD835"/>
<path d="M34.4531 1.96289L3.28125 33.125C2.23633 30.7324 1.58203 28.1348 1.38672 25.4102L26.7285 0.0585938C29.4531 0.263672 32.0508 0.917969 34.4531 1.96289ZM45.6348 12.0605L13.3789 44.3164C11.3672 43.1836 9.55078 41.7676 7.95899 40.1172L41.4453 6.64062C43.0859 8.22266 44.502 10.0488 45.6348 12.0605ZM40.4785 5.75195L7.08008 39.1504C6.5625 38.5449 6.06445 37.9102 5.60547 37.2559L38.584 4.27734C39.2383 4.73633 39.873 5.23438 40.4785 5.75195ZM47.9395 17.7734L19.0918 46.6211C18.2227 46.3965 17.373 46.123 16.543 45.8105L47.1289 15.2246C47.4414 16.0547 47.7148 16.9043 47.9395 17.7734Z" fill="white" fill-opacity="0.313726"/>
<path d="M48.6816 23.6816C48.6816 23.8477 48.6816 24.0039 48.6719 24.1699C48.418 11.3184 37.9199 0.976562 25 0.976562C12.0801 0.976562 1.58203 11.3184 1.32813 24.1699C1.32813 24.0039 1.31836 23.8477 1.31836 23.6816C1.31836 10.6055 11.9238 0 25 0C38.0762 0 48.6816 10.6055 48.6816 23.6816Z" fill="white" fill-opacity="0.313726"/>
<path d="M44.2383 24.707C44.2383 34.9512 35.9277 43.2617 25.6836 43.2617C19.9316 43.2617 14.7852 40.6348 11.377 36.5234C14.7656 40.1855 19.6094 42.4805 25 42.4805C35.2441 42.4805 43.5547 34.1699 43.5547 23.9258C43.5547 19.4336 41.9629 15.3223 39.3066 12.1094C42.3633 15.4199 44.2383 19.8438 44.2383 24.707Z" fill="white" fill-opacity="0.313726"/>
<path d="M25 42.4805C35.2475 42.4805 43.5547 34.1733 43.5547 23.9258C43.5547 13.6783 35.2475 5.37109 25 5.37109C14.7525 5.37109 6.44531 13.6783 6.44531 23.9258C6.44531 34.1733 14.7525 42.4805 25 42.4805Z" fill="#F39E09"/>
<path d="M39.0625 11.8164C35.8105 9.01367 31.582 7.32422 26.9531 7.32422C16.709 7.32422 8.39844 15.6348 8.39844 25.8789C8.39844 30.5078 10.0879 34.7363 12.8906 37.9883C8.94531 34.5801 6.44531 29.5508 6.44531 23.9258C6.44531 13.6816 14.7559 5.37109 25 5.37109C30.6152 5.37109 35.6543 7.87109 39.0625 11.8164Z" fill="#E88102"/>
<path d="M23.8379 19.1992C23.5059 19.5801 23.3301 20.1074 23.3301 20.7812C23.3301 21.4551 23.5254 22.0117 23.916 22.4121C24.3066 22.8125 24.9316 23.1934 25.791 23.5645C26.6504 23.9258 27.4609 24.3066 28.2227 24.6973C28.9844 25.0879 29.6387 25.5371 30.1953 26.0352C30.752 26.5332 31.1816 27.1191 31.4941 27.7832C31.6113 28.0371 31.9629 28.5156 31.9629 28.5156V30.1855C31.9629 31.7676 31.4648 33.0566 30.459 34.0527C29.4531 35.0488 28.0957 35.6348 26.3672 35.8008V38.5742H24.1602V35.7715C22.1484 35.5566 20.6055 34.873 19.5215 33.7012C18.4473 32.5293 17.9102 30.9961 17.9102 29.082V27.6172L22.5781 29.082C22.5781 30.1367 22.8125 30.9375 23.2812 31.4844C23.75 32.0312 24.4141 32.3047 25.2734 32.3047C25.8984 32.3047 26.3965 32.1191 26.7578 31.7383C27.1191 31.3574 27.2949 30.8496 27.2949 30.1953C27.2949 29.4629 27.1191 28.8965 26.7578 28.4766C26.3965 28.0566 25.7617 27.666 24.8633 27.2949C23.9551 26.9238 23.125 26.5527 22.3535 26.1719C21.582 25.791 20.9277 25.3516 20.3711 24.8535C19.8145 24.3555 19.3945 23.7793 19.0918 23.125C18.7988 22.4707 18.6523 21.6797 18.6523 20.7422V19.1895C18.6523 19.1895 19.5215 17.5586 20.2344 16.8848C21.2891 15.8691 22.6953 15.2832 24.4434 15.1172V12.207H26.6504V15.1855C28.3398 15.4395 29.668 16.1328 30.6348 17.2754C31.2988 18.0566 32.0801 20.1562 32.0801 20.1562V21.6211H27.3926C27.3926 20.6641 27.207 19.9219 26.8359 19.4043C26.4648 18.8867 25.9375 18.6328 25.2539 18.6328C24.6484 18.623 24.1797 18.8184 23.8379 19.1992Z" fill="#DB6704"/>
<path d="M27.2949 28.7402C27.2949 28.0078 27.1191 27.4414 26.7578 27.0215C26.3965 26.6016 25.7617 26.2109 24.8633 25.8398C23.9551 25.4688 23.125 25.0977 22.3535 24.7168C21.582 24.3359 20.9277 23.8965 20.3711 23.3984C19.8145 22.9004 19.3945 22.3242 19.0918 21.6699C18.7988 21.0156 18.6523 20.2148 18.6523 19.2871C18.6523 17.7246 19.1797 16.4355 20.2344 15.4297C21.2891 14.4238 22.6953 13.8281 24.4434 13.6621V10.7422H26.6504V13.7207C28.3398 13.9746 29.668 14.668 30.6348 15.8105C31.6016 16.9531 32.0801 18.3984 32.0801 20.1562H27.3926C27.3926 19.1992 27.207 18.457 26.8359 17.9395C26.4648 17.4219 25.9375 17.168 25.2539 17.168C24.6484 17.168 24.1699 17.3633 23.8379 17.7441C23.5059 18.125 23.3301 18.6523 23.3301 19.3262C23.3301 20 23.5254 20.5566 23.916 20.957C24.3066 21.3574 24.9316 21.7383 25.7812 22.1094C26.6406 22.4707 27.4512 22.8516 28.2129 23.2422C28.9746 23.6328 29.6289 24.082 30.1855 24.5801C30.7422 25.0781 31.1719 25.6641 31.4844 26.3281C31.7969 26.9922 31.9531 27.793 31.9531 28.7207C31.9531 30.3027 31.4551 31.5918 30.4492 32.5879C29.4434 33.584 28.0859 34.1699 26.3574 34.3359V37.1094H24.1504V34.3066C22.1387 34.0918 20.5957 33.4082 19.5117 32.2363C18.4375 31.0645 17.9004 29.5312 17.9004 27.6172H22.5684C22.5684 28.6719 22.8027 29.4727 23.2715 30.0195C23.7402 30.5664 24.4043 30.8398 25.2637 30.8398C25.8887 30.8398 26.3867 30.6543 26.748 30.2734C27.1094 29.8926 27.2949 29.3945 27.2949 28.7402Z" fill="#FDD835"/>
<path d="M20.2344 15.4297C20.8008 14.8828 21.4746 14.4629 22.2461 14.1602L18.9355 17.4805C19.1895 16.6992 19.6191 16.0254 20.2344 15.4297ZM25.6641 10.7422L24.4434 11.9629V10.7422H25.6641ZM31.4551 26.2402L23.4766 34.2188C21.7969 33.9355 20.4785 33.2715 19.5312 32.2461C18.916 31.5723 18.4766 30.7812 18.2129 29.873L20.459 27.627H22.5879C22.5879 28.6816 22.8223 29.4824 23.291 30.0293C23.7598 30.5762 24.4238 30.8496 25.2832 30.8496C25.9082 30.8496 26.4063 30.6641 26.7676 30.2832C27.1289 29.9023 27.3047 29.3945 27.3047 28.7402C27.3047 28.0078 27.1289 27.4414 26.7676 27.0215C26.4063 26.6016 25.7715 26.2109 24.873 25.8398C24.2285 25.5762 23.623 25.3125 23.0469 25.0391L25.9375 22.1484C26.748 22.5 27.5098 22.8516 28.2324 23.2227C28.9941 23.6133 29.6484 24.0625 30.2051 24.5605C30.7324 25.0488 31.1523 25.6055 31.4551 26.2402ZM32.0801 20.1465H27.9297L31.2988 16.7773C31.8164 17.7344 32.0801 18.8574 32.0801 20.1465ZM17.9199 27.6172H18.6133L17.9492 28.2812C17.9297 28.0664 17.9199 27.8418 17.9199 27.6172ZM23.916 20.9473C24.1113 21.1523 24.3652 21.3477 24.6875 21.543L21.7969 24.4336C21.2598 24.1309 20.7813 23.7891 20.3711 23.4082C20.2051 23.2617 20.0586 23.1055 19.9219 22.9492L23.3496 19.5215C23.3789 20.1074 23.5742 20.5859 23.916 20.9473ZM30.5371 15.6934L27.2754 18.9551C27.1875 18.5547 27.041 18.2129 26.8457 17.9395C26.5527 17.5293 26.1621 17.2852 25.6738 17.1973L28.5937 14.2773C29.3457 14.6191 29.9902 15.0879 30.5371 15.6934ZM25.2344 37.1094L26.3672 35.9766V37.1094H25.2344ZM31.6602 30.6836C31.416 31.4063 31.0156 32.0312 30.4688 32.5781C29.9219 33.125 29.2676 33.5449 28.5059 33.8379L31.6602 30.6836Z" fill="white" fill-opacity="0.313726"/>
<path d="M40.4785 13.6816C28.4668 17.9004 18.8184 27.168 14.0918 38.9355C13.6816 38.6328 13.2812 38.3203 12.8906 37.9785C10.0879 34.7266 8.39844 30.498 8.39844 25.8789C8.39844 15.6348 16.709 7.32422 26.9531 7.32422C31.582 7.32422 35.8105 9.01367 39.0527 11.8164C39.5703 12.4121 40.0391 13.0371 40.4785 13.6816Z" fill="white" fill-opacity="0.145098"/>
</svg>
