<svg width="37" height="37" viewBox="0 0 37 37" fill="none" xmlns="http://www.w3.org/2000/svg">
<g clip-path="url(#clip0_286_4100)">
<path d="M20.7686 11.2056C19.0239 11.2056 17.6045 12.625 17.6045 14.3697C17.6045 16.1144 19.0239 17.5338 20.7686 17.5338C22.5132 17.5338 23.9326 16.1144 23.9326 14.3697C23.9326 12.625 22.5132 11.2056 20.7686 11.2056ZM20.7686 15.4244C20.187 15.4244 19.7139 14.9513 19.7139 14.3697C19.7139 13.7881 20.187 13.315 20.7686 13.315C21.3501 13.315 21.8232 13.7881 21.8232 14.3697C21.8232 14.9513 21.3501 15.4244 20.7686 15.4244ZM29.2061 19.6431C27.4614 19.6431 26.042 21.0625 26.042 22.8072C26.042 24.5519 27.4614 25.9713 29.2061 25.9713C30.9507 25.9713 32.3701 24.5519 32.3701 22.8072C32.3701 21.0625 30.9507 19.6431 29.2061 19.6431ZM29.2061 23.8619C28.6245 23.8619 28.1514 23.3888 28.1514 22.8072C28.1514 22.2256 28.6245 21.7525 29.2061 21.7525C29.7876 21.7525 30.2607 22.2256 30.2607 22.8072C30.2607 23.3888 29.7876 23.8619 29.2061 23.8619ZM29.7911 11.3828C29.3065 11.0597 28.6516 11.1907 28.3285 11.6753L19.891 24.3316C19.5679 24.8162 19.6989 25.471 20.1836 25.7941C20.6681 26.1172 21.323 25.9863 21.6461 25.5016L30.0836 12.8453C30.4067 12.3607 30.2757 11.7058 29.7911 11.3828Z" fill="#FEB5A3"/>
<path d="M35.5342 6.98682L1.64355 6.98682C1.06109 6.98682 0.588867 7.45904 0.588867 8.0415L0.588867 14.3696C0.588867 14.9521 1.06109 15.4243 1.64355 15.4243C3.38822 15.4243 4.80762 16.8437 4.80762 18.5884C4.80762 20.333 3.38822 21.7524 1.64355 21.7524C1.06109 21.7524 0.588867 22.2247 0.588867 22.8071L0.588867 29.1353C0.588867 29.7177 1.06109 30.1899 1.64355 30.1899L35.5342 30.1899C36.1166 30.1899 36.5889 29.7177 36.5889 29.1353V8.0415C36.5889 7.45904 36.1166 6.98682 35.5342 6.98682ZM34.4795 28.0806L11.1357 28.0806V27.0259C11.1357 26.4434 10.6635 25.9712 10.0811 25.9712C9.49859 25.9712 9.02637 26.4434 9.02637 27.0259V28.0806H2.69824L2.69824 23.7559C5.1023 23.2659 6.91699 21.135 6.91699 18.5884C6.91699 16.0417 5.1023 13.9109 2.69824 13.4209L2.69824 9.09619H9.11426V10.1509C9.11426 10.7333 9.58648 11.2056 10.1689 11.2056C10.7514 11.2056 11.2236 10.7333 11.2236 10.1509V9.09619L34.4795 9.09619V28.0806Z" fill="#FEB5A3"/>
<path d="M10.0811 19.6431C9.49859 19.6431 9.02637 20.1153 9.02637 20.6978V22.8071C9.02637 23.3896 9.49859 23.8618 10.0811 23.8618C10.6635 23.8618 11.1357 23.3896 11.1357 22.8071V20.6978C11.1357 20.1153 10.6635 19.6431 10.0811 19.6431ZM10.0811 13.3149C9.49859 13.3149 9.02637 13.7872 9.02637 14.3696V16.479C9.02637 17.0615 9.49859 17.5337 10.0811 17.5337C10.6635 17.5337 11.1357 17.0615 11.1357 16.479V14.3696C11.1357 13.7872 10.6635 13.3149 10.0811 13.3149Z" fill="#FEB5A3"/>
</g>
<defs>
<clipPath id="clip0_286_4100">
<rect width="36" height="36" fill="white" transform="translate(0.588867 0.588379)"/>
</clipPath>
</defs>
</svg>
