<svg width="18" height="18" viewBox="0 0 18 18" fill="none" xmlns="http://www.w3.org/2000/svg">
<g clip-path="url(#clip0_397_796)">
<path d="M11.1159 3.02331L1.21212 12.9279C1.16225 12.9779 1.12671 13.0403 1.1092 13.1087L0.0114199 17.5149C-0.00472561 17.5803 -0.00373616 17.6487 0.0142927 17.7136C0.0323216 17.7785 0.0667806 17.8377 0.114341 17.8853C0.187394 17.9581 0.286304 17.9991 0.389444 17.9992C0.421261 17.9991 0.452956 17.9952 0.483812 17.9875L4.88995 16.8895C4.95846 16.8723 5.02099 16.8368 5.07086 16.7868L14.9756 6.88289L11.1159 3.02331ZM17.4292 1.67283L16.3267 0.570409C15.5899 -0.166413 14.3057 -0.165682 13.5697 0.570409L12.2192 1.92089L16.0787 5.78032L17.4292 4.42988C17.7972 4.06198 17.9999 3.57227 17.9999 3.05145C17.9999 2.53063 17.7972 2.04091 17.4292 1.67283Z" fill="#2777FC"/>
</g>
<defs>
<clipPath id="clip0_397_796">
<rect width="18" height="18" fill="white"/>
</clipPath>
</defs>
</svg>
