<svg width="22" height="22" viewBox="0 0 22 22" fill="none" xmlns="http://www.w3.org/2000/svg">
<g clip-path="url(#clip0_375_6009)">
<path fill-rule="evenodd" clip-rule="evenodd" d="M10.964 0.333496C12.9472 0.356126 14.7388 0.843525 16.3388 1.79569C17.9197 2.72885 19.2348 4.05199 20.1583 5.63859C21.1047 7.24823 21.5892 9.05067 21.6117 11.0459C21.5555 13.7758 20.6945 16.1075 19.0286 18.0408C17.3627 19.9742 15.2291 21.1702 13.0204 21.6287V13.9748H15.1085L15.5807 10.967H12.4188V8.99698C12.4013 8.58858 12.5304 8.18737 12.7829 7.86591C13.0358 7.54357 13.4811 7.37415 14.1188 7.35765H16.0282V4.72287C16.0008 4.71406 15.7408 4.6792 15.2483 4.6183C14.6897 4.55295 14.128 4.51804 13.5656 4.51373C12.2928 4.51961 11.2862 4.87864 10.5457 5.59085C9.80529 6.30285 9.42704 7.33297 9.41101 8.6812V10.967H7.00476V13.9748H9.41101V21.6287C6.69904 21.1702 4.56542 19.9742 2.89952 18.0408C1.23363 16.1075 0.372618 13.7758 0.316406 11.0459C0.338896 9.05058 0.823349 7.24814 1.76976 5.63859C2.69328 4.05199 4.00839 2.72885 5.58933 1.79569C7.1893 0.843709 8.98087 0.35631 10.964 0.333496Z" fill="#BED6FE"/>
</g>
<defs>
<clipPath id="clip0_375_6009">
<rect width="22" height="22" fill="white"/>
</clipPath>
</defs>
</svg>
