<svg width="22" height="22" viewBox="0 0 22 22" fill="none" xmlns="http://www.w3.org/2000/svg">
<path d="M5.84375 9.02344C4.77752 9.02344 3.91016 9.8908 3.91016 10.957V16.1992C3.91016 17.2654 4.77752 18.1328 5.84375 18.1328C6.90998 18.1328 7.77734 17.2654 7.77734 16.1992V10.957C7.77734 9.8908 6.90998 9.02344 5.84375 9.02344Z" fill="#BED6FE"/>
<path d="M2.62109 10.9569C2.62109 10.771 2.64563 10.5914 2.67601 10.4141C1.89922 10.6651 1.33203 11.3867 1.33203 12.246V14.9101C1.33203 15.7694 1.89922 16.4909 2.67601 16.742C2.64563 16.5647 2.62109 16.385 2.62109 16.1991V10.9569Z" fill="#BED6FE"/>
<path d="M16.1562 9.02344C15.09 9.02344 14.2227 9.8908 14.2227 10.957V16.1992C14.2227 17.2654 15.09 18.1328 16.1562 18.1328C16.35 18.1328 16.5336 18.0955 16.7102 18.0422C16.4703 18.8375 15.7397 19.4219 14.8672 19.4219H12.8149C12.5479 18.6733 11.8392 18.1328 11 18.1328C9.93377 18.1328 9.06641 19.0002 9.06641 20.0664C9.06641 21.1326 9.93377 22 11 22C11.8392 22 12.5479 21.4595 12.8149 20.7109H14.8672C16.6441 20.7109 18.0898 19.2652 18.0898 17.4883V16.1992V10.957C18.0898 9.8908 17.2225 9.02344 16.1562 9.02344Z" fill="#BED6FE"/>
<path d="M19.3242 10.4141C19.3546 10.5914 19.3791 10.771 19.3791 10.9569V16.1991C19.3791 16.385 19.3546 16.5647 19.3242 16.742C20.101 16.4909 20.6682 15.7694 20.6682 14.9101V12.246C20.6682 11.3867 20.101 10.6651 19.3242 10.4141Z" fill="#BED6FE"/>
<path d="M11 0C5.66878 0 1.33203 4.33675 1.33203 9.66797V9.68443C1.71604 9.3937 2.16034 9.18096 2.65061 9.0857C2.95187 4.73735 6.57654 1.28906 11 1.28906C15.4235 1.28906 19.0481 4.73735 19.3494 9.08566C19.8396 9.18092 20.2839 9.3937 20.668 9.68438V9.66797C20.668 4.33675 16.3312 0 11 0Z" fill="#BED6FE"/>
</svg>
