<svg width="36" height="36" viewBox="0 0 36 36" fill="none" xmlns="http://www.w3.org/2000/svg">
<g clip-path="url(#clip0_286_4151)">
<path d="M26.3739 34.2349H23.0234C22.6904 34.2349 22.371 34.1017 22.1354 33.8644C21.8999 33.6272 21.7676 33.3054 21.7676 32.9699C21.7676 32.6344 21.8999 32.3126 22.1354 32.0753C22.371 31.8381 22.6904 31.7048 23.0234 31.7048H26.3739C26.9283 31.7044 27.4598 31.4822 27.8517 31.0872C28.2435 30.6921 28.4636 30.1565 28.4636 29.5981C28.4634 29.4319 28.4957 29.2674 28.5586 29.1138C28.6215 28.9603 28.7138 28.8207 28.8303 28.703C28.9467 28.5854 29.085 28.492 29.2373 28.4283C29.3896 28.3645 29.5528 28.3315 29.7178 28.3313H29.7194C30.0522 28.3313 30.3714 28.4644 30.6068 28.7013C30.8423 28.9381 30.9748 29.2595 30.9753 29.5947C30.9761 30.2039 30.8578 30.8073 30.6269 31.3703C30.396 31.9334 30.0572 32.445 29.6298 32.876C29.2024 33.307 28.6949 33.6489 28.1362 33.8821C27.5775 34.1153 26.9787 34.2352 26.3739 34.2349ZM29.7211 19.8976C29.3881 19.8976 29.0686 19.7643 28.8331 19.5271C28.5976 19.2898 28.4653 18.968 28.4653 18.6325V13.5723C28.4653 10.7763 27.3627 8.09489 25.4001 6.11785C23.4375 4.14081 20.7757 3.03012 18.0002 3.03012C15.2247 3.03012 12.5628 4.14081 10.6002 6.11785C8.63764 8.09489 7.53507 10.7763 7.53507 13.5723V16.9458C7.53507 17.2813 7.40276 17.6031 7.16725 17.8403C6.93174 18.0776 6.61231 18.2108 6.27925 18.2108C5.94619 18.2108 5.62677 18.0776 5.39126 17.8403C5.15575 17.6031 5.02344 17.2813 5.02344 16.9458V13.5723C5.02344 10.1053 6.39063 6.78031 8.82424 4.32878C11.2578 1.87726 14.5585 0.5 18.0002 0.5C21.4418 0.5 24.7425 1.87726 27.1761 4.32878C29.6097 6.78031 30.9769 10.1053 30.9769 13.5723V18.6325C30.9769 18.968 30.8446 19.2898 30.6091 19.5271C30.3736 19.7643 30.0542 19.8976 29.7211 19.8976Z" fill="#BDBDBD"/>
<path d="M12.9768 15.6812C14.1328 15.6812 15.0698 14.7372 15.0698 13.5728C15.0698 12.4083 14.1328 11.4644 12.9768 11.4644C11.8209 11.4644 10.8838 12.4083 10.8838 13.5728C10.8838 14.7372 11.8209 15.6812 12.9768 15.6812Z" fill="#BDBDBD"/>
<path d="M23.0227 15.6812C24.1787 15.6812 25.1157 14.7372 25.1157 13.5728C25.1157 12.4083 24.1787 11.4644 23.0227 11.4644C21.8668 11.4644 20.9297 12.4083 20.9297 13.5728C20.9297 14.7372 21.8668 15.6812 23.0227 15.6812Z" fill="#BDBDBD"/>
<path d="M4.60465 24.9582C3.38383 24.9569 2.21339 24.4677 1.35014 23.5981C0.486888 22.7285 0.00132963 21.5495 0 20.3197V16.9462C0.00132963 15.7164 0.486888 14.5373 1.35014 13.6677C2.21339 12.7981 3.38383 12.309 4.60465 12.3076H6.27907C6.61213 12.3076 6.93155 12.4409 7.16706 12.6781C7.40258 12.9154 7.53488 13.2372 7.53488 13.5727V22.0064C7.534 22.789 7.22499 23.5393 6.67566 24.0927C6.12633 24.646 5.38153 24.9573 4.60465 24.9582ZM4.60465 14.8377C4.04968 14.8382 3.51757 15.0605 3.12515 15.4558C2.73273 15.8511 2.51207 16.3871 2.51163 16.9462V20.3197C2.51207 20.8787 2.73273 21.4147 3.12515 21.8101C3.51757 22.2054 4.04968 22.4277 4.60465 22.4281C4.71567 22.4281 4.82215 22.3837 4.90065 22.3046C4.97915 22.2255 5.02326 22.1182 5.02326 22.0064V14.8377H4.60465ZM31.3953 24.9582C30.6185 24.9573 29.8737 24.646 29.3243 24.0927C28.775 23.5393 28.466 22.789 28.4651 22.0064V13.5727C28.4651 13.2372 28.5974 12.9154 28.8329 12.6781C29.0684 12.4409 29.3879 12.3076 29.7209 12.3076H31.3953C32.6162 12.309 33.7866 12.7981 34.6499 13.6677C35.5131 14.5373 35.9987 15.7164 36 16.9462V20.3197C35.9987 21.5495 35.5131 22.7285 34.6499 23.5981C33.7866 24.4677 32.6162 24.9569 31.3953 24.9582ZM30.9767 14.8377V22.0064C30.9767 22.1182 31.0208 22.2255 31.0993 22.3046C31.1779 22.3837 31.2843 22.4281 31.3953 22.4281C31.9503 22.4277 32.4824 22.2054 32.8748 21.8101C33.2673 21.4147 33.4879 20.8787 33.4884 20.3197V16.9462C33.4879 16.3871 33.2673 15.8511 32.8748 15.4558C32.4824 15.0605 31.9503 14.8382 31.3953 14.8377H30.9767Z" fill="#BDBDBD"/>
<path d="M18.0001 26.0824C17.0357 26.0835 16.0926 25.7965 15.2903 25.2575C14.4879 24.7186 13.8623 23.9519 13.4925 23.0547C13.3698 22.7462 13.3724 22.4014 13.5 22.0948C13.6275 21.7883 13.8697 21.5447 14.1742 21.4166C14.4787 21.2885 14.8209 21.2862 15.127 21.4103C15.4331 21.5344 15.6784 21.7749 15.8099 22.0797C15.9895 22.516 16.2934 22.8888 16.6832 23.151C17.073 23.4133 17.5313 23.5533 18.0001 23.5533C18.4689 23.5533 18.9271 23.4133 19.3169 23.151C19.7068 22.8888 20.0107 22.516 20.1902 22.0797C20.3217 21.7749 20.567 21.5344 20.8731 21.4103C21.1792 21.2862 21.5215 21.2885 21.8259 21.4166C22.1304 21.5447 22.3726 21.7883 22.5002 22.0948C22.6277 22.4014 22.6304 22.7462 22.5076 23.0547C22.1379 23.9519 21.5123 24.7186 20.7099 25.2575C19.9075 25.7965 18.9645 26.0835 18.0001 26.0824Z" fill="#BDBDBD"/>
<path d="M22.1864 35.5002C23.5736 35.5002 24.6981 34.3674 24.6981 32.9701C24.6981 31.5727 23.5736 30.4399 22.1864 30.4399C20.7993 30.4399 19.6748 31.5727 19.6748 32.9701C19.6748 34.3674 20.7993 35.5002 22.1864 35.5002Z" fill="#BDBDBD"/>
</g>
<defs>
<clipPath id="clip0_286_4151">
<rect width="36" height="36" fill="white"/>
</clipPath>
</defs>
</svg>
