<svg width="22" height="22" viewBox="0 0 22 22" fill="none" xmlns="http://www.w3.org/2000/svg">
<path d="M11.001 7.6377C9.14567 7.6377 7.63867 9.1447 7.63867 11C7.63867 12.8554 9.14567 14.366 11.001 14.366C12.8563 14.366 14.367 12.8554 14.367 11C14.367 9.1447 12.8563 7.6377 11.001 7.6377Z" fill="#BED6FE"/>
<path d="M16.0753 1.8335H5.92598C3.67098 1.8335 1.83398 3.6705 1.83398 5.9255V16.0748C1.83398 18.3335 3.67098 20.1668 5.92598 20.1668H16.0753C18.334 20.1668 20.1673 18.3335 20.1673 16.0748V5.9255C20.1673 3.6705 18.334 1.8335 16.0753 1.8335ZM11.0007 16.9402C7.72632 16.9402 5.06065 14.2745 5.06065 11.0002C5.06065 7.72583 7.72632 5.06383 11.0007 5.06383C14.275 5.06383 16.9407 7.72583 16.9407 11.0002C16.9407 14.2745 14.275 16.9402 11.0007 16.9402ZM17.0653 6.14183C16.3723 6.14183 15.8077 5.58083 15.8077 4.88783C15.8077 4.19483 16.3723 3.63016 17.0653 3.63016C17.7583 3.63016 18.323 4.19483 18.323 4.88783C18.323 5.58083 17.7583 6.14183 17.0653 6.14183Z" fill="#BED6FE"/>
</svg>
