<svg width="36" height="36" viewBox="0 0 36 36" fill="none" xmlns="http://www.w3.org/2000/svg">
<path d="M22.6351 16.1437C22.5424 15.8536 22.3773 15.5922 22.1556 15.3844C21.9339 15.1766 21.663 15.0294 21.3686 14.9567L18.9867 14.3594L17.6849 12.2676C17.0277 11.2096 15.3118 11.2096 14.6546 12.2676L13.3541 14.3606L10.9721 14.9567C10.3691 15.1073 9.89571 15.5514 9.70435 16.1449C9.51299 16.7384 9.63763 17.3775 10.0355 17.8546L11.6129 19.7452L11.4417 22.2065C11.3989 22.8265 11.6721 23.4175 12.1732 23.7832C12.6742 24.1502 13.3176 24.2312 13.8942 23.9958L16.1704 23.072L18.4478 23.9971C18.7291 24.111 19.0346 24.1512 19.3356 24.114C19.6366 24.0768 19.9233 23.9635 20.1688 23.7845C20.6686 23.4175 20.9418 22.8265 20.8978 22.2065L20.7253 19.7464L22.3065 17.8546C22.7031 17.375 22.8265 16.7359 22.6351 16.1437ZM18.6958 18.6328C18.5068 18.8591 18.4129 19.1505 18.434 19.4452L18.5851 21.594L16.5959 20.7866C16.3235 20.6753 16.0185 20.6753 15.7461 20.7866L13.7569 21.5953L13.9068 19.444C13.9265 19.1498 13.8327 18.8593 13.6449 18.6328L12.2651 16.9801L14.3474 16.4588C14.6323 16.3879 14.8785 16.2081 15.0335 15.9576L16.1704 14.1291L17.3072 15.9576C17.4633 16.2082 17.7088 16.3879 17.9933 16.4588L20.0744 16.9814L18.6958 18.6328Z" fill="#FFC84A"/>
<path d="M30.7025 16.7212C30.402 16.7212 30.1138 16.8412 29.9013 17.0548C29.6888 17.2684 29.5694 17.5581 29.5694 17.8601V25.034C29.5687 25.8225 29.2568 26.5785 28.7021 27.1361C28.1474 27.6937 27.3953 28.0072 26.6109 28.0079H20.4294C20.2792 28.0082 20.1307 28.0383 19.9922 28.0965C19.8537 28.1547 19.728 28.2398 19.6224 28.347L16.3969 31.6296C16.3665 31.6602 16.3304 31.6845 16.2906 31.7009C16.2508 31.7173 16.2081 31.7256 16.1651 31.7252C16.1221 31.7249 16.0795 31.7159 16.04 31.6988C16.0005 31.6818 15.9647 31.6569 15.9349 31.6258L12.7119 28.347C12.6066 28.2397 12.4812 28.1545 12.3429 28.0962C12.2046 28.038 12.0561 28.008 11.9062 28.0079H5.72469C4.94023 28.0072 4.1881 27.6937 3.63341 27.1361C3.07872 26.5785 2.7668 25.8225 2.76613 25.034V10.5192C2.7668 9.73073 3.07872 8.97471 3.63341 8.41716C4.1881 7.8596 4.94023 7.54607 5.72469 7.5454H17.1686C17.4692 7.5454 17.7574 7.42541 17.9698 7.21182C18.1823 6.99824 18.3017 6.70855 18.3017 6.40649C18.3017 6.10443 18.1823 5.81474 17.9698 5.60116C17.7574 5.38757 17.4692 5.26758 17.1686 5.26758H5.72469C4.33953 5.26925 3.01157 5.82309 2.03212 6.8076C1.05266 7.79211 0.501666 9.12692 0.5 10.5192V25.034C0.501666 26.4263 1.05266 27.7611 2.03212 28.7457C3.01157 29.7302 4.33953 30.284 5.72469 30.2857H11.4328L14.3184 33.2203C14.8068 33.7227 15.4628 33.9998 16.1665 33.9998C16.8703 33.9998 17.5262 33.7227 18.0109 33.2253L20.9002 30.2857H26.6083C27.9935 30.284 29.3214 29.7302 30.3009 28.7457C31.2804 27.7611 31.8314 26.4263 31.833 25.034V17.8601C31.8335 17.7107 31.8046 17.5625 31.748 17.4243C31.6914 17.2861 31.6082 17.1604 31.5032 17.0546C31.3981 16.9488 31.2733 16.8648 31.1359 16.8076C30.9985 16.7504 30.8512 16.7211 30.7025 16.7212Z" fill="#FFC84A"/>
<path d="M35.4581 6.28015C35.2076 4.28453 34.043 2.76345 32.3434 2.21171C30.9724 1.76753 29.4944 2.03454 28.2808 2.89758C27.0659 2.03454 25.5853 1.76753 24.2181 2.21171C22.5185 2.76345 21.3552 4.28453 21.1034 6.28015C20.5772 10.4587 25.0138 13.5009 27.9358 14.436C28.16 14.5067 28.4003 14.5067 28.6245 14.436C31.5465 13.4983 35.9818 10.4549 35.4581 6.28015ZM28.282 12.1468C25.9945 11.2952 23.0384 9.06796 23.3532 6.56615C23.4929 5.45254 24.0632 4.65531 24.9168 4.37817C25.122 4.3111 25.336 4.2782 25.5513 4.2782C26.2224 4.2782 26.9123 4.59583 27.4536 5.1792C27.8854 5.6411 28.6811 5.63857 29.1104 5.1792C29.8242 4.40981 30.7936 4.1023 31.6472 4.37817C32.5008 4.65531 33.0711 5.45254 33.2108 6.56488C33.5231 9.06542 30.5683 11.2939 28.282 12.1468Z" fill="#FFC84A"/>
</svg>
