<svg width="26" height="26" viewBox="0 0 26 26" fill="none" xmlns="http://www.w3.org/2000/svg">
<path d="M23.9035 4.72825V11.9922C23.9035 18.6074 19.4112 24.3757 12.9943 26C6.58807 24.381 2.0957 18.6074 2.0957 11.9922V4.72825C7.14024 4.16 9.99756 2.24082 12.9996 0C16.0017 2.24082 18.859 4.16 23.9035 4.72825Z" fill="#B0B0B0"/>
<path d="M13 23.1321C8.16991 21.5989 4.85156 17.1173 4.85156 11.9923V7.0711C8.24496 6.33131 10.7377 4.9643 13 3.4043C15.3105 5.00718 17.7551 6.34739 21.1485 7.07646V11.9977C21.1485 17.1173 17.8301 21.5989 13 23.1321Z" fill="#D1D1D1"/>
<path d="M11.1926 17.4443L8.50684 14.7585L9.86849 13.3915L11.1926 14.7103L16.1299 9.77832L17.4916 11.14L11.1926 17.4443Z" fill="white"/>
</svg>
