<svg width="22" height="22" viewBox="0 0 22 22" fill="none" xmlns="http://www.w3.org/2000/svg">
<g clip-path="url(#clip0_375_6020)">
<path d="M22 4.86613C21.1819 5.225 20.3101 5.46287 19.4012 5.57837C20.3363 5.02012 21.0499 4.14287 21.3854 3.0855C20.5136 3.60525 19.5511 3.97238 18.5254 4.17725C17.6976 3.29588 16.5179 2.75 15.2309 2.75C12.7339 2.75 10.7236 4.77675 10.7236 7.26138C10.7236 7.61888 10.7539 7.96262 10.8281 8.28987C7.0785 8.107 3.76063 6.30988 1.53175 3.57225C1.14262 4.24738 0.914375 5.02012 0.914375 5.852C0.914375 7.414 1.71875 8.79862 2.91775 9.60025C2.19313 9.5865 1.48225 9.37612 0.88 9.04475C0.88 9.0585 0.88 9.07638 0.88 9.09425C0.88 11.286 2.44337 13.1065 4.4935 13.5259C4.12637 13.6263 3.72625 13.6744 3.311 13.6744C3.02225 13.6744 2.73075 13.6579 2.45712 13.5974C3.0415 15.3835 4.69975 16.6966 6.6715 16.7393C5.137 17.9396 3.18863 18.6629 1.07938 18.6629C0.7095 18.6629 0.35475 18.6464 0 18.601C1.99787 19.8894 4.36562 20.625 6.919 20.625C15.2185 20.625 19.756 13.75 19.756 7.79075C19.756 7.59137 19.7491 7.39888 19.7395 7.20775C20.6346 6.5725 21.3867 5.77912 22 4.86613Z" fill="#BED6FE"/>
</g>
<defs>
<clipPath id="clip0_375_6020">
<rect width="22" height="22" fill="white"/>
</clipPath>
</defs>
</svg>
