<svg width="22" height="22" viewBox="0 0 22 22" fill="none" xmlns="http://www.w3.org/2000/svg">
<g clip-path="url(#clip0_375_5977)">
<mask id="mask0_375_5977" style="mask-type:luminance" maskUnits="userSpaceOnUse" x="0" y="0" width="22" height="22">
<path d="M0 0H22V22H0V0Z" fill="white"/>
</mask>
<g mask="url(#mask0_375_5977)">
<path d="M18.7644 3.19687C16.689 1.13437 13.9262 0 10.9914 0C8.05664 0 5.29805 1.13437 3.22265 3.19687C1.14296 5.25937 0 8.00079 0 10.9183C0 13.836 1.14296 16.5774 3.22265 18.6399C5.29805 20.6981 8.05664 21.8367 10.9914 21.8367C13.9262 21.8367 16.6848 20.7024 18.7601 18.6399C20.8399 16.5774 21.9828 13.836 21.9828 10.9183C21.9828 8.00079 20.8399 5.25937 18.7644 3.19687ZM19.568 7.41211H15.4902C15.4859 7.39922 15.4859 7.38633 15.4817 7.37344C15.0863 5.23789 14.5063 3.4418 14.0551 2.23438C16.5515 3.10235 18.5625 5.00156 19.568 7.41211ZM9.74957 1.80469C10.1579 1.74883 10.5703 1.72305 10.9914 1.72305C11.3394 1.72305 11.6789 1.74454 12.014 1.77891C12.3836 2.63399 13.2129 4.73945 13.7371 7.41211H8.41758C8.86445 4.43867 9.60786 2.21719 9.74957 1.80469ZM1.71875 10.9183C1.71875 10.3082 1.7789 9.71098 1.89492 9.13086H6.47969C6.3207 10.8539 6.30781 12.5125 6.44101 14.0723H2.28164C1.9164 13.0883 1.71875 12.0269 1.71875 10.9183ZM3.13242 15.791H6.65586C6.8707 17.1016 7.19297 18.3391 7.63125 19.4863C5.76211 18.7644 4.18516 17.4539 3.13242 15.791ZM6.68164 7.41211H2.41914C3.40742 5.04454 5.3625 3.17539 7.79024 2.28594C7.46797 3.38594 6.99531 5.20351 6.68164 7.41211ZM12.2289 20.032C11.825 20.0836 11.4125 20.1137 10.9957 20.1137C10.5661 20.1137 10.1449 20.0836 9.72813 20.0277C9.075 18.6699 8.65391 17.2305 8.40469 15.791H13.8231C13.518 17.2219 13.0109 18.6613 12.2289 20.032ZM14.0894 14.0723H8.17265C8.01367 12.3149 8.06524 10.6176 8.20703 9.13086H14.0164C14.2055 10.6219 14.2786 12.3192 14.0894 14.0723ZM14.4418 19.4562C14.9488 18.309 15.3313 17.0844 15.5762 15.791H18.8546C17.8192 17.4324 16.2723 18.7258 14.4418 19.4562ZM15.8254 14.0723L15.8383 13.9176C15.9758 12.3965 15.9457 10.7894 15.7481 9.13086H20.0921C20.2082 9.71098 20.2683 10.3082 20.2683 10.9183C20.2683 12.0269 20.0707 13.0883 19.7055 14.0723H15.8254Z" fill="#BED6FE"/>
</g>
</g>
<defs>
<clipPath id="clip0_375_5977">
<rect width="22" height="22" fill="white"/>
</clipPath>
</defs>
</svg>
