<svg width="22" height="22" viewBox="0 0 22 22" fill="none" xmlns="http://www.w3.org/2000/svg">
<g clip-path="url(#clip0_375_5996)">
<path d="M18.731 3.19479C16.6643 1.13582 13.915 0.00117493 10.9889 0C8.0694 0 5.3157 1.13364 3.23541 3.19211C1.15143 5.2541 0.00268555 7.99437 0 10.8981V10.9015V10.9035C0.000335693 12.661 0.462082 14.434 1.33858 16.0524L0.0300446 22L6.04617 20.6315C7.56989 21.3994 9.27 21.8043 10.9847 21.805H10.9891C13.9081 21.805 16.6618 20.6712 18.7424 18.6125C20.8283 16.5488 21.9775 13.8121 21.9789 10.9065C21.9797 8.02139 20.8264 5.28264 18.731 3.19479ZM10.9889 20.0879H10.9851C9.4454 20.0872 7.91985 19.7007 6.57355 18.9697L6.28905 18.8153L2.28859 19.7252L3.15753 15.7761L2.99002 15.4872C2.15717 14.0509 1.71707 12.4655 1.71707 10.9016C1.72026 5.83989 5.87917 1.71707 10.9886 1.71707C13.4569 1.71808 15.7762 2.67497 17.5192 4.41118C19.2884 6.17424 20.2625 8.48079 20.2616 10.906C20.2596 15.9689 16.0999 20.0879 10.9889 20.0879Z" fill="#BED6FE"/>
<path d="M7.99858 6.0957H7.51686C7.34918 6.0957 7.07693 6.15848 6.84665 6.40907C6.6162 6.65984 5.9668 7.26593 5.9668 8.4986C5.9668 9.73126 6.86763 10.9223 6.99318 11.0896C7.1189 11.2568 8.73207 13.8672 11.287 14.8714C13.4105 15.7059 13.8427 15.5399 14.3034 15.4981C14.7643 15.4565 15.7907 14.8922 16.0002 14.3073C16.2096 13.7223 16.2096 13.2208 16.1469 13.1161C16.0839 13.0117 15.9162 12.9491 15.665 12.8238C15.4135 12.6985 14.1815 12.0821 13.9511 11.9984C13.7206 11.9149 13.5531 11.8732 13.3855 12.1241C13.2178 12.3745 12.7241 12.9539 12.5774 13.1211C12.4309 13.2884 12.2842 13.3094 12.0328 13.184C11.7813 13.0583 10.98 12.7891 10.0198 11.9358C9.27237 11.2716 8.75372 10.4246 8.60703 10.1739C8.46049 9.92328 8.59142 9.78766 8.71747 9.66261C8.83043 9.55049 8.983 9.39708 9.10872 9.25089C9.23427 9.10452 9.27002 9.00012 9.35394 8.83295C9.4377 8.66577 9.39574 8.51941 9.33296 8.3942C9.27002 8.26881 8.78763 7.02994 8.56406 6.53445H8.56422C8.3759 6.11719 8.17767 6.10309 7.99858 6.0957Z" fill="#BED6FE"/>
</g>
<defs>
<clipPath id="clip0_375_5996">
<rect width="22" height="22" fill="white"/>
</clipPath>
</defs>
</svg>
