<svg width="50" height="50" viewBox="0 0 50 50" fill="none" xmlns="http://www.w3.org/2000/svg">
<g clip-path="url(#clip0_1952_707)">
<path d="M24.0657 36.7026C23.2663 36.7026 22.6113 37.353 22.6113 38.157C22.6113 38.961 23.2617 39.6114 24.0657 39.6114C24.8652 39.6114 25.5201 38.961 25.5201 38.157C25.5156 37.353 24.8652 36.7026 24.0657 36.7026Z" fill="#111111"/>
<path d="M50.0045 25.0045C50.0045 14.2999 43.2385 5.14454 33.7624 1.58988H32.2042C28.3198 1.58988 25.1626 4.74706 25.1626 8.63144V34.7922C26.5808 35.2529 27.6107 36.5899 27.6107 38.1617C27.6107 40.1174 26.0208 41.7073 24.0696 41.7073C22.1183 41.7073 20.5285 40.1174 20.5285 38.1617C20.5285 36.5538 21.6034 35.1942 23.0759 34.7651V8.62692C23.0759 4.88708 25.3388 1.66667 28.5727 0.257453C27.3984 0.0903342 26.2105 0 25 0C11.215 0 0 11.215 0 25.0045C0 34.1915 4.98645 42.2313 12.3893 46.5763C13.2069 45.4246 13.6902 44.0244 13.6902 42.5113V16.346C12.2719 15.8853 11.2421 14.5483 11.2421 12.9765C11.2421 11.0208 12.832 9.43089 14.7832 9.43089C16.7344 9.43089 18.3243 11.0208 18.3243 12.9765C18.3243 14.5845 17.2493 15.944 15.7769 16.3731V42.5023C15.7769 44.3722 15.2078 46.1111 14.2412 47.561C17.5023 49.1238 21.1472 49.9955 24.9955 49.9955C27.9088 49.9955 30.7001 49.4896 33.3017 48.5727C33.4643 47.981 33.5592 47.3622 33.5592 46.7209V20.5646C32.1409 20.1039 31.1111 18.7669 31.1111 17.1951C31.1111 15.2394 32.701 13.6495 34.6522 13.6495C36.6034 13.6495 38.1933 15.2394 38.1933 17.1951C38.1933 18.8031 37.1183 20.1626 35.6459 20.5917V46.7209C35.6459 47.028 35.6278 47.3306 35.6007 47.6332C44.1057 43.636 50.0045 34.9955 50.0045 25.0045Z" fill="#111111"/>
<path d="M16.2369 12.9764C16.2369 12.1724 15.5865 11.522 14.7825 11.522C13.983 11.522 13.3281 12.1724 13.3281 12.9764C13.3281 13.7803 13.9785 14.4307 14.7825 14.4307C15.5865 14.4307 16.2369 13.7803 16.2369 12.9764Z" fill="#111111"/>
<path d="M36.1119 17.1951C36.1119 16.3911 35.4615 15.7407 34.6575 15.7407C33.858 15.7407 33.2031 16.3911 33.2031 17.1951C33.2031 17.9991 33.8535 18.6495 34.6575 18.6495C35.4615 18.6495 36.1119 17.9946 36.1119 17.1951Z" fill="#111111"/>
</g>
<defs>
<clipPath id="clip0_1952_707">
<rect width="50.0045" height="50" fill="white"/>
</clipPath>
</defs>
</svg>
