<svg width="294" height="104" viewBox="0 0 294 104" fill="none" xmlns="http://www.w3.org/2000/svg">
<path d="M59.45 0.799995H72.41V68H60.506V24.704H60.218L40.25 68H32.474L12.506 24.704H12.218V68H0.314001V0.799995H13.274L36.218 50.336H36.506L59.45 0.799995ZM125.397 62.432C120.917 66.912 115.221 69.152 108.309 69.152C101.397 69.152 95.6688 66.912 91.1248 62.432C86.6448 57.952 84.4048 52.16 84.4048 45.056C84.4048 37.952 86.6448 32.16 91.1248 27.68C95.6688 23.136 101.397 20.864 108.309 20.864C115.221 20.864 120.917 23.136 125.397 27.68C129.941 32.16 132.213 37.952 132.213 45.056C132.213 52.16 129.941 57.952 125.397 62.432ZM99.4768 55.136C101.781 57.696 104.725 58.976 108.309 58.976C111.893 58.976 114.805 57.696 117.045 55.136C119.349 52.576 120.501 49.216 120.501 45.056C120.501 40.832 119.349 37.472 117.045 34.976C114.805 32.416 111.893 31.136 108.309 31.136C104.725 31.136 101.781 32.416 99.4768 34.976C97.2368 37.472 96.1168 40.832 96.1168 45.056C96.1168 49.216 97.2368 52.576 99.4768 55.136ZM168.508 20.864C174.524 20.864 179.548 23.136 183.58 27.68C187.612 32.16 189.628 37.952 189.628 45.056C189.628 52.16 187.612 57.952 183.58 62.432C179.548 66.912 174.524 69.152 168.508 69.152C165.372 69.152 162.492 68.512 159.868 67.232C157.308 65.952 155.388 64.256 154.108 62.144H153.82L153.244 68H142.78V0.799995H154.3V27.584H154.588C155.804 25.6 157.66 24 160.156 22.784C162.652 21.504 165.436 20.864 168.508 20.864ZM165.916 58.88C169.5 58.88 172.38 57.632 174.556 55.136C176.796 52.64 177.916 49.28 177.916 45.056C177.916 40.768 176.796 37.376 174.556 34.88C172.38 32.384 169.5 31.136 165.916 31.136C162.268 31.136 159.356 32.384 157.18 34.88C155.004 37.312 153.916 40.704 153.916 45.056C153.916 49.344 155.004 52.736 157.18 55.232C159.356 57.664 162.268 58.88 165.916 58.88ZM206.009 15.008C203.897 15.008 202.105 14.336 200.633 12.992C199.225 11.584 198.521 9.824 198.521 7.712C198.521 5.664 199.257 3.936 200.729 2.528C202.201 1.12 203.961 0.415995 206.009 0.415995C208.057 0.415995 209.785 1.12 211.193 2.528C212.665 3.936 213.401 5.664 213.401 7.712C213.401 9.824 212.665 11.584 211.193 12.992C209.785 14.336 208.057 15.008 206.009 15.008ZM200.249 68V22.016H211.769V68H200.249ZM224.905 68V0.799995H236.425V68H224.905ZM293.05 43.52C293.05 44.928 292.922 46.368 292.666 47.84H258.298C258.746 51.616 260.09 54.496 262.33 56.48C264.634 58.464 267.482 59.456 270.874 59.456C276.058 59.456 279.61 57.504 281.53 53.6H292.378C291.162 58.464 288.602 62.272 284.698 65.024C280.858 67.776 276.186 69.152 270.682 69.152C263.642 69.152 257.914 66.944 253.498 62.528C249.082 58.112 246.874 52.384 246.874 45.344C246.874 38.112 249.114 32.224 253.594 27.68C258.074 23.136 263.802 20.864 270.778 20.864C277.306 20.864 282.65 22.944 286.81 27.104C290.97 31.2 293.05 36.672 293.05 43.52ZM270.778 30.368C267.77 30.368 265.178 31.2 263.002 32.864C260.89 34.464 259.45 36.832 258.682 39.968H281.53C280.506 33.568 276.922 30.368 270.778 30.368Z" fill="#ED1C24"/>
<path d="M40.488 84.4C42.8213 84.4 44.6693 84.9973 46.032 86.192C47.3947 87.3867 48.076 89.0107 48.076 91.064C48.076 93.1173 47.3947 94.7413 46.032 95.936C44.6693 97.1307 42.8213 97.728 40.488 97.728H37.072V104H34.16V84.4H40.488ZM40.432 95.012C43.512 95.012 45.052 93.696 45.052 91.064C45.052 88.4133 43.512 87.088 40.432 87.088H37.072V95.012H40.432ZM81.454 104L74.594 84.4H77.618L83.134 100.5H83.218L88.734 84.4H91.758L84.898 104H81.454ZM133.419 84.4V87.088H127.567V104H124.627V87.088H118.775V84.4H133.419ZM164.707 101.312H173.415V104H161.795V84.4H164.707V101.312ZM212.202 84.4V87.088H206.35V104H203.41V87.088H197.558V84.4H212.202ZM245.534 84.4C248.67 84.4 251.19 85.2867 253.094 87.06C254.998 88.8147 255.95 91.1947 255.95 94.2C255.95 97.2053 254.998 99.5947 253.094 101.368C251.19 103.123 248.67 104 245.534 104H240.578V84.4H245.534ZM245.674 101.312C247.914 101.312 249.687 100.696 250.994 99.464C252.301 98.2133 252.954 96.4587 252.954 94.2C252.954 91.9413 252.301 90.196 250.994 88.964C249.687 87.7133 247.914 87.088 245.674 87.088H243.49V101.312H245.674Z" fill="#111111"/>
</svg>
