<svg width="54" height="54" viewBox="0 0 54 54" fill="none" xmlns="http://www.w3.org/2000/svg">
<g clip-path="url(#clip0_1952_677)">
<path d="M31.9027 28.4659C31.795 28.1967 31.609 27.9617 31.4573 27.7121C31.2419 27.3793 31.0265 27.0513 30.7377 26.7674C30.5224 26.5521 30.2776 26.3954 30.0329 26.2241C29.7049 25.9941 29.3819 25.7738 29.0148 25.622C28.7162 25.4997 28.3932 25.4409 28.075 25.3724C27.7177 25.3039 27.375 25.2305 27.003 25.2305C26.6457 25.2305 26.2835 25.3039 25.936 25.3724C25.6129 25.4409 25.2899 25.4997 24.9913 25.622C24.634 25.7738 24.2962 25.9941 23.9732 26.2241C23.7333 26.3954 23.4837 26.5521 23.2683 26.7674C22.9795 27.0464 22.7642 27.3793 22.5488 27.7121C22.3922 27.9617 22.2062 28.1967 22.0985 28.4659C22.0055 28.6862 21.981 28.9309 21.9174 29.1659C21.702 30.0322 21.7216 30.9524 21.9223 31.8237H32.0838C32.2943 30.9524 32.3041 30.0322 32.0936 29.1659C32.0251 28.9309 32.0006 28.6862 31.9027 28.4659Z" fill="#BDDBFF"/>
<path d="M27.0022 6.88477C15.8911 6.88477 6.88477 15.8911 6.88477 27.0022C6.88477 38.1134 15.8911 47.1197 27.0022 47.1197C38.1134 47.1197 47.1197 38.1134 47.1197 27.0022C47.1148 15.8911 38.1085 6.88477 27.0022 6.88477ZM39.0287 21.7502L33.9773 26.2338C34.8632 27.6728 35.3038 29.3321 35.2108 31.0502C35.1961 31.3145 35.1275 31.5642 35.0884 31.8285H36.7624C37.5602 31.8285 38.2064 32.4746 38.2064 33.2724C38.2064 34.0752 37.5602 34.7213 36.7624 34.7213H17.1442C16.3512 34.7213 15.7051 34.0752 15.7051 33.2724C15.7051 32.4746 16.3512 31.8285 17.1442 31.8285H18.921C18.872 31.5642 18.8084 31.3145 18.7937 31.0502C18.7007 29.3321 19.1364 27.6728 20.0272 26.2338L14.9758 21.7502C14.687 21.4956 14.5255 21.1383 14.5108 20.781C14.4765 20.4188 14.594 20.0468 14.8583 19.7629C15.3821 19.1853 16.2631 19.1217 16.8505 19.6405L21.9068 24.1339C21.9802 24.0752 22.0781 24.0507 22.1515 23.992C22.6802 23.6004 23.2431 23.2724 23.8402 23.0179C23.9479 22.9738 24.0458 22.9102 24.1633 22.8711C24.8485 22.6165 25.5583 22.4697 26.2876 22.4061C26.3659 22.3963 26.4344 22.3571 26.5079 22.3571C26.6743 22.3473 26.8358 22.3767 26.9973 22.3767C27.1638 22.3767 27.3302 22.3473 27.4917 22.3571C27.57 22.3571 27.6386 22.3963 27.712 22.4061C28.4462 22.4697 29.1608 22.6165 29.8363 22.8711C29.944 22.9102 30.0468 22.9738 30.1545 23.0179C30.7516 23.2724 31.3194 23.6004 31.8432 23.992C31.9215 24.0458 32.0145 24.0703 32.0928 24.1339L37.1442 19.6405C37.7316 19.1217 38.6126 19.1853 39.1364 19.7629C39.4007 20.0517 39.5133 20.4237 39.4839 20.781C39.479 21.1432 39.3175 21.4956 39.0287 21.7502Z" fill="#2777FC"/>
<path d="M27.0019 50.9867C40.2481 50.9867 50.9863 40.2486 50.9863 27.0024C50.9863 13.7562 40.2481 3.01807 27.0019 3.01807C13.7557 3.01807 3.01758 13.7562 3.01758 27.0024C3.01758 40.2486 13.7557 50.9867 27.0019 50.9867Z" stroke="#BDDBFF" stroke-width="4.1525" stroke-miterlimit="10" stroke-linecap="round" stroke-linejoin="round"/>
</g>
<defs>
<clipPath id="clip0_1952_677">
<rect width="54" height="54" fill="white"/>
</clipPath>
</defs>
</svg>
