<svg width="255" height="363" viewBox="0 0 255 363" fill="none" xmlns="http://www.w3.org/2000/svg">
<path d="M110.5 363C171.527 363 221 357.404 221 350.5C221 343.596 171.527 338 110.5 338C49.4725 338 0 343.596 0 350.5C0 357.404 49.4725 363 110.5 363Z" fill="#EEEEEE"/>
<path d="M53.6699 341.419L56.6697 314.812L73.2899 316.192L68.2633 341.014L53.6699 341.419Z" fill="#FFBE9D"/>
<path d="M157.279 110.314C157.198 110.314 146.902 112.261 139.686 112.261L140.173 118.831L81.3127 111.693L77.259 111.206L52.126 108.124C52.126 108.124 64.4493 82.7338 101.987 79.4079C102.23 79.4079 114.634 80.7869 120.958 79.8135C137.659 77.2178 149.577 86.7897 152.415 81.1114C156.063 73.8108 140.821 66.5913 140.821 66.5913L146.334 55.8838C146.334 55.8838 166.846 60.183 174.791 72.4318C180.142 80.7869 185.655 102.202 157.279 110.314Z" fill="#2777FC"/>
<path d="M107.584 37.8807C107.584 37.8807 97.2064 36.2584 99.1522 53.6987C100.53 65.9475 105.152 68.7055 105.152 68.7055L106.368 58.3224L108.07 51.3463L111.557 41.6933L107.584 37.8807Z" fill="#1C2431"/>
<path d="M120.796 81.5994L119.498 69.5129L106.364 57.9941L101.986 79.8148C101.986 79.8959 116.499 92.8748 120.796 81.5994Z" fill="#FFBE9D"/>
<path d="M120.387 78.0288C112.037 77.8665 109.523 69.917 109.523 69.917L119.739 71.7827L120.387 78.0288Z" fill="#1C2431"/>
<path d="M133.036 53.2877C130.604 63.4274 128.253 77.8664 117.956 75.3517C106.687 72.5937 105.309 61.3183 105.795 53.0443C106.038 48.9073 109.606 42.2557 119.416 43.0668C131.577 44.1214 134.009 49.2318 133.036 53.2877Z" fill="#FFBE9D"/>
<path d="M108.065 57.1826C108.47 54.9925 106.362 53.0456 104.335 53.8568C103.687 54.1002 103.119 54.5869 102.714 55.3981C101.011 58.6428 103.2 61.8875 107.254 61.8875L108.065 57.1826Z" fill="#FFBE9D"/>
<path d="M107.583 37.8775C118.691 25.4665 136.365 36.8229 136.121 46.3137C135.959 52.3164 132.716 54.9933 132.716 54.9933C133.851 51.5053 131.338 50.1263 131.338 50.1263C127.69 59.0492 112.448 54.4255 112.448 54.4255C110.259 57.1024 110.421 59.4548 110.421 59.4548C106.935 58.3192 107.908 55.5611 105.881 54.4255C104.503 53.6954 103.124 54.4255 102.638 55.3178C101.827 57.1024 107.583 37.8775 107.583 37.8775Z" fill="#1C2431"/>
<path d="M120.146 57.2624C122.335 57.5057 124.281 57.1813 126.065 56.4512C130.281 54.5855 131.578 50.4485 131.659 50.2863L131.01 50.124C131.01 50.124 129.794 54.0988 125.822 55.8834C122.416 57.4246 117.957 56.8568 112.607 54.261L112.282 54.91C115.12 56.2078 117.795 57.019 120.146 57.2624Z" fill="#1C2431"/>
<path d="M116.662 342.312L117.797 315.543H134.58L131.255 341.825L116.662 342.312Z" fill="#FFBE9D"/>
<path d="M143.902 328.927C143.902 328.927 155.577 267.197 154.523 244.808C153.469 223.15 138.632 155.092 138.632 155.092L88.7715 153.632L112.283 253.893L108.067 327.711L143.902 328.927Z" fill="#334460"/>
<path d="M113.419 322.032L114.148 328.035L108.068 327.792L112.284 253.975L106.527 229.477L113.013 221.446L118.851 250L113.419 322.032Z" fill="#213049"/>
<path d="M129.068 162.555L126.311 172.452L125.744 174.642L83.8283 327.062L46.6152 325.846L76.2073 180.32L77.8288 172.208L80.261 160.284L129.068 162.555Z" fill="#334460"/>
<path d="M146.821 322.681C146.821 322.681 119.174 327.71 105.473 321.383L105.229 329.251C118.12 333.064 131.092 332.983 146.577 330.549L146.821 322.681Z" fill="#334460"/>
<path d="M83.0178 141.056C83.0178 140.894 84.8014 122.886 94.8546 109.988L94.125 109.339C83.8286 122.561 82.0449 140.813 82.0449 140.975L83.0178 141.056Z" fill="white"/>
<path d="M138.632 155.173L135.957 168.719C135.876 168.801 135.713 168.882 135.632 168.963C132.389 171.315 129.065 173.181 125.741 174.722C101.014 186.484 76.9347 179.184 76.9347 179.184L76.2861 180.319L77.9076 172.208C76.0429 171.721 74.1782 171.153 72.3945 170.504L72.7188 166.286L74.016 150.225L138.632 155.173Z" fill="#213049"/>
<path d="M143.579 164.583C140.984 166.205 138.309 167.584 135.633 168.882C132.553 170.261 129.472 171.478 126.31 172.451C110.419 177.318 93.718 176.669 77.8275 172.208C75.9628 171.721 74.0981 171.153 72.3145 170.504L72.6388 166.286L73.9359 150.225L75.9628 126.376L77.26 111.207L79.2868 88.5754C79.2868 88.5754 101.825 79.4902 101.988 79.4902C114.716 89.1432 120.959 79.8958 120.959 79.8958L139.201 106.989L143.579 164.583Z" fill="#2777FC"/>
<path d="M80.9883 123.7L73.8538 166.449L72.6377 166.206L75.9617 126.377L80.9883 123.7Z" fill="#1353BC"/>
<path d="M72.5565 170.018C73.2051 170.829 75.1508 173.343 76.1237 173.749C77.0156 174.073 81.9611 175.371 81.6368 176.345C81.2314 177.399 77.9885 175.858 77.9074 176.75C77.8263 177.318 84.069 180.482 83.1772 181.536C82.6097 182.185 79.0424 179.752 78.8803 180.238C78.7181 180.644 83.7447 182.753 82.8529 183.808C81.9611 184.862 77.5831 180.806 77.2588 181.293C77.0966 181.536 82.6908 185.024 81.9611 185.836C80.9882 186.971 77.0156 182.915 76.5291 183.321C76.2859 183.564 77.9885 184.7 78.8803 185.592C79.3667 186.079 79.1235 186.566 78.637 186.403C74.0158 185.187 69.2324 178.292 68.5838 177.886C67.5299 177.237 66.0705 176.669 65.0977 176.02L72.5565 170.018Z" fill="#FFBE9D"/>
<path d="M145.767 57.1001L141.876 64.644C140.822 63.914 139.443 63.0217 138.795 62.9406C137.822 62.8595 132.714 62.9406 132.795 61.8861C132.876 60.7504 136.363 61.3993 136.281 60.507C136.2 59.9392 129.309 58.5602 129.958 57.3435C130.363 56.5323 134.417 57.9113 134.498 57.4246C134.579 56.9379 129.147 56.2889 129.714 55.0722C130.282 53.7743 135.552 56.6134 135.795 55.9645C135.876 55.64 129.552 53.8554 130.039 52.882C130.687 51.5841 135.633 54.4232 135.957 53.7743C136.119 53.5309 134.174 52.8009 133.12 52.233C132.471 51.9086 132.633 51.3407 133.12 51.3407C137.903 51.2596 144.308 56.6945 145.119 56.9379C145.281 57.019 145.524 57.019 145.767 57.1001Z" fill="#FFBE9D"/>
<path d="M77.0973 171.721C77.0973 171.721 56.1802 140.409 80.7457 123.375L96.0687 84.6004V84.357C79.6917 83.7081 61.7743 93.0366 51.8022 106.746C35.1009 129.621 38.425 164.745 66.5577 182.185L77.0973 171.721Z" fill="#2777FC"/>
<path d="M139.769 105.289C139.769 105.289 160.199 110.075 175.684 98.3936L175.522 98.7991C172.36 103.423 166.604 107.56 157.281 110.237C157.2 110.237 146.903 112.184 139.688 112.184L139.769 105.289Z" fill="#1353BC"/>
<path d="M139.61 101.273L138.801 101.328L143.145 164.61L143.954 164.554L139.61 101.273Z" fill="#1C2431"/>
<path d="M84.2316 327.223L83.4209 326.98L118.202 199.706L119.012 199.949L84.2316 327.223Z" fill="#1C2431"/>
<path d="M86.5032 322.115C86.5032 322.115 58.8569 327.145 45.1553 320.817L44.9121 328.686C57.8029 332.498 70.7748 332.417 86.2599 329.984L86.5032 322.115Z" fill="#334460"/>
<path d="M63.0717 324.465C55.694 324.465 50.4242 323.735 44.9922 321.22L45.3165 320.49C58.6937 326.736 86.1779 321.869 86.4211 321.788L86.5832 322.599C85.8536 322.68 74.4221 324.465 63.0717 324.465Z" fill="#1C2431"/>
<path d="M124.12 325.034C116.742 325.034 110.661 324.304 105.229 321.79L105.554 321.06C118.931 327.306 146.415 322.439 146.658 322.357L146.821 323.169C146.172 323.25 135.47 325.034 124.12 325.034Z" fill="#1C2431"/>
<path d="M51.7181 352.289H89.9851C91.2823 352.289 92.4174 351.154 92.2552 349.856C92.2552 349.856 92.2552 349.856 92.2552 349.775C92.2552 349.45 92.1741 349.207 92.1741 348.882C92.012 347.828 91.7688 346.854 91.2823 346.206C89.4987 343.772 85.9314 342.717 79.6887 340.203C75.7161 338.662 72.392 336.553 70.9327 335.579C70.4463 335.255 69.7977 335.336 69.3923 335.741C61.8524 343.123 57.1501 341.582 55.7718 338.499C54.7179 336.147 53.1775 336.634 52.7721 337.364C51.4749 339.473 50.8263 345.719 50.502 348.882C50.502 349.207 50.4209 349.531 50.4209 349.775C50.3399 350.343 50.3399 350.748 50.3399 350.748C50.2588 351.559 50.9074 352.289 51.7181 352.289Z" fill="#13426E"/>
<path d="M77.503 344.257C80.2595 342.959 79.8541 340.12 79.8541 340.12L79.2055 340.201C79.2055 340.282 79.5298 342.554 77.2598 343.689L77.503 344.257Z" fill="#1C2431"/>
<path d="M80.9083 345.394C83.4216 344.015 83.1784 341.581 83.0973 341.419L82.4487 341.5C82.4487 341.581 82.6919 343.609 80.584 344.826L80.9083 345.394Z" fill="#1C2431"/>
<path d="M59.2609 343.69C61.8553 343.69 64.1253 342.555 64.2064 342.474L63.8821 341.906C63.801 341.906 58.0448 344.826 55.045 341.176L54.5586 341.581C55.8558 343.204 57.6394 343.69 59.2609 343.69Z" fill="#1C2431"/>
<path d="M114.071 352.289H152.338C153.635 352.289 154.77 351.154 154.608 349.856C154.608 349.856 154.608 349.856 154.608 349.775C154.608 349.45 154.527 349.207 154.527 348.882C154.365 347.828 154.121 346.854 153.635 346.206C151.851 343.772 148.284 342.717 142.041 340.203C138.069 338.662 134.745 336.553 133.285 335.579C132.799 335.255 132.15 335.336 131.745 335.741C124.205 343.123 119.503 341.582 118.124 338.499C117.07 336.147 115.53 336.634 115.125 337.364C113.827 339.473 113.179 345.719 112.855 348.882C112.855 349.207 112.773 349.531 112.773 349.775C112.692 350.343 112.692 350.748 112.692 350.748C112.611 351.559 113.26 352.289 114.071 352.289Z" fill="#13426E"/>
<path d="M139.849 344.257C142.605 342.959 142.2 340.12 142.2 340.12L141.551 340.201C141.551 340.282 141.876 342.554 139.605 343.689L139.849 344.257Z" fill="#1C2431"/>
<path d="M143.254 345.394C145.767 344.015 145.524 341.581 145.443 341.419L144.794 341.5C144.794 341.581 145.038 343.609 142.93 344.826L143.254 345.394Z" fill="#1C2431"/>
<path d="M121.608 343.69C124.202 343.69 126.472 342.555 126.553 342.474L126.229 341.906C126.148 341.906 120.391 344.826 117.392 341.176L116.905 341.581C118.202 343.204 119.986 343.69 121.608 343.69Z" fill="#1C2431"/>
<path d="M113.176 87.2782C106.771 87.2782 100.934 81.9245 100.609 81.6811L101.177 81.1133C101.258 81.1944 107.906 87.1971 114.392 86.3859C117.311 86.0615 119.743 84.358 121.689 81.4377L122.337 81.9245C120.229 85.0881 117.635 86.8726 114.473 87.1971C114.068 87.2782 113.581 87.2782 113.176 87.2782Z" fill="#1C2431"/>
<path d="M85.6101 95.7952C84.5562 87.6023 78.7188 86.2233 78.4756 86.2233L78.6377 85.4121C78.7188 85.4121 85.2858 86.9533 86.4209 95.7141L85.6101 95.7952Z" fill="#1C2431"/>
<path d="M44.9918 143.33C44.9108 143.168 40.6949 125.241 53.6668 109.585L54.3154 110.072C41.6678 125.484 45.8026 142.924 45.8026 143.168L44.9918 143.33Z" fill="#1C2431"/>
<path d="M76.3683 127.756L75.7197 127.269C75.9629 126.944 80.9085 119.968 88.2052 119.4L88.2862 120.212C81.3138 120.698 76.3683 127.674 76.3683 127.756Z" fill="#1C2431"/>
<path d="M103.041 170.262C94.4468 170.262 88.5284 169.127 88.3662 169.127L88.5284 168.315C88.7716 168.397 115.121 173.426 137.092 161.988L137.497 162.718C125.741 168.802 112.688 170.262 103.041 170.262Z" fill="#1C2431"/>
<path d="M151.524 84.52C148.119 84.52 146.335 83.4655 146.173 83.3844L146.578 82.6543C146.578 82.6543 150.145 84.7634 156.712 82.8977L156.956 83.7088C154.848 84.3578 153.064 84.52 151.524 84.52Z" fill="#1C2431"/>
<path d="M85.7727 261.842C85.6916 261.842 85.6916 261.842 85.7727 261.842V261.031C85.8538 261.031 95.8259 261.193 102.555 251.297L103.204 251.784C96.4745 261.599 86.5835 261.842 85.7727 261.842Z" fill="#1C2431"/>
<path d="M142.93 258.518L142.687 257.707C142.768 257.707 150.875 255.192 154.28 248.216L155.01 248.54C151.443 255.922 143.335 258.437 142.93 258.518Z" fill="#1C2431"/>
<path d="M113.095 162.474L113.014 161.662C113.176 161.662 127.607 160.689 135.877 151.279L136.444 151.847C127.931 161.5 113.176 162.474 113.095 162.474Z" fill="#1C2431"/>
<g opacity="0.67">
<path d="M12.2381 66.9173C14.0739 66.9173 15.5621 65.4283 15.5621 63.5915C15.5621 61.7546 14.0739 60.2656 12.2381 60.2656C10.4023 60.2656 8.91406 61.7546 8.91406 63.5915C8.91406 65.4283 10.4023 66.9173 12.2381 66.9173Z" fill="#2777FC"/>
</g>
<g opacity="0.53">
<path d="M29.5878 16.9482C27.561 16.9482 25.8584 15.2447 25.8584 13.2168C25.8584 11.1888 27.561 9.48535 29.5878 9.48535C31.6147 9.48535 33.3172 11.1888 33.3172 13.2168C33.3172 15.2447 31.6957 16.9482 29.5878 16.9482ZM29.5878 10.3776C27.9663 10.3776 26.6691 11.6755 26.6691 13.2979C26.6691 14.9202 27.9663 16.2181 29.5878 16.2181C31.2093 16.2181 32.5065 14.9202 32.5065 13.2979C32.5065 11.6755 31.2093 10.3776 29.5878 10.3776Z" fill="#C3A200"/>
</g>
<g opacity="0.53">
<path d="M167.091 9.64873C168.926 9.64873 170.415 8.1597 170.415 6.3229C170.415 4.4861 168.926 2.99707 167.091 2.99707C165.255 2.99707 163.767 4.4861 163.767 6.3229C163.767 8.1597 165.255 9.64873 167.091 9.64873Z" fill="#C3A200"/>
</g>
<g opacity="0.67">
<path d="M202.519 158.418C204.355 158.418 205.843 156.929 205.843 155.092C205.843 153.256 204.355 151.767 202.519 151.767C200.684 151.767 199.195 153.256 199.195 155.092C199.195 156.929 200.684 158.418 202.519 158.418Z" fill="#2777FC"/>
</g>
<g opacity="0.53">
<path d="M176.414 136.192C174.387 136.192 172.685 134.489 172.685 132.461C172.685 130.433 174.387 128.729 176.414 128.729C178.441 128.729 180.143 130.433 180.143 132.461C180.143 134.57 178.441 136.192 176.414 136.192ZM176.414 129.622C174.792 129.622 173.495 130.92 173.495 132.542C173.495 134.164 174.792 135.462 176.414 135.462C178.035 135.462 179.333 134.164 179.333 132.542C179.333 130.92 178.035 129.622 176.414 129.622Z" fill="#C3A200"/>
</g>
<path d="M213.853 41.9703C213.98 41.8887 214.106 41.8094 214.233 41.7323L214.145 41.585L213.76 41.8275L213.853 41.9703Z" fill="#1C2431"/>
<path d="M219.387 64.6821H219.55V64.5121C219.247 64.5189 218.944 64.5075 218.643 64.4781L218.625 64.6481C218.872 64.6663 219.13 64.6821 219.387 64.6821ZM217.705 64.4963L217.741 64.3308C217.446 64.264 217.157 64.1754 216.875 64.0656L216.814 64.2243C217.104 64.3354 217.402 64.4248 217.705 64.4917V64.4963ZM215.975 63.8163L216.059 63.6689C215.799 63.5168 215.551 63.344 215.318 63.1521L215.209 63.2813C215.449 63.4815 215.705 63.6612 215.975 63.8185V63.8163ZM214.54 62.6376L214.665 62.522C214.462 62.2984 214.275 62.0606 214.105 61.8103L213.965 61.9055C214.139 62.1647 214.331 62.4109 214.54 62.6421V62.6376ZM213.502 61.0985L213.656 61.026C213.527 60.753 213.422 60.4694 213.341 60.1783L213.178 60.2236C213.261 60.5249 213.369 60.8184 213.502 61.1008V61.0985ZM213.013 59.3033L213.183 59.2897C213.183 59.1673 213.167 59.0427 213.167 58.9225C213.168 58.7544 213.177 58.5864 213.196 58.4193C213.373 58.4075 213.548 58.3855 213.722 58.3536L213.693 58.1859C213.416 58.2358 213.135 58.2616 212.854 58.2629H212.795V58.4329H212.856H213.026C213.008 58.597 212.999 58.762 212.999 58.9271C212.997 59.0495 213.004 59.1787 213.013 59.3056V59.3033ZM211.864 58.3196L211.902 58.1541C211.611 58.0851 211.328 57.9816 211.061 57.8459L210.984 57.9977C211.263 58.1402 211.559 58.249 211.864 58.3219V58.3196ZM214.624 58.1088C214.917 58.0031 215.202 57.8742 215.474 57.7235L215.39 57.5761C215.127 57.7219 214.851 57.8462 214.568 57.9479L214.624 58.1088ZM213.405 57.5104C213.504 57.227 213.635 56.9556 213.795 56.7012L213.652 56.6105C213.484 56.875 213.347 57.1579 213.244 57.4537L213.405 57.5104ZM210.204 57.4741L210.313 57.3449C210.083 57.1507 209.873 56.9343 209.685 56.6989L209.554 56.8055C209.747 57.0519 209.965 57.2782 210.204 57.4809V57.4741ZM216.243 57.2021L216.29 57.1568C216.515 56.9597 216.693 56.716 216.814 56.4428L216.655 56.3793C216.545 56.6294 216.381 56.8523 216.175 57.0321L216.129 57.0729L216.243 57.2021ZM209.028 56.0439L209.173 55.9555C209.014 55.6925 208.867 55.4228 208.738 55.1576L208.584 55.2324C208.715 55.5021 208.865 55.7764 209.028 56.0439ZM214.359 56.0099C214.566 55.8093 214.794 55.6315 215.039 55.4795L215.073 55.4568L214.985 55.3117L214.948 55.3344C214.696 55.4939 214.461 55.6801 214.248 55.8897L214.359 56.0099ZM216.61 55.5724L216.75 55.4772C216.653 55.3408 216.525 55.23 216.376 55.1542C216.226 55.0784 216.061 55.0399 215.894 55.042V55.212C216.033 55.2112 216.171 55.2434 216.295 55.3061C216.42 55.3687 216.528 55.46 216.61 55.5724ZM208.223 54.3779L208.382 54.3189C208.277 54.0344 208.187 53.7447 208.112 53.4508L207.949 53.4916C208.022 53.7921 208.113 54.0881 208.221 54.3779H208.223ZM207.77 52.5804L207.94 52.5577C207.899 52.2571 207.876 51.9544 207.87 51.6511H207.7C207.706 51.9619 207.729 52.2722 207.77 52.5804ZM207.901 50.7444C207.929 50.4401 207.972 50.1375 208.031 49.8377L207.863 49.8037C207.804 50.1073 207.76 50.4137 207.731 50.7217L207.901 50.7444ZM208.253 48.9628C208.339 48.6772 208.441 48.3893 208.559 48.1037L208.4 48.0403C208.282 48.3281 208.173 48.6228 208.09 48.9129L208.253 48.9628ZM208.933 47.2741C209.069 47.0089 209.221 46.7415 209.386 46.4785L209.241 46.3901C209.078 46.6553 208.924 46.9273 208.788 47.1971L208.933 47.2741ZM209.887 45.7192C210.062 45.4744 210.25 45.2319 210.445 44.9961L210.313 44.8873C210.116 45.1253 209.926 45.3724 209.749 45.6195L209.887 45.7192ZM211.048 44.3093C211.254 44.0827 211.471 43.8719 211.694 43.6633L211.578 43.5387C211.351 43.7517 211.125 43.9716 210.925 44.1937L211.048 44.3093ZM212.378 43.0559C212.605 42.8632 212.852 42.6728 213.094 42.4915L212.995 42.3555C212.748 42.5368 212.503 42.7295 212.269 42.9267L212.378 43.0559Z" fill="#1C2431"/>
<path d="M220.5 64.6006C220.652 64.5816 220.804 64.5544 220.953 64.519L220.912 64.3535C220.912 64.3535 220.749 64.3943 220.477 64.4329L220.5 64.6006Z" fill="#1C2431"/>
<path d="M225.089 63.7955C225.402 66.4641 219.951 67.9586 219.538 64.4627C219.124 60.9668 224.775 61.1069 225.089 63.7955Z" fill="#1C2431"/>
<path d="M217.949 68.2117C218.456 69.2191 220.251 69.3592 222.106 68.0649C223.365 67.1033 224.429 65.91 225.241 64.549C223.673 64.3856 222.088 64.5237 220.571 64.956C218.376 65.6965 217.415 67.1909 217.949 68.2117Z" fill="#FFE00B"/>
<path d="M225.222 64.5479C224.168 65.0215 223.133 65.5352 222.099 66.0423C221.065 66.5493 220.045 67.0897 219.037 67.6501C220.091 67.1765 221.125 66.6627 222.159 66.1557C223.194 65.6487 224.214 65.1083 225.222 64.5479Z" fill="#1C2431"/>
<path d="M220.381 68.1906C220.62 67.9128 220.843 67.621 221.048 67.3167C221.249 67.0146 221.432 66.7005 221.595 66.376C221.355 66.6538 221.132 66.9456 220.928 67.25C220.725 67.5511 220.542 67.8654 220.381 68.1906Z" fill="#1C2431"/>
<path d="M222.619 65.8494C222.252 65.754 221.88 65.6782 221.505 65.6226C221.127 65.5691 220.746 65.5356 220.364 65.5225C221.103 65.7065 221.858 65.816 222.619 65.8494Z" fill="#1C2431"/>
<path d="M223.198 66.2895C223.428 66.0039 223.592 65.6714 223.679 65.3154C223.449 65.601 223.285 65.9336 223.198 66.2895Z" fill="#1C2431"/>
<path d="M217.071 61.226C217.331 60.1252 219.039 59.5781 221.14 60.4054C222.591 61.0511 223.904 61.9682 225.01 63.1074C223.51 63.6267 221.925 63.8532 220.34 63.7746C218.091 63.5878 216.804 62.3602 217.071 61.226Z" fill="#FFE00B"/>
<path d="M225.01 63.1072C223.876 62.8937 222.748 62.6268 221.627 62.3667C220.506 62.1065 219.386 61.8263 218.291 61.5127C219.419 61.7262 220.546 61.993 221.667 62.2532C222.788 62.5134 223.896 62.7936 225.01 63.1072Z" fill="#1C2431"/>
<path d="M219.452 60.6797C219.743 60.8862 220.021 61.1089 220.286 61.3468C220.551 61.596 220.803 61.8588 221.04 62.1341C220.747 61.9315 220.468 61.7086 220.206 61.4669C219.94 61.2194 219.688 60.9566 219.452 60.6797Z" fill="#1C2431"/>
<path d="M222.186 62.4395C221.51 62.7912 220.799 63.0707 220.064 63.2734C220.739 62.9186 221.45 62.639 222.186 62.4395Z" fill="#1C2431"/>
<path d="M222.618 61.8809C222.763 61.9896 222.895 62.115 223.011 62.2545C223.127 62.3974 223.227 62.5517 223.312 62.7148C223.166 62.6037 223.034 62.4761 222.918 62.3345C222.797 62.1984 222.696 62.0456 222.618 61.8809Z" fill="#1C2431"/>
<path d="M225.088 63.7939C224.897 63.8162 224.717 63.8945 224.57 64.0191C224.423 64.1436 224.317 64.3089 224.264 64.4939C224.211 64.6789 224.214 64.8753 224.273 65.0586C224.332 65.2418 224.443 65.4036 224.594 65.5234C224.745 65.6433 224.927 65.7159 225.119 65.732C225.311 65.7482 225.503 65.7072 225.671 65.6143C225.84 65.5214 225.977 65.3806 226.065 65.2098C226.154 65.039 226.19 64.8458 226.169 64.6546C226.139 64.3975 226.008 64.1628 225.806 64.0016C225.603 63.8404 225.345 63.7657 225.088 63.7939Z" fill="#FFC51B"/>
<path d="M224.86 61.8562C224.733 61.8711 224.61 61.911 224.498 61.9735C224.386 62.0361 224.287 62.1201 224.207 62.2207C224.128 62.3214 224.069 62.4368 224.034 62.5602C223.999 62.6837 223.988 62.8129 224.003 62.9403C224.018 63.0678 224.058 63.1911 224.12 63.3032C224.183 63.4153 224.267 63.5139 224.368 63.5935C224.468 63.6731 224.584 63.7321 224.707 63.7672C224.831 63.8022 224.96 63.8125 225.087 63.7976C225.345 63.7676 225.58 63.6365 225.74 63.4331C225.901 63.2298 225.975 62.971 225.945 62.7135C225.914 62.4561 225.783 62.2211 225.58 62.0603C225.377 61.8996 225.118 61.8261 224.86 61.8562Z" fill="#FFC51B"/>
<path d="M239.586 34.1843C238.56 34.0567 229.878 33.6527 225.896 31.4889C223.77 30.3353 218.342 26.5182 218.884 25.1466C219.379 23.8973 221.122 24.5778 221.122 24.5778C221.122 24.5778 218.725 22.8394 219.427 21.1063C220.128 19.3732 223.026 20.6756 223.026 20.6756C223.026 20.6756 220.692 18.7086 221.516 17.034C222.34 15.3594 225.03 17.151 225.03 17.151C225.03 17.151 222.813 15.4551 224.073 14.3599C225.593 13.0415 229.331 16.6353 231.856 17.4753C232.43 17.6666 243.743 20.5268 243.743 20.5268L239.586 34.1843Z" fill="#D3766A"/>
<path d="M225.127 17.1029C227.881 19.7345 229.545 20.4097 233.224 21.1539C233.293 21.1539 233.287 21.2815 233.224 21.2709C229.555 20.8722 227.349 20.3246 225.005 17.2305C224.877 17.0763 224.999 16.9753 225.127 17.1029Z" fill="white"/>
<path d="M223.116 20.611C226.216 23.099 228.013 23.8433 231.808 24.9065C231.862 24.9065 231.84 25.0182 231.782 25.0075C227.975 24.2739 225.785 23.6785 223.015 20.7864C222.888 20.6588 222.973 20.4993 223.116 20.611Z" fill="white"/>
<path d="M221.308 24.6203C224.497 26.8106 226.417 27.7197 230.234 28.2779C230.252 28.2779 230.27 28.2851 230.282 28.2981C230.295 28.3111 230.303 28.3286 230.303 28.347C230.303 28.3653 230.295 28.3829 230.282 28.3958C230.27 28.4088 230.252 28.4161 230.234 28.4161C226.284 28.2247 223.854 27.1136 221.265 24.7266C221.074 24.5777 221.111 24.4874 221.308 24.6203Z" fill="white"/>
<path d="M246.709 21.0163C246.709 21.0163 243.546 17.4384 241.813 16.1731C240.08 14.9079 231.871 12.5687 231.265 14.3125C230.484 16.5665 234.955 18.8472 237.289 19.6766C237.289 19.6766 235.476 24.8865 238.352 27.215C241.228 29.5436 246.709 21.0163 246.709 21.0163Z" fill="#D3766A"/>
<path d="M231.249 15.0088C232.02 17.5765 235.156 18.4697 237.362 19.4426C237.395 19.4566 237.424 19.4781 237.447 19.5054C237.47 19.5326 237.486 19.5648 237.494 19.5993C237.502 19.6339 237.503 19.6699 237.494 19.7046C237.486 19.7392 237.47 19.7714 237.447 19.7987C236.831 22.0316 236.618 25.3596 238.181 27.2415C238.224 27.2947 238.155 27.3691 238.101 27.3213C236.15 25.535 236.097 22.2442 236.926 19.8413C234.646 18.879 231.541 17.8424 231.227 15.0194C231.222 15.0088 231.243 15.0088 231.249 15.0088Z" fill="white"/>
<path d="M243.063 35.2108C243.52 34.1475 244.658 29.4267 244.907 28.2518C245.157 27.0769 246.082 22.3242 246.354 21.1174C246.354 21.0483 246.279 21.011 246.263 21.0748C245.976 22.2657 244.695 26.9546 244.413 28.1242C244.131 29.2938 243.073 34.0093 242.999 35.1948C242.998 35.199 242.998 35.2034 242.998 35.2077C242.999 35.2119 243 35.216 243.003 35.2197C243.007 35.2272 243.014 35.2326 243.023 35.2347C243.031 35.2368 243.04 35.2355 243.048 35.231C243.055 35.2265 243.061 35.2193 243.063 35.2108Z" fill="white"/>
<path d="M196.945 0.176317L254.182 17.708L243.862 51.3992L186.626 33.8675L196.945 0.176317Z" fill="#FFE00B"/>
<path opacity="0.05" d="M196.945 0.176317L254.182 17.708L243.862 51.3992L186.626 33.8675L196.945 0.176317Z" fill="#1C2431"/>
<path opacity="0.15" d="M196.948 0.177693L216.183 6.06934L205.863 39.7605L186.628 33.8689L196.948 0.177693Z" fill="#1C2431"/>
<path d="M197.87 1.89453C198.519 4.87873 199.149 7.86293 199.763 10.8471L201.575 19.821L203.33 28.8321C203.904 31.8304 204.464 34.8341 205.01 37.8431C204.361 34.8625 203.73 31.8783 203.117 28.8905L201.304 19.9167L199.55 10.9269C198.976 7.91432 198.416 4.90354 197.87 1.89453Z" fill="#FFE00B"/>
<path d="M188.422 32.738C190.549 30.5548 192.695 28.3804 194.86 26.2149L201.346 19.7504L207.875 13.3336C210.058 11.2071 212.252 9.08061 214.456 6.9541C212.33 9.14086 210.184 11.3152 208.018 13.4772L201.532 19.9417L195.004 26.3585C192.817 28.5063 190.623 30.6328 188.422 32.738Z" fill="#FFE00B"/>
<path d="M243.188 22.0487L242.873 21.9521L244.229 17.5247L244.544 17.6213L243.188 22.0487Z" fill="white"/>
<path d="M243.937 22.2743L243.622 22.1777L244.978 17.7503L245.293 17.8468L243.937 22.2743Z" fill="white"/>
<path d="M244.694 22.5165L244.379 22.4199L245.735 17.9925L246.05 18.089L244.694 22.5165Z" fill="white"/>
<path d="M245.44 22.7332L245.125 22.6367L246.48 18.209L246.796 18.3055L245.44 22.7332Z" fill="white"/>
<path d="M246.195 22.9667L245.88 22.8701L247.236 18.4427L247.551 18.5392L246.195 22.9667Z" fill="white"/>
<path d="M246.946 23.1913L246.631 23.0947L247.987 18.6673L248.302 18.7638L246.946 23.1913Z" fill="white"/>
<path d="M247.704 23.4393L247.389 23.3428L248.745 18.9153L249.06 19.0119L247.704 23.4393Z" fill="white"/>
<path d="M248.455 23.663L248.14 23.5664L249.497 19.1392L249.812 19.2358L248.455 23.663Z" fill="white"/>
<path d="M249.215 23.9022L248.899 23.8057L250.256 19.3782L250.571 19.4748L249.215 23.9022Z" fill="white"/>
<path d="M241.044 16.9166L242.352 16.9485L239.518 16.0713L240.624 16.7837L240.124 18.4104C239.226 18.2563 238.62 19.0059 238.162 20.4944L240.996 21.3876C241.453 19.9043 241.373 18.9421 240.544 18.5646L241.044 16.9166Z" fill="white"/>
<path d="M238.192 18.0504L237.453 17.8218L238.118 15.6527L236.225 15.0732L235.561 17.2423L234.817 17.0137L235.816 19.7888L238.192 18.0504Z" fill="white"/>
<path opacity="0.05" d="M254.179 17.7096L253.333 20.474L213.77 13.9457L216.183 6.07227L254.179 17.7096Z" fill="#1C2431"/>
<path d="M179.208 37.6876L198.448 43.5781L205.864 39.761L186.625 33.8652L179.208 37.6876Z" fill="#FFE00B"/>
<path opacity="0.2" d="M179.208 37.6876L198.448 43.5781L205.864 39.761L186.625 33.8652L179.208 37.6876Z" fill="#1C2431"/>
<path d="M247.869 58.7187L228.63 52.823L224.626 45.5078L243.866 51.3982L247.869 58.7187Z" fill="#FFE00B"/>
<path opacity="0.1" d="M247.869 58.7187L228.63 52.823L224.626 45.5078L243.866 51.3982L247.869 58.7187Z" fill="#1C2431"/>
</svg>
