<svg width="251" height="360" viewBox="0 0 251 360" fill="none" xmlns="http://www.w3.org/2000/svg">
<path d="M110.5 360C171.527 360 221 354.404 221 347.5C221 340.596 171.527 335 110.5 335C49.4725 335 0 340.596 0 347.5C0 354.404 49.4725 360 110.5 360Z" fill="#EEEEEE"/>
<path d="M53.6699 338.42L56.6697 311.813L73.2899 313.192L68.2633 338.015L53.6699 338.42Z" fill="#FFBE9D"/>
<path d="M157.279 107.314C157.198 107.314 146.902 109.261 139.686 109.261L140.173 115.831L81.3127 108.693L77.259 108.206L52.126 105.124C52.126 105.124 64.4493 79.7338 101.987 76.4079C102.23 76.4079 114.634 77.7869 120.958 76.8135C137.659 74.2178 149.577 83.7897 152.415 78.1114C156.063 70.8108 140.821 63.5913 140.821 63.5913L146.334 52.8838C146.334 52.8838 166.846 57.183 174.791 69.4318C180.142 77.7869 185.655 99.202 157.279 107.314Z" fill="#2777FC"/>
<path d="M107.584 34.8807C107.584 34.8807 97.2064 33.2584 99.1522 50.6987C100.53 62.9475 105.152 65.7055 105.152 65.7055L106.368 55.3224L108.07 48.3463L111.557 38.6933L107.584 34.8807Z" fill="#1C2431"/>
<path d="M120.796 78.5994L119.498 66.5129L106.364 54.9941L101.986 76.8148C101.986 76.8959 116.499 89.8748 120.796 78.5994Z" fill="#FFBE9D"/>
<path d="M120.387 75.0288C112.037 74.8665 109.523 66.917 109.523 66.917L119.739 68.7827L120.387 75.0288Z" fill="#1C2431"/>
<path d="M133.036 50.2877C130.604 60.4274 128.253 74.8664 117.956 72.3517C106.687 69.5937 105.309 58.3183 105.795 50.0443C106.038 45.9073 109.606 39.2557 119.416 40.0668C131.577 41.1214 134.009 46.2318 133.036 50.2877Z" fill="#FFBE9D"/>
<path d="M108.065 54.1826C108.47 51.9925 106.362 50.0456 104.335 50.8568C103.687 51.1002 103.119 51.5869 102.714 52.3981C101.011 55.6428 103.2 58.8875 107.254 58.8875L108.065 54.1826Z" fill="#FFBE9D"/>
<path d="M107.583 34.8775C118.691 22.4665 136.365 33.8229 136.121 43.3137C135.959 49.3164 132.716 51.9933 132.716 51.9933C133.851 48.5053 131.338 47.1263 131.338 47.1263C127.69 56.0492 112.448 51.4255 112.448 51.4255C110.259 54.1024 110.421 56.4548 110.421 56.4548C106.935 55.3192 107.908 52.5611 105.881 51.4255C104.503 50.6954 103.124 51.4255 102.638 52.3178C101.827 54.1024 107.583 34.8775 107.583 34.8775Z" fill="#1C2431"/>
<path d="M120.146 54.2624C122.335 54.5057 124.281 54.1813 126.065 53.4512C130.281 51.5855 131.578 47.4485 131.659 47.2863L131.01 47.124C131.01 47.124 129.794 51.0988 125.822 52.8834C122.416 54.4246 117.957 53.8568 112.607 51.261L112.282 51.91C115.12 53.2078 117.795 54.019 120.146 54.2624Z" fill="#1C2431"/>
<path d="M116.662 339.312L117.797 312.543H134.58L131.255 338.825L116.662 339.312Z" fill="#FFBE9D"/>
<path d="M143.902 325.927C143.902 325.927 155.577 264.197 154.523 241.808C153.469 220.15 138.632 152.092 138.632 152.092L88.7715 150.632L112.283 250.893L108.067 324.711L143.902 325.927Z" fill="#334460"/>
<path d="M113.419 319.032L114.148 325.035L108.068 324.792L112.284 250.975L106.527 226.477L113.013 218.446L118.851 247L113.419 319.032Z" fill="#213049"/>
<path d="M129.068 159.555L126.311 169.452L125.744 171.642L83.8283 324.062L46.6152 322.846L76.2073 177.32L77.8288 169.208L80.261 157.284L129.068 159.555Z" fill="#334460"/>
<path d="M146.821 319.681C146.821 319.681 119.174 324.71 105.473 318.383L105.229 326.251C118.12 330.064 131.092 329.983 146.577 327.549L146.821 319.681Z" fill="#334460"/>
<path d="M83.0178 138.057C83.0178 137.895 84.8014 119.886 94.8546 106.989L94.125 106.34C83.8286 119.562 82.0449 137.814 82.0449 137.976L83.0178 138.057Z" fill="white"/>
<path d="M138.632 152.173L135.957 165.719C135.876 165.801 135.713 165.882 135.632 165.963C132.389 168.315 129.065 170.181 125.741 171.722C101.014 183.484 76.9347 176.184 76.9347 176.184L76.2861 177.319L77.9076 169.208C76.0429 168.721 74.1782 168.153 72.3945 167.504L72.7188 163.286L74.016 147.225L138.632 152.173Z" fill="#213049"/>
<path d="M143.579 161.583C140.984 163.205 138.309 164.584 135.633 165.882C132.553 167.261 129.472 168.478 126.31 169.451C110.419 174.318 93.718 173.669 77.8275 169.208C75.9628 168.721 74.0981 168.153 72.3145 167.504L72.6388 163.286L73.9359 147.225L75.9628 123.376L77.26 108.207L79.2868 85.5754C79.2868 85.5754 101.825 76.4902 101.988 76.4902C114.716 86.1432 120.959 76.8958 120.959 76.8958L139.201 103.989L143.579 161.583Z" fill="#2777FC"/>
<path d="M80.9883 120.7L73.8538 163.449L72.6377 163.206L75.9617 123.377L80.9883 120.7Z" fill="#1353BC"/>
<path d="M72.5565 167.018C73.2051 167.829 75.1508 170.343 76.1237 170.749C77.0156 171.073 81.9611 172.371 81.6368 173.345C81.2314 174.399 77.9885 172.858 77.9074 173.75C77.8263 174.318 84.069 177.482 83.1772 178.536C82.6097 179.185 79.0424 176.752 78.8803 177.238C78.7181 177.644 83.7447 179.753 82.8529 180.808C81.9611 181.862 77.5831 177.806 77.2588 178.293C77.0966 178.536 82.6908 182.024 81.9611 182.836C80.9882 183.971 77.0156 179.915 76.5291 180.321C76.2859 180.564 77.9885 181.7 78.8803 182.592C79.3667 183.079 79.1235 183.566 78.637 183.403C74.0158 182.187 69.2324 175.292 68.5838 174.886C67.5299 174.237 66.0705 173.669 65.0977 173.02L72.5565 167.018Z" fill="#FFBE9D"/>
<path d="M145.767 54.1001L141.876 61.644C140.822 60.914 139.443 60.0217 138.795 59.9406C137.822 59.8595 132.714 59.9406 132.795 58.8861C132.876 57.7504 136.363 58.3993 136.281 57.507C136.2 56.9392 129.309 55.5602 129.958 54.3435C130.363 53.5323 134.417 54.9113 134.498 54.4246C134.579 53.9379 129.147 53.2889 129.714 52.0722C130.282 50.7743 135.552 53.6134 135.795 52.9645C135.876 52.64 129.552 50.8554 130.039 49.882C130.687 48.5841 135.633 51.4232 135.957 50.7743C136.119 50.5309 134.174 49.8009 133.12 49.233C132.471 48.9086 132.633 48.3407 133.12 48.3407C137.903 48.2596 144.308 53.6945 145.119 53.9379C145.281 54.019 145.524 54.019 145.767 54.1001Z" fill="#FFBE9D"/>
<path d="M77.0973 168.721C77.0973 168.721 56.1802 137.409 80.7457 120.375L96.0687 81.6004V81.357C79.6917 80.7081 61.7743 90.0366 51.8022 103.746C35.1009 126.621 38.425 161.745 66.5577 179.185L77.0973 168.721Z" fill="#2777FC"/>
<path d="M139.769 102.289C139.769 102.289 160.199 107.075 175.684 95.3936L175.522 95.7991C172.36 100.423 166.604 104.56 157.281 107.237C157.2 107.237 146.903 109.184 139.688 109.184L139.769 102.289Z" fill="#1353BC"/>
<path d="M139.61 98.2725L138.801 98.3281L143.145 161.61L143.954 161.554L139.61 98.2725Z" fill="#1C2431"/>
<path d="M84.2316 324.223L83.4209 323.98L118.202 196.706L119.012 196.949L84.2316 324.223Z" fill="#1C2431"/>
<path d="M86.5032 319.115C86.5032 319.115 58.8569 324.145 45.1553 317.817L44.9121 325.686C57.8029 329.498 70.7748 329.417 86.2599 326.984L86.5032 319.115Z" fill="#334460"/>
<path d="M63.0717 321.465C55.694 321.465 50.4242 320.735 44.9922 318.22L45.3165 317.49C58.6937 323.736 86.1779 318.869 86.4211 318.788L86.5832 319.599C85.8536 319.68 74.4221 321.465 63.0717 321.465Z" fill="#1C2431"/>
<path d="M124.12 322.034C116.742 322.034 110.661 321.304 105.229 318.79L105.554 318.06C118.931 324.306 146.415 319.439 146.658 319.357L146.821 320.169C146.172 320.25 135.47 322.034 124.12 322.034Z" fill="#1C2431"/>
<path d="M51.7181 349.289H89.9851C91.2823 349.289 92.4174 348.154 92.2552 346.856C92.2552 346.856 92.2552 346.856 92.2552 346.775C92.2552 346.45 92.1741 346.207 92.1741 345.882C92.012 344.828 91.7688 343.854 91.2823 343.206C89.4987 340.772 85.9314 339.717 79.6887 337.203C75.7161 335.662 72.392 333.553 70.9327 332.579C70.4463 332.255 69.7977 332.336 69.3923 332.741C61.8524 340.123 57.1501 338.582 55.7718 335.499C54.7179 333.147 53.1775 333.634 52.7721 334.364C51.4749 336.473 50.8263 342.719 50.502 345.882C50.502 346.207 50.4209 346.531 50.4209 346.775C50.3399 347.343 50.3399 347.748 50.3399 347.748C50.2588 348.559 50.9074 349.289 51.7181 349.289Z" fill="#13426E"/>
<path d="M77.503 341.257C80.2595 339.959 79.8541 337.12 79.8541 337.12L79.2055 337.201C79.2055 337.282 79.5298 339.554 77.2598 340.689L77.503 341.257Z" fill="#1C2431"/>
<path d="M80.9083 342.394C83.4216 341.015 83.1784 338.581 83.0973 338.419L82.4487 338.5C82.4487 338.581 82.6919 340.609 80.584 341.826L80.9083 342.394Z" fill="#1C2431"/>
<path d="M59.2609 340.69C61.8553 340.69 64.1253 339.555 64.2064 339.474L63.8821 338.906C63.801 338.906 58.0448 341.826 55.045 338.176L54.5586 338.581C55.8558 340.204 57.6394 340.69 59.2609 340.69Z" fill="#1C2431"/>
<path d="M114.071 349.289H152.338C153.635 349.289 154.77 348.154 154.608 346.856C154.608 346.856 154.608 346.856 154.608 346.775C154.608 346.45 154.527 346.207 154.527 345.882C154.365 344.828 154.121 343.854 153.635 343.206C151.851 340.772 148.284 339.717 142.041 337.203C138.069 335.662 134.745 333.553 133.285 332.579C132.799 332.255 132.15 332.336 131.745 332.741C124.205 340.123 119.503 338.582 118.124 335.499C117.07 333.147 115.53 333.634 115.125 334.364C113.827 336.473 113.179 342.719 112.855 345.882C112.855 346.207 112.773 346.531 112.773 346.775C112.692 347.343 112.692 347.748 112.692 347.748C112.611 348.559 113.26 349.289 114.071 349.289Z" fill="#13426E"/>
<path d="M139.849 341.257C142.605 339.959 142.2 337.12 142.2 337.12L141.551 337.201C141.551 337.282 141.876 339.554 139.605 340.689L139.849 341.257Z" fill="#1C2431"/>
<path d="M143.254 342.394C145.767 341.015 145.524 338.581 145.443 338.419L144.794 338.5C144.794 338.581 145.038 340.609 142.93 341.826L143.254 342.394Z" fill="#1C2431"/>
<path d="M121.608 340.69C124.202 340.69 126.472 339.555 126.553 339.474L126.229 338.906C126.148 338.906 120.391 341.826 117.392 338.176L116.905 338.581C118.202 340.204 119.986 340.69 121.608 340.69Z" fill="#1C2431"/>
<path d="M113.176 84.2782C106.771 84.2782 100.934 78.9245 100.609 78.6811L101.177 78.1133C101.258 78.1944 107.906 84.1971 114.392 83.3859C117.311 83.0615 119.743 81.358 121.689 78.4377L122.337 78.9245C120.229 82.0881 117.635 83.8726 114.473 84.1971C114.068 84.2782 113.581 84.2782 113.176 84.2782Z" fill="#1C2431"/>
<path d="M85.6101 92.7961C84.5562 84.6033 78.7188 83.2243 78.4756 83.2243L78.6377 82.4131C78.7188 82.4131 85.2858 83.9543 86.4209 92.715L85.6101 92.7961Z" fill="#1C2431"/>
<path d="M44.9918 140.33C44.9108 140.168 40.6949 122.241 53.6668 106.585L54.3154 107.072C41.6678 122.484 45.8026 139.924 45.8026 140.168L44.9918 140.33Z" fill="#1C2431"/>
<path d="M76.3683 124.756L75.7197 124.269C75.9629 123.944 80.9085 116.968 88.2052 116.4L88.2862 117.212C81.3138 117.698 76.3683 124.674 76.3683 124.756Z" fill="#1C2431"/>
<path d="M103.041 167.262C94.4468 167.262 88.5284 166.127 88.3662 166.127L88.5284 165.315C88.7716 165.397 115.121 170.426 137.092 158.988L137.497 159.718C125.741 165.802 112.688 167.262 103.041 167.262Z" fill="#1C2431"/>
<path d="M151.524 81.52C148.119 81.52 146.335 80.4655 146.173 80.3844L146.578 79.6543C146.578 79.6543 150.145 81.7634 156.712 79.8977L156.956 80.7088C154.848 81.3578 153.064 81.52 151.524 81.52Z" fill="#1C2431"/>
<path d="M85.7727 258.842C85.6916 258.842 85.6916 258.842 85.7727 258.842V258.031C85.8538 258.031 95.8259 258.193 102.555 248.297L103.204 248.784C96.4745 258.599 86.5835 258.842 85.7727 258.842Z" fill="#1C2431"/>
<path d="M142.93 255.518L142.687 254.707C142.768 254.707 150.875 252.192 154.28 245.216L155.01 245.54C151.443 252.922 143.335 255.437 142.93 255.518Z" fill="#1C2431"/>
<path d="M113.095 159.474L113.014 158.662C113.176 158.662 127.607 157.689 135.877 148.279L136.444 148.847C127.931 158.5 113.176 159.474 113.095 159.474Z" fill="#1C2431"/>
<g opacity="0.67">
<path d="M12.2381 63.9173C14.0739 63.9173 15.5621 62.4283 15.5621 60.5915C15.5621 58.7546 14.0739 57.2656 12.2381 57.2656C10.4023 57.2656 8.91406 58.7546 8.91406 60.5915C8.91406 62.4283 10.4023 63.9173 12.2381 63.9173Z" fill="#2777FC"/>
</g>
<g opacity="0.53">
<path d="M29.5878 13.9482C27.561 13.9482 25.8584 12.2447 25.8584 10.2168C25.8584 8.18883 27.561 6.48535 29.5878 6.48535C31.6147 6.48535 33.3172 8.18883 33.3172 10.2168C33.3172 12.2447 31.6957 13.9482 29.5878 13.9482ZM29.5878 7.37765C27.9663 7.37765 26.6691 8.67553 26.6691 10.2979C26.6691 11.9202 27.9663 13.2181 29.5878 13.2181C31.2093 13.2181 32.5065 11.9202 32.5065 10.2979C32.5065 8.67553 31.2093 7.37765 29.5878 7.37765Z" fill="#C3A200"/>
</g>
<g opacity="0.53">
<path d="M167.091 6.64873C168.926 6.64873 170.415 5.1597 170.415 3.3229C170.415 1.4861 168.926 -0.00292969 167.091 -0.00292969C165.255 -0.00292969 163.767 1.4861 163.767 3.3229C163.767 5.1597 165.255 6.64873 167.091 6.64873Z" fill="#C3A200"/>
</g>
<g opacity="0.67">
<path d="M202.519 155.418C204.355 155.418 205.843 153.929 205.843 152.092C205.843 150.256 204.355 148.767 202.519 148.767C200.684 148.767 199.195 150.256 199.195 152.092C199.195 153.929 200.684 155.418 202.519 155.418Z" fill="#2777FC"/>
</g>
<g opacity="0.53">
<path d="M176.414 133.192C174.387 133.192 172.685 131.489 172.685 129.461C172.685 127.433 174.387 125.729 176.414 125.729C178.441 125.729 180.143 127.433 180.143 129.461C180.143 131.57 178.441 133.192 176.414 133.192ZM176.414 126.622C174.792 126.622 173.495 127.92 173.495 129.542C173.495 131.164 174.792 132.462 176.414 132.462C178.035 132.462 179.333 131.164 179.333 129.542C179.333 127.92 178.035 126.622 176.414 126.622Z" fill="#C3A200"/>
</g>
<g clip-path="url(#clip0_2628_5621)">
<path d="M194.382 13.1435C198.077 7.24008 205.242 4.16555 212.226 6.03671C216.752 7.24951 220.266 10.3013 222.275 14.1811C225.956 11.8259 230.557 10.9485 235.051 12.1527C242.066 14.0325 246.702 20.2689 246.951 27.2292C246.999 28.86 246.835 30.5045 246.396 32.1453C244.057 40.8742 229.907 52.9453 211.363 54.9053C196.284 43.936 190.066 26.4074 192.404 17.6784C192.844 16.0376 193.525 14.5318 194.382 13.1435Z" fill="#FFE00B"/>
</g>
<defs>
<clipPath id="clip0_2628_5621">
<rect width="55.8957" height="47.4267" fill="white" transform="matrix(-0.965926 -0.258819 -0.258819 0.965926 250.634 16.3281)"/>
</clipPath>
</defs>
</svg>
