<svg width="227" height="368" viewBox="0 0 227 368" fill="none" xmlns="http://www.w3.org/2000/svg">
<path d="M110.5 368C171.527 368 221 362.404 221 355.5C221 348.596 171.527 343 110.5 343C49.4725 343 0 348.596 0 355.5C0 362.404 49.4725 368 110.5 368Z" fill="#EEEEEE"/>
<path d="M53.6699 346.42L56.6697 319.813L73.2899 321.192L68.2633 346.015L53.6699 346.42Z" fill="#FFBE9D"/>
<path d="M157.279 115.314C157.198 115.314 146.902 117.261 139.686 117.261L140.173 123.831L81.3127 116.693L77.259 116.206L52.126 113.124C52.126 113.124 64.4493 87.7338 101.987 84.4079C102.23 84.4079 114.634 85.7869 120.958 84.8135C137.659 82.2178 149.577 91.7897 152.415 86.1114C156.063 78.8108 140.821 71.5913 140.821 71.5913L146.334 60.8838C146.334 60.8838 166.846 65.183 174.791 77.4318C180.142 85.7869 185.655 107.202 157.279 115.314Z" fill="#2777FC"/>
<path d="M107.584 42.8817C107.584 42.8817 97.2064 41.2594 99.1522 58.6997C100.53 70.9485 105.152 73.7065 105.152 73.7065L106.368 63.3234L108.07 56.3473L111.557 46.6942L107.584 42.8817Z" fill="#1C2431"/>
<path d="M120.796 86.6004L119.498 74.5138L106.364 62.9951L101.986 84.8158C101.986 84.8969 116.499 97.8757 120.796 86.6004Z" fill="#FFBE9D"/>
<path d="M120.387 83.0288C112.037 82.8665 109.523 74.917 109.523 74.917L119.739 76.7827L120.387 83.0288Z" fill="#1C2431"/>
<path d="M133.036 58.2877C130.604 68.4274 128.253 82.8664 117.956 80.3517C106.687 77.5937 105.309 66.3183 105.795 58.0443C106.038 53.9073 109.606 47.2557 119.416 48.0668C131.577 49.1214 134.009 54.2318 133.036 58.2877Z" fill="#FFBE9D"/>
<path d="M108.065 62.1826C108.47 59.9925 106.362 58.0456 104.335 58.8568C103.687 59.1002 103.119 59.5869 102.714 60.3981C101.011 63.6428 103.2 66.8875 107.254 66.8875L108.065 62.1826Z" fill="#FFBE9D"/>
<path d="M107.583 42.8785C118.691 30.4674 136.365 41.8239 136.121 51.3147C135.959 57.3174 132.716 59.9943 132.716 59.9943C133.851 56.5062 131.338 55.1272 131.338 55.1272C127.69 64.0502 112.448 59.4265 112.448 59.4265C110.259 62.1034 110.421 64.4558 110.421 64.4558C106.935 63.3201 107.908 60.5621 105.881 59.4265C104.503 58.6964 103.124 59.4265 102.638 60.3188C101.827 62.1034 107.583 42.8785 107.583 42.8785Z" fill="#1C2431"/>
<path d="M120.146 62.2624C122.335 62.5057 124.281 62.1813 126.065 61.4512C130.281 59.5855 131.578 55.4485 131.659 55.2863L131.01 55.124C131.01 55.124 129.794 59.0988 125.822 60.8834C122.416 62.4246 117.957 61.8568 112.607 59.261L112.282 59.91C115.12 61.2079 117.795 62.019 120.146 62.2624Z" fill="#1C2431"/>
<path d="M116.662 347.312L117.797 320.543H134.58L131.255 346.825L116.662 347.312Z" fill="#FFBE9D"/>
<path d="M143.902 333.927C143.902 333.927 155.577 272.197 154.523 249.808C153.469 228.15 138.632 160.092 138.632 160.092L88.7715 158.632L112.283 258.893L108.067 332.711L143.902 333.927Z" fill="#334460"/>
<path d="M113.419 327.033L114.148 333.036L108.068 332.793L112.284 258.975L106.527 234.478L113.013 226.447L118.851 255.001L113.419 327.033Z" fill="#213049"/>
<path d="M129.068 167.556L126.311 177.453L125.744 179.643L83.8283 332.063L46.6152 330.846L76.2073 185.321L77.8288 177.209L80.261 165.285L129.068 167.556Z" fill="#334460"/>
<path d="M146.821 327.682C146.821 327.682 119.174 332.711 105.473 326.384L105.229 334.252C118.12 338.065 131.092 337.984 146.577 335.55L146.821 327.682Z" fill="#334460"/>
<path d="M83.0178 146.057C83.0178 145.895 84.8014 127.886 94.8546 114.989L94.125 114.34C83.8286 127.562 82.0449 145.814 82.0449 145.976L83.0178 146.057Z" fill="white"/>
<path d="M138.632 160.173L135.957 173.719C135.876 173.801 135.713 173.882 135.632 173.963C132.389 176.315 129.065 178.181 125.741 179.722C101.014 191.484 76.9347 184.184 76.9347 184.184L76.2861 185.319L77.9076 177.208C76.0429 176.721 74.1782 176.153 72.3945 175.504L72.7188 171.286L74.016 155.225L138.632 160.173Z" fill="#213049"/>
<path d="M143.579 169.583C140.984 171.205 138.309 172.584 135.633 173.882C132.553 175.261 129.472 176.478 126.31 177.451C110.419 182.318 93.718 181.669 77.8275 177.208C75.9628 176.721 74.0981 176.153 72.3145 175.504L72.6388 171.286L73.9359 155.225L75.9628 131.376L77.26 116.207L79.2868 93.5754C79.2868 93.5754 101.825 84.4902 101.988 84.4902C114.716 94.1432 120.959 84.8958 120.959 84.8958L139.201 111.989L143.579 169.583Z" fill="#2777FC"/>
<path d="M80.9883 128.7L73.8538 171.449L72.6377 171.206L75.9617 131.377L80.9883 128.7Z" fill="#1353BC"/>
<path d="M72.5565 175.018C73.2051 175.829 75.1508 178.343 76.1237 178.749C77.0156 179.073 81.9611 180.371 81.6368 181.345C81.2314 182.399 77.9885 180.858 77.9074 181.75C77.8263 182.318 84.069 185.482 83.1772 186.536C82.6097 187.185 79.0424 184.752 78.8803 185.238C78.7181 185.644 83.7447 187.753 82.8529 188.808C81.9611 189.862 77.5831 185.806 77.2588 186.293C77.0966 186.536 82.6908 190.024 81.9611 190.836C80.9882 191.971 77.0156 187.915 76.5291 188.321C76.2859 188.564 77.9884 189.7 78.8803 190.592C79.3667 191.079 79.1235 191.566 78.637 191.403C74.0158 190.187 69.2324 183.292 68.5838 182.886C67.5299 182.237 66.0705 181.669 65.0977 181.02L72.5565 175.018Z" fill="#FFBE9D"/>
<path d="M145.767 62.1001L141.876 69.644C140.822 68.914 139.443 68.0217 138.795 67.9406C137.822 67.8595 132.714 67.9406 132.795 66.8861C132.876 65.7504 136.363 66.3993 136.281 65.507C136.2 64.9392 129.309 63.5602 129.958 62.3435C130.363 61.5323 134.417 62.9113 134.498 62.4246C134.579 61.9379 129.147 61.2889 129.714 60.0722C130.282 58.7743 135.552 61.6134 135.795 60.9645C135.876 60.64 129.552 58.8554 130.039 57.882C130.687 56.5841 135.633 59.4232 135.957 58.7743C136.119 58.5309 134.174 57.8009 133.12 57.233C132.471 56.9086 132.633 56.3407 133.12 56.3407C137.903 56.2596 144.308 61.6945 145.119 61.9379C145.281 62.019 145.524 62.019 145.767 62.1001Z" fill="#FFBE9D"/>
<path d="M77.0973 176.721C77.0973 176.721 56.1802 145.409 80.7457 128.375L96.0687 89.6004V89.357C79.6917 88.7081 61.7743 98.0366 51.8022 111.746C35.1009 134.621 38.425 169.745 66.5577 187.185L77.0973 176.721Z" fill="#2777FC"/>
<path d="M139.769 110.289C139.769 110.289 160.199 115.075 175.684 103.394L175.522 103.799C172.36 108.423 166.604 112.56 157.281 115.237C157.2 115.237 146.903 117.184 139.688 117.184L139.769 110.289Z" fill="#1353BC"/>
<path d="M139.61 106.273L138.801 106.328L143.145 169.61L143.954 169.554L139.61 106.273Z" fill="#1C2431"/>
<path d="M84.2316 332.224L83.4209 331.981L118.202 204.707L119.012 204.95L84.2316 332.224Z" fill="#1C2431"/>
<path d="M86.5032 327.115C86.5032 327.115 58.8569 332.145 45.1553 325.817L44.9121 333.686C57.8029 337.498 70.7748 337.417 86.2599 334.984L86.5032 327.115Z" fill="#334460"/>
<path d="M63.0717 329.465C55.694 329.465 50.4242 328.735 44.9922 326.22L45.3165 325.49C58.6937 331.736 86.1779 326.869 86.4211 326.788L86.5832 327.599C85.8536 327.68 74.4221 329.465 63.0717 329.465Z" fill="#1C2431"/>
<path d="M124.12 330.034C116.742 330.034 110.661 329.304 105.229 326.79L105.554 326.06C118.931 332.306 146.415 327.439 146.658 327.357L146.821 328.169C146.172 328.25 135.47 330.034 124.12 330.034Z" fill="#1C2431"/>
<path d="M51.7181 357.289H89.9851C91.2823 357.289 92.4174 356.154 92.2552 354.856C92.2552 354.856 92.2552 354.856 92.2552 354.775C92.2552 354.45 92.1741 354.207 92.1741 353.882C92.012 352.828 91.7688 351.854 91.2823 351.206C89.4987 348.772 85.9314 347.717 79.6887 345.203C75.7161 343.662 72.392 341.553 70.9327 340.579C70.4463 340.255 69.7977 340.336 69.3923 340.741C61.8524 348.123 57.1501 346.582 55.7718 343.499C54.7179 341.147 53.1775 341.634 52.7721 342.364C51.4749 344.473 50.8263 350.719 50.502 353.882C50.502 354.207 50.4209 354.531 50.4209 354.775C50.3399 355.343 50.3399 355.748 50.3399 355.748C50.2588 356.559 50.9074 357.289 51.7181 357.289Z" fill="#13426E"/>
<path d="M77.503 349.257C80.2595 347.959 79.8541 345.12 79.8541 345.12L79.2055 345.201C79.2055 345.282 79.5298 347.554 77.2598 348.689L77.503 349.257Z" fill="#1C2431"/>
<path d="M80.9083 350.394C83.4216 349.015 83.1784 346.581 83.0973 346.419L82.4487 346.5C82.4487 346.581 82.6919 348.609 80.584 349.826L80.9083 350.394Z" fill="#1C2431"/>
<path d="M59.2609 348.69C61.8553 348.69 64.1253 347.555 64.2064 347.474L63.8821 346.906C63.801 346.906 58.0448 349.826 55.045 346.176L54.5586 346.581C55.8558 348.204 57.6394 348.69 59.2609 348.69Z" fill="#1C2431"/>
<path d="M114.071 357.289H152.338C153.635 357.289 154.77 356.154 154.608 354.856C154.608 354.856 154.608 354.856 154.608 354.775C154.608 354.45 154.527 354.207 154.527 353.882C154.365 352.828 154.121 351.854 153.635 351.206C151.851 348.772 148.284 347.717 142.041 345.203C138.069 343.662 134.745 341.553 133.285 340.579C132.799 340.255 132.15 340.336 131.745 340.741C124.205 348.123 119.503 346.582 118.124 343.499C117.07 341.147 115.53 341.634 115.125 342.364C113.827 344.473 113.179 350.719 112.855 353.882C112.855 354.207 112.773 354.531 112.773 354.775C112.692 355.343 112.692 355.748 112.692 355.748C112.611 356.559 113.26 357.289 114.071 357.289Z" fill="#13426E"/>
<path d="M139.849 349.257C142.605 347.959 142.2 345.12 142.2 345.12L141.551 345.201C141.551 345.282 141.876 347.554 139.605 348.689L139.849 349.257Z" fill="#1C2431"/>
<path d="M143.254 350.394C145.767 349.015 145.524 346.581 145.443 346.419L144.794 346.5C144.794 346.581 145.038 348.609 142.93 349.826L143.254 350.394Z" fill="#1C2431"/>
<path d="M121.608 348.69C124.202 348.69 126.472 347.555 126.553 347.474L126.229 346.906C126.148 346.906 120.391 349.826 117.392 346.176L116.905 346.581C118.202 348.204 119.986 348.69 121.608 348.69Z" fill="#1C2431"/>
<path d="M113.176 92.2782C106.771 92.2782 100.934 86.9245 100.609 86.6811L101.177 86.1133C101.258 86.1944 107.906 92.1971 114.392 91.3859C117.311 91.0615 119.743 89.358 121.689 86.4377L122.337 86.9245C120.229 90.0881 117.635 91.8726 114.473 92.1971C114.068 92.2782 113.581 92.2782 113.176 92.2782Z" fill="#1C2431"/>
<path d="M85.6101 100.796C84.5562 92.6033 78.7188 91.2243 78.4756 91.2243L78.6377 90.4131C78.7188 90.4131 85.2858 91.9543 86.4209 100.715L85.6101 100.796Z" fill="#1C2431"/>
<path d="M44.9918 148.331C44.9108 148.169 40.6949 130.242 53.6668 114.586L54.3154 115.073C41.6678 130.485 45.8026 147.925 45.8026 148.169L44.9918 148.331Z" fill="#1C2431"/>
<path d="M76.3683 132.756L75.7197 132.269C75.9629 131.944 80.9085 124.968 88.2052 124.4L88.2862 125.212C81.3138 125.698 76.3683 132.674 76.3683 132.756Z" fill="#1C2431"/>
<path d="M103.041 175.262C94.4468 175.262 88.5284 174.127 88.3662 174.127L88.5284 173.315C88.7716 173.397 115.121 178.426 137.092 166.988L137.497 167.718C125.741 173.802 112.688 175.262 103.041 175.262Z" fill="#1C2431"/>
<path d="M151.524 89.52C148.119 89.52 146.335 88.4655 146.173 88.3844L146.578 87.6543C146.578 87.6543 150.145 89.7634 156.712 87.8977L156.956 88.7088C154.848 89.3578 153.064 89.52 151.524 89.52Z" fill="#1C2431"/>
<path d="M85.7727 266.843C85.6916 266.843 85.6916 266.843 85.7727 266.843V266.032C85.8538 266.032 95.8259 266.194 102.555 256.298L103.204 256.785C96.4745 266.6 86.5835 266.843 85.7727 266.843Z" fill="#1C2431"/>
<path d="M142.93 263.518L142.687 262.707C142.768 262.707 150.875 260.192 154.28 253.216L155.01 253.54C151.443 260.922 143.335 263.437 142.93 263.518Z" fill="#1C2431"/>
<path d="M113.095 167.475L113.014 166.663C113.176 166.663 127.607 165.69 135.877 156.28L136.444 156.848C127.931 166.501 113.176 167.475 113.095 167.475Z" fill="#1C2431"/>
<g opacity="0.67">
<path d="M12.2381 71.9173C14.0739 71.9173 15.5621 70.4283 15.5621 68.5915C15.5621 66.7546 14.0739 65.2656 12.2381 65.2656C10.4023 65.2656 8.91406 66.7546 8.91406 68.5915C8.91406 70.4283 10.4023 71.9173 12.2381 71.9173Z" fill="#2777FC"/>
</g>
<g opacity="0.53">
<path d="M29.5878 21.9482C27.561 21.9482 25.8584 20.2447 25.8584 18.2168C25.8584 16.1888 27.561 14.4854 29.5878 14.4854C31.6147 14.4854 33.3172 16.1888 33.3172 18.2168C33.3172 20.2447 31.6957 21.9482 29.5878 21.9482ZM29.5878 15.3776C27.9663 15.3776 26.6691 16.6755 26.6691 18.2979C26.6691 19.9202 27.9663 21.2181 29.5878 21.2181C31.2093 21.2181 32.5065 19.9202 32.5065 18.2979C32.5065 16.6755 31.2093 15.3776 29.5878 15.3776Z" fill="#C3A200"/>
</g>
<g opacity="0.53">
<path d="M167.091 14.6487C168.926 14.6487 170.415 13.1597 170.415 11.3229C170.415 9.4861 168.926 7.99707 167.091 7.99707C165.255 7.99707 163.767 9.4861 163.767 11.3229C163.767 13.1597 165.255 14.6487 167.091 14.6487Z" fill="#C3A200"/>
</g>
<g opacity="0.67">
<path d="M202.519 163.418C204.355 163.418 205.843 161.929 205.843 160.092C205.843 158.256 204.355 156.767 202.519 156.767C200.684 156.767 199.195 158.256 199.195 160.092C199.195 161.929 200.684 163.418 202.519 163.418Z" fill="#2777FC"/>
</g>
<g opacity="0.53">
<path d="M176.414 141.193C174.387 141.193 172.685 139.49 172.685 137.462C172.685 135.434 174.387 133.73 176.414 133.73C178.441 133.73 180.143 135.434 180.143 137.462C180.143 139.571 178.441 141.193 176.414 141.193ZM176.414 134.623C174.792 134.623 173.495 135.921 173.495 137.543C173.495 139.165 174.792 140.463 176.414 140.463C178.035 140.463 179.333 139.165 179.333 137.543C179.333 135.921 178.035 134.623 176.414 134.623Z" fill="#C3A200"/>
</g>
<path d="M225.569 58.5659L223.672 50.5067C223.193 48.3882 223.193 46.1893 223.672 44.0707L226.309 32.5942C227.388 27.7002 226.804 22.5859 224.649 18.0618C222.494 13.5377 218.891 9.86268 214.412 7.61931C214.496 7.40815 214.569 7.1927 214.63 6.97383C214.786 6.27761 214.803 5.55752 214.681 4.85467C214.558 4.15182 214.299 3.47998 213.917 2.87749C213.535 2.27501 213.038 1.75369 212.455 1.3433C211.872 0.932906 211.213 0.641478 210.517 0.485656C209.822 0.329833 209.102 0.312665 208.399 0.435134C207.697 0.557603 207.026 0.817322 206.423 1.19944C205.821 1.58155 205.3 2.07859 204.89 2.66218C204.48 3.24577 204.189 3.90447 204.033 4.60069C203.986 4.82259 203.957 5.04803 203.947 5.27466C198.94 5.3922 194.115 7.1776 190.237 10.3481C186.358 13.5187 183.648 17.8932 182.534 22.7789L179.963 34.2649C179.491 36.3797 178.551 38.3616 177.212 40.0649L172.098 46.5673C171.598 47.2051 171.267 47.9592 171.137 48.7594C171.006 49.5596 171.081 50.3797 171.352 51.1435C171.624 51.9072 172.085 52.5897 172.691 53.1274C173.298 53.665 174.03 54.0403 174.821 54.2183L219.886 64.3184C220.674 64.4887 221.492 64.4574 222.265 64.2275C223.037 63.9975 223.739 63.5763 224.306 63.0027C224.872 62.4292 225.285 61.7219 225.506 60.9464C225.727 60.1708 225.749 59.3521 225.569 58.5659Z" fill="#FFE00B"/>
<path d="M191.538 61.053C191.195 60.9774 190.839 60.9875 190.501 61.0825C190.163 61.1774 189.854 61.3543 189.6 61.5974C189.347 61.8406 189.158 62.1424 189.049 62.4763C188.94 62.8102 188.915 63.1658 188.976 63.5116C189.235 65.0369 189.942 66.4506 191.006 67.5727C192.071 68.6948 193.445 69.4746 194.954 69.8125C196.463 70.1505 198.038 70.0315 199.479 69.4707C200.92 68.9098 202.162 67.9325 203.046 66.6632C203.248 66.3771 203.377 66.0457 203.42 65.6982C203.464 65.3507 203.422 64.9977 203.297 64.6704C203.173 64.3431 202.969 64.0515 202.705 63.8213C202.442 63.5911 202.125 63.4293 201.784 63.3503L191.538 61.053Z" fill="#FFE00B"/>
</svg>
