<svg width="256" height="367" viewBox="0 0 256 367" fill="none" xmlns="http://www.w3.org/2000/svg">
<path d="M110.5 367C171.527 367 221 361.404 221 354.5C221 347.596 171.527 342 110.5 342C49.4725 342 0 347.596 0 354.5C0 361.404 49.4725 367 110.5 367Z" fill="#EEEEEE"/>
<path d="M53.6699 345.419L56.6697 318.812L73.2899 320.192L68.2633 345.014L53.6699 345.419Z" fill="#FFBE9D"/>
<path d="M157.279 114.314C157.198 114.314 146.902 116.261 139.686 116.261L140.173 122.831L81.3127 115.693L77.259 115.206L52.126 112.124C52.126 112.124 64.4493 86.7338 101.987 83.4079C102.23 83.4079 114.634 84.7869 120.958 83.8135C137.659 81.2178 149.577 90.7897 152.415 85.1114C156.063 77.8108 140.821 70.5913 140.821 70.5913L146.334 59.8838C146.334 59.8838 166.846 64.183 174.791 76.4318C180.142 84.7869 185.655 106.202 157.279 114.314Z" fill="#2777FC"/>
<path d="M107.584 41.8807C107.584 41.8807 97.2064 40.2584 99.1522 57.6987C100.53 69.9475 105.152 72.7055 105.152 72.7055L106.368 62.3224L108.07 55.3463L111.557 45.6933L107.584 41.8807Z" fill="#1C2431"/>
<path d="M120.796 85.5994L119.498 73.5129L106.364 61.9941L101.986 83.8148C101.986 83.8959 116.499 96.8748 120.796 85.5994Z" fill="#FFBE9D"/>
<path d="M120.387 82.0288C112.037 81.8665 109.523 73.917 109.523 73.917L119.739 75.7827L120.387 82.0288Z" fill="#1C2431"/>
<path d="M133.036 57.2877C130.604 67.4274 128.253 81.8664 117.956 79.3517C106.687 76.5937 105.309 65.3183 105.795 57.0443C106.038 52.9073 109.606 46.2557 119.416 47.0668C131.577 48.1214 134.009 53.2318 133.036 57.2877Z" fill="#FFBE9D"/>
<path d="M108.065 61.1826C108.47 58.9925 106.362 57.0456 104.335 57.8568C103.687 58.1002 103.119 58.5869 102.714 59.3981C101.011 62.6428 103.2 65.8875 107.254 65.8875L108.065 61.1826Z" fill="#FFBE9D"/>
<path d="M107.583 41.8775C118.691 29.4665 136.365 40.8229 136.121 50.3137C135.959 56.3164 132.716 58.9933 132.716 58.9933C133.851 55.5053 131.338 54.1263 131.338 54.1263C127.69 63.0492 112.448 58.4255 112.448 58.4255C110.259 61.1024 110.421 63.4548 110.421 63.4548C106.935 62.3192 107.908 59.5611 105.881 58.4255C104.503 57.6954 103.124 58.4255 102.638 59.3178C101.827 61.1024 107.583 41.8775 107.583 41.8775Z" fill="#1C2431"/>
<path d="M120.146 61.2624C122.335 61.5057 124.281 61.1813 126.065 60.4512C130.281 58.5855 131.578 54.4485 131.659 54.2863L131.01 54.124C131.01 54.124 129.794 58.0988 125.822 59.8834C122.416 61.4246 117.957 60.8568 112.607 58.261L112.282 58.91C115.12 60.2078 117.795 61.019 120.146 61.2624Z" fill="#1C2431"/>
<path d="M116.662 346.312L117.797 319.543H134.58L131.255 345.825L116.662 346.312Z" fill="#FFBE9D"/>
<path d="M143.902 332.927C143.902 332.927 155.577 271.197 154.523 248.808C153.469 227.15 138.632 159.092 138.632 159.092L88.7715 157.632L112.283 257.893L108.067 331.711L143.902 332.927Z" fill="#334460"/>
<path d="M113.419 326.032L114.148 332.035L108.068 331.792L112.284 257.975L106.527 233.477L113.013 225.446L118.851 254L113.419 326.032Z" fill="#213049"/>
<path d="M129.068 166.555L126.311 176.452L125.744 178.642L83.8283 331.062L46.6152 329.846L76.2073 184.32L77.8288 176.208L80.261 164.284L129.068 166.555Z" fill="#334460"/>
<path d="M146.821 326.681C146.821 326.681 119.174 331.71 105.473 325.383L105.229 333.251C118.12 337.064 131.092 336.983 146.577 334.549L146.821 326.681Z" fill="#334460"/>
<path d="M83.0178 145.056C83.0178 144.894 84.8014 126.886 94.8546 113.988L94.125 113.339C83.8286 126.561 82.0449 144.813 82.0449 144.975L83.0178 145.056Z" fill="white"/>
<path d="M138.632 159.173L135.957 172.719C135.876 172.801 135.713 172.882 135.632 172.963C132.389 175.315 129.065 177.181 125.741 178.722C101.014 190.484 76.9347 183.184 76.9347 183.184L76.2861 184.319L77.9076 176.208C76.0429 175.721 74.1782 175.153 72.3945 174.504L72.7188 170.286L74.016 154.225L138.632 159.173Z" fill="#213049"/>
<path d="M143.579 168.583C140.984 170.205 138.309 171.584 135.633 172.882C132.553 174.261 129.472 175.478 126.31 176.451C110.419 181.318 93.718 180.669 77.8275 176.208C75.9628 175.721 74.0981 175.153 72.3145 174.504L72.6388 170.286L73.9359 154.225L75.9628 130.376L77.26 115.207L79.2868 92.5754C79.2868 92.5754 101.825 83.4902 101.988 83.4902C114.716 93.1432 120.959 83.8958 120.959 83.8958L139.201 110.989L143.579 168.583Z" fill="#2777FC"/>
<path d="M80.9883 127.7L73.8538 170.449L72.6377 170.206L75.9617 130.377L80.9883 127.7Z" fill="#1353BC"/>
<path d="M72.5565 174.018C73.2051 174.829 75.1508 177.343 76.1237 177.749C77.0156 178.073 81.9611 179.371 81.6368 180.345C81.2314 181.399 77.9885 179.858 77.9074 180.75C77.8263 181.318 84.069 184.482 83.1772 185.536C82.6097 186.185 79.0424 183.752 78.8803 184.238C78.7181 184.644 83.7447 186.753 82.8529 187.808C81.9611 188.862 77.5831 184.806 77.2588 185.293C77.0966 185.536 82.6908 189.024 81.9611 189.836C80.9882 190.971 77.0156 186.915 76.5291 187.321C76.2859 187.564 77.9885 188.7 78.8803 189.592C79.3667 190.079 79.1235 190.566 78.637 190.403C74.0158 189.187 69.2324 182.292 68.5838 181.886C67.5299 181.237 66.0705 180.669 65.0977 180.02L72.5565 174.018Z" fill="#FFBE9D"/>
<path d="M145.767 61.1001L141.876 68.644C140.822 67.914 139.443 67.0217 138.795 66.9406C137.822 66.8595 132.714 66.9406 132.795 65.8861C132.876 64.7504 136.363 65.3993 136.281 64.507C136.2 63.9392 129.309 62.5602 129.958 61.3435C130.363 60.5323 134.417 61.9113 134.498 61.4246C134.579 60.9379 129.147 60.2889 129.714 59.0722C130.282 57.7743 135.552 60.6134 135.795 59.9645C135.876 59.64 129.552 57.8554 130.039 56.882C130.687 55.5841 135.633 58.4232 135.957 57.7743C136.119 57.5309 134.174 56.8009 133.12 56.233C132.471 55.9086 132.633 55.3407 133.12 55.3407C137.903 55.2596 144.308 60.6945 145.119 60.9379C145.281 61.019 145.524 61.019 145.767 61.1001Z" fill="#FFBE9D"/>
<path d="M77.0973 175.721C77.0973 175.721 56.1802 144.409 80.7457 127.375L96.0687 88.6004V88.357C79.6917 87.7081 61.7743 97.0366 51.8022 110.746C35.1009 133.621 38.425 168.745 66.5577 186.185L77.0973 175.721Z" fill="#2777FC"/>
<path d="M139.769 109.289C139.769 109.289 160.199 114.075 175.684 102.394L175.522 102.799C172.36 107.423 166.604 111.56 157.281 114.237C157.2 114.237 146.903 116.184 139.688 116.184L139.769 109.289Z" fill="#1353BC"/>
<path d="M139.61 105.273L138.801 105.328L143.145 168.61L143.954 168.554L139.61 105.273Z" fill="#1C2431"/>
<path d="M84.2316 331.223L83.4209 330.98L118.202 203.706L119.012 203.949L84.2316 331.223Z" fill="#1C2431"/>
<path d="M86.5032 326.115C86.5032 326.115 58.8569 331.145 45.1553 324.817L44.9121 332.686C57.8029 336.498 70.7748 336.417 86.2599 333.984L86.5032 326.115Z" fill="#334460"/>
<path d="M63.0717 328.465C55.694 328.465 50.4242 327.735 44.9922 325.22L45.3165 324.49C58.6937 330.736 86.1779 325.869 86.4211 325.788L86.5832 326.599C85.8536 326.68 74.4221 328.465 63.0717 328.465Z" fill="#1C2431"/>
<path d="M124.12 329.034C116.742 329.034 110.661 328.304 105.229 325.79L105.554 325.06C118.931 331.306 146.415 326.439 146.658 326.357L146.821 327.169C146.172 327.25 135.47 329.034 124.12 329.034Z" fill="#1C2431"/>
<path d="M51.7181 356.289H89.9851C91.2823 356.289 92.4174 355.154 92.2552 353.856C92.2552 353.856 92.2552 353.856 92.2552 353.775C92.2552 353.45 92.1741 353.207 92.1741 352.882C92.012 351.828 91.7688 350.854 91.2823 350.206C89.4987 347.772 85.9314 346.717 79.6887 344.203C75.7161 342.662 72.392 340.553 70.9327 339.579C70.4463 339.255 69.7977 339.336 69.3923 339.741C61.8524 347.123 57.1501 345.582 55.7718 342.499C54.7179 340.147 53.1775 340.634 52.7721 341.364C51.4749 343.473 50.8263 349.719 50.502 352.882C50.502 353.207 50.4209 353.531 50.4209 353.775C50.3399 354.343 50.3399 354.748 50.3399 354.748C50.2588 355.559 50.9074 356.289 51.7181 356.289Z" fill="#13426E"/>
<path d="M77.503 348.257C80.2595 346.959 79.8541 344.12 79.8541 344.12L79.2055 344.201C79.2055 344.282 79.5298 346.554 77.2598 347.689L77.503 348.257Z" fill="#1C2431"/>
<path d="M80.9083 349.394C83.4216 348.015 83.1784 345.581 83.0973 345.419L82.4487 345.5C82.4487 345.581 82.6919 347.609 80.584 348.826L80.9083 349.394Z" fill="#1C2431"/>
<path d="M59.2609 347.69C61.8553 347.69 64.1253 346.555 64.2064 346.474L63.8821 345.906C63.801 345.906 58.0448 348.826 55.045 345.176L54.5586 345.581C55.8558 347.204 57.6394 347.69 59.2609 347.69Z" fill="#1C2431"/>
<path d="M114.071 356.289H152.338C153.635 356.289 154.77 355.154 154.608 353.856C154.608 353.856 154.608 353.856 154.608 353.775C154.608 353.45 154.527 353.207 154.527 352.882C154.365 351.828 154.121 350.854 153.635 350.206C151.851 347.772 148.284 346.717 142.041 344.203C138.069 342.662 134.745 340.553 133.285 339.579C132.799 339.255 132.15 339.336 131.745 339.741C124.205 347.123 119.503 345.582 118.124 342.499C117.07 340.147 115.53 340.634 115.125 341.364C113.827 343.473 113.179 349.719 112.855 352.882C112.855 353.207 112.773 353.531 112.773 353.775C112.692 354.343 112.692 354.748 112.692 354.748C112.611 355.559 113.26 356.289 114.071 356.289Z" fill="#13426E"/>
<path d="M139.849 348.257C142.605 346.959 142.2 344.12 142.2 344.12L141.551 344.201C141.551 344.282 141.876 346.554 139.605 347.689L139.849 348.257Z" fill="#1C2431"/>
<path d="M143.254 349.394C145.767 348.015 145.524 345.581 145.443 345.419L144.794 345.5C144.794 345.581 145.038 347.609 142.93 348.826L143.254 349.394Z" fill="#1C2431"/>
<path d="M121.608 347.69C124.202 347.69 126.472 346.555 126.553 346.474L126.229 345.906C126.148 345.906 120.391 348.826 117.392 345.176L116.905 345.581C118.202 347.204 119.986 347.69 121.608 347.69Z" fill="#1C2431"/>
<path d="M113.176 91.2782C106.771 91.2782 100.934 85.9245 100.609 85.6811L101.177 85.1133C101.258 85.1944 107.906 91.1971 114.392 90.3859C117.311 90.0615 119.743 88.358 121.689 85.4377L122.337 85.9245C120.229 89.0881 117.635 90.8726 114.473 91.1971C114.068 91.2782 113.581 91.2782 113.176 91.2782Z" fill="#1C2431"/>
<path d="M85.6101 99.7961C84.5562 91.6033 78.7188 90.2243 78.4756 90.2243L78.6377 89.4131C78.7188 89.4131 85.2858 90.9543 86.4209 99.715L85.6101 99.7961Z" fill="#1C2431"/>
<path d="M44.9918 147.33C44.9108 147.168 40.6949 129.241 53.6668 113.585L54.3154 114.072C41.6678 129.484 45.8026 146.924 45.8026 147.168L44.9918 147.33Z" fill="#1C2431"/>
<path d="M76.3683 131.756L75.7197 131.269C75.9629 130.944 80.9085 123.968 88.2052 123.4L88.2862 124.212C81.3138 124.698 76.3683 131.674 76.3683 131.756Z" fill="#1C2431"/>
<path d="M103.041 174.262C94.4468 174.262 88.5284 173.127 88.3662 173.127L88.5284 172.315C88.7716 172.397 115.121 177.426 137.092 165.988L137.497 166.718C125.741 172.802 112.688 174.262 103.041 174.262Z" fill="#1C2431"/>
<path d="M151.524 88.52C148.119 88.52 146.335 87.4655 146.173 87.3844L146.578 86.6543C146.578 86.6543 150.145 88.7634 156.712 86.8977L156.956 87.7088C154.848 88.3578 153.064 88.52 151.524 88.52Z" fill="#1C2431"/>
<path d="M85.7727 265.842C85.6916 265.842 85.6916 265.842 85.7727 265.842V265.031C85.8538 265.031 95.8259 265.193 102.555 255.297L103.204 255.784C96.4745 265.599 86.5835 265.842 85.7727 265.842Z" fill="#1C2431"/>
<path d="M142.93 262.518L142.687 261.707C142.768 261.707 150.875 259.192 154.28 252.216L155.01 252.54C151.443 259.922 143.335 262.437 142.93 262.518Z" fill="#1C2431"/>
<path d="M113.095 166.474L113.014 165.662C113.176 165.662 127.607 164.689 135.877 155.279L136.444 155.847C127.931 165.5 113.176 166.474 113.095 166.474Z" fill="#1C2431"/>
<g opacity="0.67">
<path d="M12.2381 70.9173C14.0739 70.9173 15.5621 69.4283 15.5621 67.5915C15.5621 65.7546 14.0739 64.2656 12.2381 64.2656C10.4023 64.2656 8.91406 65.7546 8.91406 67.5915C8.91406 69.4283 10.4023 70.9173 12.2381 70.9173Z" fill="#2777FC"/>
</g>
<g opacity="0.53">
<path d="M29.5878 20.9482C27.561 20.9482 25.8584 19.2447 25.8584 17.2168C25.8584 15.1888 27.561 13.4854 29.5878 13.4854C31.6147 13.4854 33.3172 15.1888 33.3172 17.2168C33.3172 19.2447 31.6957 20.9482 29.5878 20.9482ZM29.5878 14.3776C27.9663 14.3776 26.6691 15.6755 26.6691 17.2979C26.6691 18.9202 27.9663 20.2181 29.5878 20.2181C31.2093 20.2181 32.5065 18.9202 32.5065 17.2979C32.5065 15.6755 31.2093 14.3776 29.5878 14.3776Z" fill="#C3A200"/>
</g>
<g opacity="0.53">
<path d="M167.091 13.6487C168.926 13.6487 170.415 12.1597 170.415 10.3229C170.415 8.4861 168.926 6.99707 167.091 6.99707C165.255 6.99707 163.767 8.4861 163.767 10.3229C163.767 12.1597 165.255 13.6487 167.091 13.6487Z" fill="#C3A200"/>
</g>
<g opacity="0.67">
<path d="M202.519 162.418C204.355 162.418 205.843 160.929 205.843 159.092C205.843 157.256 204.355 155.767 202.519 155.767C200.684 155.767 199.195 157.256 199.195 159.092C199.195 160.929 200.684 162.418 202.519 162.418Z" fill="#2777FC"/>
</g>
<g opacity="0.53">
<path d="M176.414 140.192C174.387 140.192 172.685 138.489 172.685 136.461C172.685 134.433 174.387 132.729 176.414 132.729C178.441 132.729 180.143 134.433 180.143 136.461C180.143 138.57 178.441 140.192 176.414 140.192ZM176.414 133.622C174.792 133.622 173.495 134.92 173.495 136.542C173.495 138.164 174.792 139.462 176.414 139.462C178.035 139.462 179.333 138.164 179.333 136.542C179.333 134.92 178.035 133.622 176.414 133.622Z" fill="#C3A200"/>
</g>
<path d="M221.729 23.7004C212.465 21.367 203.864 22.7148 195.978 27.9061C195.727 28.0602 195.512 28.2628 195.346 28.5015C195.179 28.7402 195.063 29.0101 195.007 29.2949C194.95 29.5798 194.954 29.8736 195.016 30.1588C195.079 30.4439 195.2 30.7144 195.372 30.9538C195.538 31.1891 195.75 31.3901 195.995 31.5449C196.24 31.6997 196.514 31.8051 196.801 31.8549C197.087 31.9047 197.38 31.8978 197.662 31.8347C197.944 31.7717 198.21 31.6536 198.443 31.4877C201.273 29.5777 204.455 28.216 207.821 27.4754C212.995 26.341 218.419 26.7576 223.389 28.671C228.358 30.5844 232.645 33.9063 235.692 38.2059C236.533 39.4477 237.302 40.7341 237.995 42.0592C238.119 42.3234 238.296 42.5615 238.515 42.7597C238.734 42.9579 238.99 43.1123 239.269 43.2138C239.547 43.3154 239.843 43.3622 240.139 43.3515C240.435 43.3408 240.725 43.2728 240.992 43.1514C241.258 43.0251 241.494 42.8475 241.687 42.6291C241.879 42.4107 242.024 42.156 242.113 41.8803C242.202 41.6046 242.233 41.3134 242.205 41.0242C242.176 40.735 242.088 40.4536 241.946 40.197C238.599 33.2834 232.729 27.8219 225.502 24.8998C224.919 24.6604 224.329 24.4321 223.727 24.2446C223.125 24.0571 222.395 23.8791 221.729 23.7004Z" fill="#1C2431"/>
<path d="M218.302 31.6865C212.548 30.3047 206.502 31.3237 200.97 35.1282C200.721 35.2832 200.506 35.4882 200.338 35.7303C200.17 35.9724 200.053 36.2466 199.995 36.5356C199.937 36.8247 199.938 37.1225 199.998 37.4105C200.059 37.6985 200.178 37.9706 200.347 38.2097C200.508 38.4509 200.717 38.6563 200.96 38.8132C201.202 38.9702 201.475 39.0754 201.76 39.1227C202.045 39.1699 202.337 39.158 202.617 39.0879C202.898 39.0177 203.162 38.8907 203.394 38.7145C206.196 36.7001 209.536 35.5925 212.969 35.5397C220.078 35.5042 225.391 38.6989 228.871 44.9494C229.002 45.1847 229.113 45.4281 229.231 45.6642C229.352 45.9258 229.523 46.1604 229.735 46.3541C229.947 46.5479 230.195 46.6971 230.465 46.7931C230.735 46.889 231.021 46.9298 231.308 46.913C231.594 46.8962 231.874 46.8222 232.133 46.6953C232.391 46.5684 232.622 46.3912 232.812 46.1738C233.002 45.9565 233.148 45.7034 233.24 45.4293C233.333 45.1551 233.371 44.8655 233.351 44.577C233.332 44.2886 233.256 44.0072 233.128 43.7492C231.866 41.0251 230.06 38.5947 227.823 36.6095C225.264 34.3352 222.32 32.7764 218.302 31.6865Z" fill="#1C2431"/>
<path d="M205.146 43.6332C205.026 44.0736 205.036 44.5384 205.176 44.966C205.316 45.3937 205.578 45.764 205.928 46.028C206.282 46.2998 206.711 46.4472 207.156 46.4493C207.6 46.4515 208.037 46.3083 208.405 46.0399C209.555 45.204 210.867 44.6493 212.24 44.4188C216.057 43.8163 219.57 45.7493 221.306 49.4278C221.471 49.8385 221.754 50.1832 222.118 50.4147C222.482 50.6462 222.909 50.7531 223.339 50.7208C223.694 50.7014 224.041 50.5909 224.349 50.3993C224.657 50.2077 224.916 49.9409 225.104 49.6226C225.291 49.3044 225.401 48.9446 225.424 48.5752C225.447 48.2059 225.382 47.8386 225.235 47.5059C224.458 45.7134 223.306 44.1306 221.862 42.8704C220.418 41.6102 218.718 40.7036 216.882 40.2151C215.046 39.7267 213.12 39.6684 211.24 40.0445C209.361 40.4206 207.575 41.2218 206.009 42.391C205.643 42.7364 205.318 43.1256 205.041 43.5501L205.146 43.6332Z" fill="#1C2431"/>
<path d="M212.575 57.8704C213.398 58.0934 214.268 58.0671 215.076 57.7946C215.884 57.5222 216.592 57.0159 217.112 56.3401C217.632 55.6643 217.939 54.8494 217.994 53.9988C218.05 53.1482 217.852 52.3001 217.425 51.5623C216.998 50.8245 216.362 50.2301 215.596 49.8545C214.831 49.479 213.971 49.3393 213.127 49.453C212.282 49.5668 211.49 49.9289 210.851 50.4935C210.212 51.058 209.756 51.7996 209.539 52.6241C209.393 53.1679 209.355 53.7353 209.429 54.2936C209.502 54.852 209.685 55.3903 209.967 55.8777C210.25 56.3652 210.625 56.7921 211.073 57.1341C211.52 57.476 212.031 57.7262 212.575 57.8704Z" fill="#1C2431"/>
<path d="M225.7 8.92059C231.638 10.5106 236.97 13.8258 241.023 18.4467C245.077 23.0676 247.669 28.7867 248.471 34.8807C249.274 40.9748 248.251 47.17 245.533 52.6829C242.815 58.1958 238.522 62.7787 233.199 65.852C227.876 68.9254 221.761 70.3511 215.628 69.9488C209.494 69.5466 203.618 67.3345 198.741 63.5923C193.865 59.8501 190.208 54.7459 188.233 48.9252C186.258 43.1046 186.053 36.8289 187.645 30.8919C189.787 22.9375 194.996 16.1573 202.13 12.0385C209.264 7.91961 217.74 6.79835 225.7 8.92059ZM243.543 45.8875C244.897 40.8598 244.757 35.5465 243.139 30.5974C241.521 25.6483 238.496 21.2781 234.433 18.0213C230.37 14.7646 225.447 12.7625 220.264 12.2601C215.082 11.7576 209.865 12.7765 205.252 15.1922L232.033 61.5529C237.7 57.9617 241.81 52.3694 243.543 45.8875ZM210.717 64.84C216.539 66.4039 222.72 65.9484 228.251 63.5479L201.659 17.49C197.619 20.4941 194.507 24.5763 192.681 29.2682C190.855 33.9602 190.388 39.0718 191.335 44.0168C192.281 48.9618 194.603 53.5398 198.032 57.2257C201.462 60.9116 205.861 63.5561 210.726 64.8557L210.717 64.84Z" fill="#FFE00B"/>
</svg>
