<svg width="53" height="62" viewBox="0 0 53 62" fill="none" xmlns="http://www.w3.org/2000/svg">
<g clip-path="url(#clip0_3140_771)">
<path d="M31.8631 35.1847H22.6328L22.8626 33.1543H32.0896L31.8631 35.1847Z" fill="#E5AC0A"/>
<path d="M30.2707 42.0004H22.6953L23.3746 35.9326H30.95L30.2707 42.0004Z" fill="#E5AC0A"/>
<path d="M43.8208 10.5054C43.4494 8.16474 42.4202 5.97877 40.8539 4.20394C39.9217 3.15139 38.8155 2.26796 37.584 1.5925C32.5026 -1.19592 25.6165 -0.324331 20.6017 4.20394C19.6601 5.04967 18.8157 5.99841 18.0844 7.03243C16.3393 9.47827 15.3346 12.377 15.1908 15.381H9.64989C9.55236 15.3587 9.45108 15.3587 9.35356 15.3811C9.25605 15.4034 9.1648 15.4475 9.0866 15.5101C9.0084 15.5726 8.94526 15.6521 8.90187 15.7425C8.85847 15.8328 8.83594 15.9319 8.83594 16.0322C8.83594 16.1325 8.85847 16.2315 8.90187 16.3219C8.94526 16.4123 9.0084 16.4917 9.0866 16.5543C9.1648 16.6169 9.25605 16.661 9.35356 16.6833C9.45108 16.7056 9.55236 16.7057 9.64989 16.6834H15.1841C15.23 17.5589 15.3605 18.4279 15.5737 19.2781H11.5379C11.3642 19.2825 11.199 19.3548 11.0777 19.4795C10.9564 19.6043 10.8885 19.7717 10.8886 19.946C10.8886 20.0314 10.9054 20.1159 10.9381 20.1947C10.9708 20.2735 11.0186 20.3451 11.079 20.4053C11.1393 20.4655 11.2109 20.5131 11.2897 20.5455C11.3684 20.5779 11.4528 20.5943 11.5379 20.5939H15.9733C16.2397 21.3229 16.5741 22.0251 16.9722 22.691H12.8099C12.721 22.6846 12.6316 22.6967 12.5475 22.7264C12.4634 22.7561 12.3863 22.8029 12.321 22.8639C12.2558 22.9248 12.2037 22.9986 12.1681 23.0806C12.1325 23.1626 12.1141 23.2511 12.1141 23.3405C12.1141 23.43 12.1325 23.5185 12.1681 23.6005C12.2037 23.6825 12.2558 23.7562 12.321 23.8172C12.3863 23.8781 12.4634 23.9249 12.5475 23.9547C12.6316 23.9844 12.721 23.9965 12.8099 23.9901H17.8713C18.0145 24.1704 18.1576 24.3474 18.3141 24.521L23.855 30.7724H31.6302L38.5763 24.521C42.7852 20.7074 44.6133 15.3276 43.8208 10.5054ZM39.6218 14.3424C38.9991 19.9026 33.9911 24.4108 28.4402 24.4108C22.8894 24.4108 18.8935 19.9026 19.5162 14.3424C20.1389 8.78229 25.147 4.26405 30.6978 4.26405C36.2487 4.26405 40.2445 8.78229 39.6218 14.3424Z" fill="#1279D6"/>
<path d="M34.4638 16.677L30.751 14.3761C30.7523 14.365 30.7523 14.3538 30.751 14.3427C30.7775 14.1496 30.7487 13.9528 30.6679 13.7754C30.5871 13.5981 30.4577 13.4474 30.2948 13.3409L31.0374 6.7255C31.048 6.64842 31.0418 6.56995 31.0192 6.4955C30.9967 6.42105 30.9583 6.35241 30.9067 6.2943C30.8551 6.2362 30.7915 6.19002 30.7203 6.15896C30.6492 6.12789 30.5722 6.11269 30.4946 6.11439C30.3295 6.12092 30.1721 6.18588 30.0501 6.29774C29.9282 6.4096 29.8498 6.56115 29.8287 6.7255L29.0861 13.3376C28.9046 13.4406 28.7499 13.585 28.6342 13.759C28.5185 13.933 28.4452 14.1318 28.4201 14.3394C28.3994 14.4882 28.4111 14.6397 28.4544 14.7835C28.4977 14.9273 28.5716 15.06 28.671 15.1724C28.7704 15.2847 28.8929 15.3742 29.0301 15.4344C29.1673 15.4947 29.3159 15.5245 29.4657 15.5216C29.6476 15.5194 29.8269 15.4784 29.9918 15.4013L33.7645 17.7389C33.9101 17.8141 34.0782 17.8328 34.2367 17.7915C34.3951 17.7503 34.5329 17.6519 34.6236 17.5152C34.6716 17.4509 34.7056 17.3773 34.7236 17.299C34.7416 17.2208 34.7431 17.1396 34.7281 17.0607C34.713 16.9819 34.6818 16.907 34.6363 16.8409C34.5908 16.7749 34.532 16.719 34.4638 16.677Z" fill="#EA1111"/>
</g>
<path d="M2.98218 47C4.16741 47 5.11176 47.3135 5.81525 47.9405C6.51874 48.5599 6.87049 49.4125 6.87049 50.4983C6.87049 51.8671 6.43463 52.9644 5.56291 53.7902C4.69885 54.616 3.56332 55.0289 2.15635 55.0289H0L0.848774 47H2.98218ZM2.3628 53.687C3.30334 53.687 4.04124 53.4079 4.5765 52.8497C5.11176 52.2838 5.37939 51.5306 5.37939 50.5901C5.37939 49.8637 5.16911 49.3093 4.74855 48.9269C4.32798 48.537 3.72008 48.342 2.92483 48.342H2.13341L1.59432 53.687H2.3628Z" fill="#222222"/>
<path d="M13.6083 48.3305H10.0755L9.85759 50.3492H13.0462L12.9086 51.6453H9.71995L9.50203 53.6984H13.0462L12.8971 55.0289H7.91918L8.76795 47H13.7459L13.6083 48.3305Z" fill="#222222"/>
<path d="M16.1221 53.687H19.4943L19.3452 55.0289H14.5278L15.3766 47H16.8218L16.1221 53.687Z" fill="#222222"/>
<path d="M20.666 55.0289L21.5148 47H22.96L22.1112 55.0289H20.666Z" fill="#222222"/>
<path d="M25.9298 55.0289L24.0602 47H25.5398L26.9277 53.2626H26.9621L29.669 47H31.206L27.6388 55.0289H25.9298Z" fill="#222222"/>
<path d="M37.153 48.3305H33.6202L33.4023 50.3492H36.5909L36.4533 51.6453H33.2647L33.0467 53.6984H36.5909L36.4418 55.0289H31.4639L32.3127 47H37.2906L37.153 48.3305Z" fill="#222222"/>
<path d="M44.4957 49.4431C44.4957 50.1466 44.3045 50.743 43.9222 51.2324C43.5399 51.7141 43.0161 52.0582 42.3508 52.2647L44.0025 55.0289H42.3738L40.8827 52.4597H39.793L39.5177 55.0289H38.0725L38.9213 47H41.4906C42.4235 47 43.1575 47.2218 43.6928 47.6653C44.2281 48.1011 44.4957 48.6937 44.4957 49.4431ZM40.2289 48.3305L39.9307 51.1292H41.1465C41.72 51.1292 42.1711 50.9915 42.4999 50.7163C42.8364 50.4333 43.0046 50.0357 43.0046 49.5234C43.0046 48.7281 42.4923 48.3305 41.4676 48.3305H40.2289Z" fill="#222222"/>
<path d="M47.1228 55.0289L47.4669 51.8174L45.15 47H46.7443L48.2928 50.3836H48.3272L50.5868 47H52.2499L48.9121 51.8174L48.5795 55.0289H47.1228Z" fill="#222222"/>
<path d="M14.8189 60.9082C14.4897 60.9082 14.2161 60.7959 13.9981 60.5712C13.7801 60.3443 13.6711 60.054 13.6711 59.7003C13.6711 59.3466 13.7801 59.0575 13.9981 58.8328C14.2183 58.6059 14.493 58.4924 14.8223 58.4924C15.107 58.4924 15.3484 58.5759 15.5463 58.7427C15.7443 58.9095 15.8566 59.1275 15.8833 59.3967H15.523C15.4874 59.2098 15.4084 59.0664 15.2861 58.9663C15.166 58.8639 15.0147 58.8128 14.8323 58.8128C14.5987 58.8128 14.4063 58.894 14.255 59.0564C14.106 59.2165 14.0315 59.4312 14.0315 59.7003C14.0315 59.9695 14.106 60.1853 14.255 60.3477C14.4063 60.5078 14.5987 60.5879 14.8323 60.5879C15.0169 60.5879 15.1726 60.5367 15.2994 60.4344C15.4262 60.3299 15.5063 60.1864 15.5397 60.004H15.89C15.8633 60.2731 15.7499 60.4911 15.5497 60.658C15.3495 60.8248 15.1059 60.9082 14.8189 60.9082Z" fill="#222222"/>
<path d="M18.465 60.678C18.3115 60.8315 18.1169 60.9082 17.8811 60.9082C17.6453 60.9082 17.4495 60.8315 17.2938 60.678C17.1403 60.5223 17.0636 60.3221 17.0636 60.0774C17.0636 59.8349 17.1403 59.6369 17.2938 59.4834C17.4495 59.3277 17.6453 59.2499 17.8811 59.2499C18.1169 59.2499 18.3115 59.3277 18.465 59.4834C18.6207 59.6369 18.6986 59.8349 18.6986 60.0774C18.6986 60.3221 18.6207 60.5223 18.465 60.678ZM17.5374 60.4711C17.6264 60.569 17.7409 60.6179 17.8811 60.6179C18.0212 60.6179 18.1358 60.569 18.2248 60.4711C18.3138 60.371 18.3582 60.2398 18.3582 60.0774C18.3582 59.9172 18.3138 59.7882 18.2248 59.6903C18.1358 59.5902 18.0212 59.5402 17.8811 59.5402C17.7409 59.5402 17.6264 59.5902 17.5374 59.6903C17.4484 59.7882 17.4039 59.9172 17.4039 60.0774C17.4039 60.2398 17.4484 60.371 17.5374 60.4711Z" fill="#222222"/>
<path d="M21.7953 59.2499C21.9621 59.2499 22.0945 59.3044 22.1924 59.4134C22.2925 59.5224 22.3425 59.6759 22.3425 59.8738V60.8682H22.0089V59.9806C22.0089 59.6914 21.9054 59.5468 21.6985 59.5468C21.5851 59.5468 21.4939 59.588 21.4249 59.6703C21.356 59.7504 21.3215 59.8627 21.3215 60.0073V60.8682H20.9878V59.9806C20.9878 59.6914 20.8855 59.5468 20.6808 59.5468C20.5652 59.5468 20.4717 59.5869 20.4006 59.667C20.3316 59.747 20.2971 59.8605 20.2971 60.0073V60.8682H19.9635V59.2899H20.2671L20.2871 59.4968H20.2971C20.3461 59.4212 20.4139 59.3611 20.5007 59.3166C20.5896 59.2721 20.6842 59.2499 20.7843 59.2499C21.0045 59.2499 21.158 59.3444 21.2447 59.5335H21.2581C21.3115 59.4467 21.386 59.3778 21.4817 59.3266C21.5773 59.2755 21.6819 59.2499 21.7953 59.2499Z" fill="#222222"/>
<path d="M24.5428 59.2499C24.7564 59.2499 24.9332 59.3277 25.0734 59.4834C25.2157 59.6369 25.2869 59.8349 25.2869 60.0774C25.2869 60.3199 25.2157 60.5189 25.0734 60.6747C24.9332 60.8304 24.7564 60.9082 24.5428 60.9082C24.436 60.9082 24.3359 60.8871 24.2425 60.8448C24.1491 60.8003 24.0812 60.7414 24.039 60.668H24.0256V61.6156H23.692V59.2899H23.9956L24.0156 59.4968H24.0256C24.0701 59.4234 24.1391 59.3644 24.2325 59.32C24.3259 59.2732 24.4294 59.2499 24.5428 59.2499ZM24.4794 60.6146C24.6196 60.6146 24.7319 60.5668 24.8164 60.4711C24.9032 60.3755 24.9466 60.2442 24.9466 60.0774C24.9466 59.9128 24.9032 59.7826 24.8164 59.687C24.7297 59.5891 24.6173 59.5402 24.4794 59.5402C24.3415 59.5402 24.2292 59.5891 24.1424 59.687C24.0557 59.7826 24.0123 59.9128 24.0123 60.0774C24.0123 60.242 24.0557 60.3732 24.1424 60.4711C24.2292 60.5668 24.3415 60.6146 24.4794 60.6146Z" fill="#222222"/>
<path d="M27.2276 59.2499C27.439 59.2499 27.6014 59.3044 27.7148 59.4134C27.8283 59.5202 27.885 59.6736 27.885 59.8738V60.8682H27.5847L27.5647 60.658H27.5546C27.5057 60.7336 27.4323 60.7948 27.3344 60.8415C27.2365 60.886 27.1298 60.9082 27.0141 60.9082C26.8539 60.9082 26.7249 60.8671 26.627 60.7848C26.5314 60.7002 26.4836 60.5901 26.4836 60.4544C26.4836 60.3232 26.5303 60.2164 26.6237 60.1341C26.7194 60.0496 26.8595 59.994 27.0441 59.9673L27.558 59.8939V59.8672C27.558 59.6425 27.4434 59.5302 27.2143 59.5302C27.0007 59.5302 26.8873 59.6214 26.874 59.8038H26.5369C26.5481 59.6325 26.6137 59.4979 26.7338 59.4C26.8562 59.2999 27.0208 59.2499 27.2276 59.2499ZM27.0942 60.638C27.2299 60.638 27.3411 60.5968 27.4278 60.5145C27.5146 60.43 27.558 60.3232 27.558 60.1942V60.1374L27.1476 60.1942C26.9318 60.2209 26.8239 60.3021 26.8239 60.4377C26.8239 60.5 26.8473 60.549 26.894 60.5846C26.9407 60.6202 27.0074 60.638 27.0942 60.638Z" fill="#222222"/>
<path d="M30.0771 59.2499C30.2506 59.2499 30.3874 59.3044 30.4875 59.4134C30.5898 59.5224 30.641 59.6759 30.641 59.8738V60.8682H30.3073V59.9906C30.3073 59.8327 30.2795 59.7192 30.2239 59.6503C30.1683 59.5813 30.0849 59.5468 29.9737 59.5468C29.8491 59.5468 29.7501 59.5869 29.6767 59.667C29.6055 59.7448 29.5699 59.8594 29.5699 60.0106V60.8682H29.2362V59.2899H29.5399L29.5599 59.4968H29.5699C29.6211 59.4189 29.6911 59.3589 29.7801 59.3166C29.8691 59.2721 29.9681 59.2499 30.0771 59.2499Z" fill="#222222"/>
<path d="M33.009 59.2899H33.356L32.4251 61.6156H32.0814L32.3784 60.8749L31.7444 59.2899H32.1014L32.5452 60.4678H32.5552L33.009 59.2899Z" fill="#222222"/>
<defs>
<clipPath id="clip0_3140_771">
<rect width="35" height="42" fill="white" transform="translate(9)"/>
</clipPath>
</defs>
</svg>
