<svg width="53" height="46" viewBox="0 0 53 46" fill="none" xmlns="http://www.w3.org/2000/svg">
<g clip-path="url(#clip0_3140_761)">
<path d="M40.6343 14.5654C37.5439 14.5654 34.4188 17.1246 33.6515 20.2827C32.8842 23.4408 34.7705 26 37.8609 26C40.9514 26 44.0764 23.4408 44.841 20.2827C45.6057 17.1246 43.7114 14.5654 40.6343 14.5654ZM38.503 23.3401C36.8512 23.3401 35.8388 21.9788 36.2544 20.2827C36.67 18.5866 38.3325 17.2253 39.9843 17.2253C41.636 17.2253 42.6484 18.5866 42.2328 20.2827C41.8172 21.9788 40.1468 23.3401 38.503 23.3401Z" fill="#2F3335"/>
<path d="M18.9611 21.6436C18.6067 22.1471 18.1447 22.5616 17.6101 22.8555C17.0756 23.1494 16.4825 23.315 15.876 23.3397C14.7038 23.3397 13.8592 22.6482 13.6115 21.6436H10.8594C10.8594 24.1428 12.6017 25.9996 15.2313 25.9996C17.8608 25.9996 20.5117 24.1428 21.7159 21.6436H18.9611Z" fill="#2F3335"/>
<path d="M14.2722 6.60254L13.8912 8.16798H8.66409C8.48744 8.16798 8.31803 8.23969 8.19313 8.36733C8.06822 8.49498 7.99805 8.6681 7.99805 8.84861C7.99805 9.02913 8.06822 9.20225 8.19313 9.32989C8.31803 9.45753 8.48744 9.52924 8.66409 9.52924H13.5635L13.1692 11.1464H9.58589C9.40925 11.1464 9.23984 11.2181 9.11493 11.3458C8.99002 11.4734 8.91985 11.6465 8.91985 11.827C8.91985 12.0076 8.99002 12.1807 9.11493 12.3083C9.23984 12.436 9.40925 12.5077 9.58589 12.5077H12.8415L12.3406 14.5659H10.6516C10.4749 14.5659 10.3055 14.6376 10.1806 14.7652C10.0557 14.8929 9.98552 15.066 9.98552 15.2465C9.98552 15.427 10.0557 15.6002 10.1806 15.7278C10.3055 15.8554 10.4749 15.9271 10.6516 15.9271H12.0103L11.4082 18.4101H26.1038L28.9651 6.60254H14.2722Z" fill="#E5AC0A"/>
<path d="M29.8483 5.61609H13.8633L14.5986 2.58594H30.5836L29.8483 5.61609Z" fill="#E5AC0A"/>
<path d="M38.143 14.4893C38.6725 14.2741 39.2239 14.1198 39.7868 14.0292L39.182 0.585418C39.18 0.50472 39.1622 0.42526 39.1295 0.351769C39.0968 0.278279 39.05 0.212258 38.9918 0.157642C38.9336 0.103027 38.8653 0.0609307 38.7909 0.0338611C38.7165 0.00679144 38.6375 -0.00469765 38.5586 7.68405e-05H33.7072C33.478 0.0113263 33.2582 0.0963975 33.0792 0.243109C32.9002 0.389821 32.7712 0.590649 32.7108 0.816831C32.679 0.912061 32.6705 1.01378 32.6859 1.11314C32.7014 1.2125 32.7403 1.30651 32.7994 1.387C32.8585 1.46748 32.9359 1.53202 33.0249 1.57499C33.1139 1.61796 33.2118 1.63808 33.3102 1.63358H37.5729L37.9352 9.72217L28.6452 19.466H9.02096C8.7919 19.4777 8.57227 19.5629 8.39337 19.7096C8.21446 19.8562 8.0854 20.0568 8.02456 20.2828C7.9927 20.3783 7.98419 20.4802 7.99977 20.5798C8.01534 20.6794 8.05453 20.7736 8.11392 20.8541C8.1733 20.9347 8.25107 20.9992 8.34045 21.042C8.42983 21.0847 8.52809 21.1045 8.62666 21.0996H28.6452C28.7822 21.095 28.917 21.0628 29.0418 21.0048C29.1666 20.9469 29.279 20.8644 29.3726 20.762L38.0151 11.6987L38.143 14.4893Z" fill="#EA1111"/>
</g>
<path d="M2.98218 31C4.16741 31 5.11176 31.3135 5.81525 31.9405C6.51874 32.5599 6.87049 33.4125 6.87049 34.4983C6.87049 35.8671 6.43463 36.9644 5.56291 37.7902C4.69885 38.616 3.56332 39.0289 2.15635 39.0289H0L0.848774 31H2.98218ZM2.3628 37.687C3.30334 37.687 4.04124 37.4079 4.5765 36.8497C5.11176 36.2838 5.37939 35.5306 5.37939 34.5901C5.37939 33.8637 5.16911 33.3093 4.74855 32.9269C4.32798 32.537 3.72008 32.342 2.92483 32.342H2.13341L1.59432 37.687H2.3628Z" fill="#222222"/>
<path d="M13.6083 32.3305H10.0755L9.85759 34.3492H13.0462L12.9086 35.6453H9.71995L9.50203 37.6984H13.0462L12.8971 39.0289H7.91918L8.76795 31H13.7459L13.6083 32.3305Z" fill="#222222"/>
<path d="M16.1221 37.687H19.4943L19.3452 39.0289H14.5278L15.3766 31H16.8218L16.1221 37.687Z" fill="#222222"/>
<path d="M20.666 39.0289L21.5148 31H22.96L22.1112 39.0289H20.666Z" fill="#222222"/>
<path d="M25.9298 39.0289L24.0602 31H25.5398L26.9277 37.2626H26.9621L29.669 31H31.206L27.6388 39.0289H25.9298Z" fill="#222222"/>
<path d="M37.153 32.3305H33.6202L33.4023 34.3492H36.5909L36.4533 35.6453H33.2647L33.0467 37.6984H36.5909L36.4418 39.0289H31.4639L32.3127 31H37.2906L37.153 32.3305Z" fill="#222222"/>
<path d="M44.4957 33.4431C44.4957 34.1466 44.3045 34.743 43.9222 35.2324C43.5399 35.7141 43.0161 36.0582 42.3508 36.2647L44.0025 39.0289H42.3738L40.8827 36.4597H39.793L39.5177 39.0289H38.0725L38.9213 31H41.4906C42.4235 31 43.1575 31.2218 43.6928 31.6653C44.2281 32.1011 44.4957 32.6937 44.4957 33.4431ZM40.2289 32.3305L39.9307 35.1292H41.1465C41.72 35.1292 42.1711 34.9915 42.4999 34.7163C42.8364 34.4333 43.0046 34.0357 43.0046 33.5234C43.0046 32.7281 42.4923 32.3305 41.4676 32.3305H40.2289Z" fill="#222222"/>
<path d="M47.1228 39.0289L47.4669 35.8174L45.15 31H46.7443L48.2928 34.3836H48.3272L50.5868 31H52.2499L48.9121 35.8174L48.5795 39.0289H47.1228Z" fill="#222222"/>
<path d="M14.8189 44.9082C14.4897 44.9082 14.2161 44.7959 13.9981 44.5712C13.7801 44.3443 13.6711 44.054 13.6711 43.7003C13.6711 43.3466 13.7801 43.0575 13.9981 42.8328C14.2183 42.6059 14.493 42.4924 14.8223 42.4924C15.107 42.4924 15.3484 42.5759 15.5463 42.7427C15.7443 42.9095 15.8566 43.1275 15.8833 43.3967H15.523C15.4874 43.2098 15.4084 43.0664 15.2861 42.9663C15.166 42.8639 15.0147 42.8128 14.8323 42.8128C14.5987 42.8128 14.4063 42.894 14.255 43.0564C14.106 43.2165 14.0315 43.4312 14.0315 43.7003C14.0315 43.9695 14.106 44.1853 14.255 44.3477C14.4063 44.5078 14.5987 44.5879 14.8323 44.5879C15.0169 44.5879 15.1726 44.5367 15.2994 44.4344C15.4262 44.3299 15.5063 44.1864 15.5397 44.004H15.89C15.8633 44.2731 15.7499 44.4911 15.5497 44.658C15.3495 44.8248 15.1059 44.9082 14.8189 44.9082Z" fill="#222222"/>
<path d="M18.465 44.678C18.3115 44.8315 18.1169 44.9082 17.8811 44.9082C17.6453 44.9082 17.4495 44.8315 17.2938 44.678C17.1403 44.5223 17.0636 44.3221 17.0636 44.0774C17.0636 43.8349 17.1403 43.6369 17.2938 43.4834C17.4495 43.3277 17.6453 43.2499 17.8811 43.2499C18.1169 43.2499 18.3115 43.3277 18.465 43.4834C18.6207 43.6369 18.6986 43.8349 18.6986 44.0774C18.6986 44.3221 18.6207 44.5223 18.465 44.678ZM17.5374 44.4711C17.6264 44.569 17.7409 44.6179 17.8811 44.6179C18.0212 44.6179 18.1358 44.569 18.2248 44.4711C18.3138 44.371 18.3582 44.2398 18.3582 44.0774C18.3582 43.9172 18.3138 43.7882 18.2248 43.6903C18.1358 43.5902 18.0212 43.5402 17.8811 43.5402C17.7409 43.5402 17.6264 43.5902 17.5374 43.6903C17.4484 43.7882 17.4039 43.9172 17.4039 44.0774C17.4039 44.2398 17.4484 44.371 17.5374 44.4711Z" fill="#222222"/>
<path d="M21.7953 43.2499C21.9621 43.2499 22.0945 43.3044 22.1924 43.4134C22.2925 43.5224 22.3425 43.6759 22.3425 43.8738V44.8682H22.0089V43.9806C22.0089 43.6914 21.9054 43.5468 21.6985 43.5468C21.5851 43.5468 21.4939 43.588 21.4249 43.6703C21.356 43.7504 21.3215 43.8627 21.3215 44.0073V44.8682H20.9878V43.9806C20.9878 43.6914 20.8855 43.5468 20.6808 43.5468C20.5652 43.5468 20.4717 43.5869 20.4006 43.667C20.3316 43.747 20.2971 43.8605 20.2971 44.0073V44.8682H19.9635V43.2899H20.2671L20.2871 43.4968H20.2971C20.3461 43.4212 20.4139 43.3611 20.5007 43.3166C20.5896 43.2721 20.6842 43.2499 20.7843 43.2499C21.0045 43.2499 21.158 43.3444 21.2447 43.5335H21.2581C21.3115 43.4467 21.386 43.3778 21.4817 43.3266C21.5773 43.2755 21.6819 43.2499 21.7953 43.2499Z" fill="#222222"/>
<path d="M24.5428 43.2499C24.7564 43.2499 24.9332 43.3277 25.0734 43.4834C25.2157 43.6369 25.2869 43.8349 25.2869 44.0774C25.2869 44.3199 25.2157 44.5189 25.0734 44.6747C24.9332 44.8304 24.7564 44.9082 24.5428 44.9082C24.436 44.9082 24.3359 44.8871 24.2425 44.8448C24.1491 44.8003 24.0812 44.7414 24.039 44.668H24.0256V45.6156H23.692V43.2899H23.9956L24.0156 43.4968H24.0256C24.0701 43.4234 24.1391 43.3644 24.2325 43.32C24.3259 43.2732 24.4294 43.2499 24.5428 43.2499ZM24.4794 44.6146C24.6196 44.6146 24.7319 44.5668 24.8164 44.4711C24.9032 44.3755 24.9466 44.2442 24.9466 44.0774C24.9466 43.9128 24.9032 43.7826 24.8164 43.687C24.7297 43.5891 24.6173 43.5402 24.4794 43.5402C24.3415 43.5402 24.2292 43.5891 24.1424 43.687C24.0557 43.7826 24.0123 43.9128 24.0123 44.0774C24.0123 44.242 24.0557 44.3732 24.1424 44.4711C24.2292 44.5668 24.3415 44.6146 24.4794 44.6146Z" fill="#222222"/>
<path d="M27.2276 43.2499C27.439 43.2499 27.6014 43.3044 27.7148 43.4134C27.8283 43.5202 27.885 43.6736 27.885 43.8738V44.8682H27.5847L27.5647 44.658H27.5546C27.5057 44.7336 27.4323 44.7948 27.3344 44.8415C27.2365 44.886 27.1298 44.9082 27.0141 44.9082C26.8539 44.9082 26.7249 44.8671 26.627 44.7848C26.5314 44.7002 26.4836 44.5901 26.4836 44.4544C26.4836 44.3232 26.5303 44.2164 26.6237 44.1341C26.7194 44.0496 26.8595 43.994 27.0441 43.9673L27.558 43.8939V43.8672C27.558 43.6425 27.4434 43.5302 27.2143 43.5302C27.0007 43.5302 26.8873 43.6214 26.874 43.8038H26.5369C26.5481 43.6325 26.6137 43.4979 26.7338 43.4C26.8562 43.2999 27.0208 43.2499 27.2276 43.2499ZM27.0942 44.638C27.2299 44.638 27.3411 44.5968 27.4278 44.5145C27.5146 44.43 27.558 44.3232 27.558 44.1942V44.1374L27.1476 44.1942C26.9318 44.2209 26.8239 44.3021 26.8239 44.4377C26.8239 44.5 26.8473 44.549 26.894 44.5846C26.9407 44.6202 27.0074 44.638 27.0942 44.638Z" fill="#222222"/>
<path d="M30.0771 43.2499C30.2506 43.2499 30.3874 43.3044 30.4875 43.4134C30.5898 43.5224 30.641 43.6759 30.641 43.8738V44.8682H30.3073V43.9906C30.3073 43.8327 30.2795 43.7192 30.2239 43.6503C30.1683 43.5813 30.0849 43.5468 29.9737 43.5468C29.8491 43.5468 29.7501 43.5869 29.6767 43.667C29.6055 43.7448 29.5699 43.8594 29.5699 44.0106V44.8682H29.2362V43.2899H29.5399L29.5599 43.4968H29.5699C29.6211 43.4189 29.6911 43.3589 29.7801 43.3166C29.8691 43.2721 29.9681 43.2499 30.0771 43.2499Z" fill="#222222"/>
<path d="M33.009 43.2899H33.356L32.4251 45.6156H32.0814L32.3784 44.8749L31.7444 43.2899H32.1014L32.5452 44.4678H32.5552L33.009 43.2899Z" fill="#222222"/>
<defs>
<clipPath id="clip0_3140_761">
<rect width="37" height="26" fill="white" transform="translate(8)"/>
</clipPath>
</defs>
</svg>
