<svg width="84" height="38" viewBox="0 0 84 38" fill="none" xmlns="http://www.w3.org/2000/svg">
<path d="M13.4512 23.5655L16.2665 0L24.2955 5.2136L13.4512 23.5655Z" fill="#F0325E"/>
<path d="M13.1383 10.7397C10.3465 10.7397 7.62724 11.6291 5.37495 13.2787C3.12266 14.9284 1.45442 17.2526 0.612162 19.9143C-0.230097 22.5761 -0.202578 25.4369 0.690726 28.0819C1.58403 30.727 3.29668 33.0187 5.58028 34.6247C7.86389 36.2307 10.5997 37.0676 13.391 37.0139C16.1823 36.9602 18.8839 36.0187 21.1041 34.326C23.3242 32.6333 24.9474 30.2775 25.7383 27.6C26.5292 24.9226 26.4467 22.0628 25.5027 19.4355L20.6453 21.1807C21.2185 22.7759 21.2686 24.5122 20.7884 26.1378C20.3082 27.7634 19.3227 29.1938 17.9747 30.2215C16.6267 31.2492 14.9865 31.8208 13.2917 31.8535C11.597 31.8861 9.93593 31.378 8.54944 30.4029C7.16295 29.4278 6.12312 28.0364 5.58074 26.4304C5.03837 24.8245 5.02167 23.0875 5.53304 21.4715C6.04442 19.8554 7.0573 18.4442 8.42477 17.4427C9.79225 16.4411 11.4432 15.9011 13.1383 15.9011V10.7397Z" fill="#777777"/>
<path d="M26.2756 6.67334L13.8672 23.6697L34.3045 11.8869L26.2756 6.67334Z" fill="#F0325E"/>
<path d="M34.5232 21.2715C35.7084 21.2715 36.6528 21.585 37.3563 22.212C38.0598 22.8314 38.4115 23.684 38.4115 24.7698C38.4115 26.1386 37.9756 27.2358 37.1039 28.0617C36.2399 28.8875 35.1043 29.3004 33.6974 29.3004H31.541L32.3898 21.2715H34.5232ZM33.9038 27.9585C34.8444 27.9585 35.5823 27.6793 36.1175 27.1211C36.6528 26.5553 36.9204 25.8021 36.9204 24.8616C36.9204 24.1351 36.7101 23.5808 36.2896 23.1984C35.869 22.8085 35.2611 22.6135 34.4658 22.6135H33.6744L33.1353 27.9585H33.9038Z" fill="#222222"/>
<path d="M45.1493 22.602H41.6165L41.3986 24.6207H44.5872L44.4496 25.9168H41.261L41.043 27.9699H44.5872L44.4381 29.3004H39.4602L40.309 21.2715H45.2869L45.1493 22.602Z" fill="#222222"/>
<path d="M47.6632 27.9585H51.0353L50.8862 29.3004H46.0688L46.9176 21.2715H48.3628L47.6632 27.9585Z" fill="#222222"/>
<path d="M52.207 29.3004L53.0558 21.2715H54.501L53.6523 29.3004H52.207Z" fill="#222222"/>
<path d="M57.4708 29.3004L55.6012 21.2715H57.0809L58.4687 27.5341H58.5031L61.21 21.2715H62.747L59.1799 29.3004H57.4708Z" fill="#222222"/>
<path d="M68.694 22.602H65.1612L64.9433 24.6207H68.132L67.9943 25.9168H64.8057L64.5877 27.9699H68.132L67.9828 29.3004H63.0049L63.8537 21.2715H68.8316L68.694 22.602Z" fill="#222222"/>
<path d="M76.0367 23.7146C76.0367 24.4181 75.8455 25.0145 75.4632 25.5039C75.0809 25.9856 74.5571 26.3297 73.8918 26.5362L75.5435 29.3004H73.9148L72.4237 26.7312H71.334L71.0588 29.3004H69.6135L70.4623 21.2715H73.0316C73.9645 21.2715 74.6985 21.4932 75.2338 21.9367C75.7691 22.3726 76.0367 22.9652 76.0367 23.7146ZM71.7699 22.602L71.4717 25.4007H72.6875C73.261 25.4007 73.7121 25.263 74.0409 24.9877C74.3774 24.7048 74.5456 24.3072 74.5456 23.7949C74.5456 22.9996 74.0333 22.602 73.0086 22.602H71.7699Z" fill="#222222"/>
<path d="M78.6639 29.3004L79.008 26.0889L76.691 21.2715H78.2853L79.8338 24.6551H79.8682L82.1278 21.2715H83.7909L80.4532 26.0889L80.1205 29.3004H78.6639Z" fill="#222222"/>
<path d="M46.3599 35.1797C46.0307 35.1797 45.7571 35.0674 45.5391 34.8427C45.3211 34.6158 45.2121 34.3255 45.2121 33.9718C45.2121 33.6181 45.3211 33.3289 45.5391 33.1043C45.7593 32.8774 46.0341 32.7639 46.3633 32.7639C46.648 32.7639 46.8894 32.8474 47.0873 33.0142C47.2853 33.181 47.3977 33.399 47.4244 33.6682H47.064C47.0284 33.4813 46.9494 33.3378 46.8271 33.2377C46.707 33.1354 46.5557 33.0843 46.3733 33.0843C46.1397 33.0843 45.9473 33.1654 45.796 33.3278C45.647 33.488 45.5725 33.7027 45.5725 33.9718C45.5725 34.241 45.647 34.4568 45.796 34.6191C45.9473 34.7793 46.1397 34.8594 46.3733 34.8594C46.5579 34.8594 46.7136 34.8082 46.8404 34.7059C46.9672 34.6013 47.0473 34.4579 47.0807 34.2755H47.431C47.4043 34.5446 47.2909 34.7626 47.0907 34.9295C46.8905 35.0963 46.6469 35.1797 46.3599 35.1797Z" fill="#222222"/>
<path d="M50.006 34.9495C49.8525 35.103 49.6579 35.1797 49.4221 35.1797C49.1863 35.1797 48.9906 35.103 48.8348 34.9495C48.6814 34.7938 48.6046 34.5936 48.6046 34.3489C48.6046 34.1064 48.6814 33.9084 48.8348 33.7549C48.9906 33.5992 49.1863 33.5214 49.4221 33.5214C49.6579 33.5214 49.8525 33.5992 50.006 33.7549C50.1617 33.9084 50.2396 34.1064 50.2396 34.3489C50.2396 34.5936 50.1617 34.7938 50.006 34.9495ZM49.0784 34.7426C49.1674 34.8405 49.282 34.8894 49.4221 34.8894C49.5622 34.8894 49.6768 34.8405 49.7658 34.7426C49.8548 34.6425 49.8993 34.5113 49.8993 34.3489C49.8993 34.1887 49.8548 34.0597 49.7658 33.9618C49.6768 33.8617 49.5622 33.8117 49.4221 33.8117C49.282 33.8117 49.1674 33.8617 49.0784 33.9618C48.9894 34.0597 48.945 34.1887 48.945 34.3489C48.945 34.5113 48.9894 34.6425 49.0784 34.7426Z" fill="#222222"/>
<path d="M53.3363 33.5214C53.5032 33.5214 53.6355 33.5759 53.7334 33.6849C53.8335 33.7939 53.8835 33.9474 53.8835 34.1453V35.1397H53.5499V34.2521C53.5499 33.9629 53.4464 33.8183 53.2396 33.8183C53.1261 33.8183 53.0349 33.8595 52.9659 33.9418C52.897 34.0219 52.8625 34.1342 52.8625 34.2788V35.1397H52.5288V34.2521C52.5288 33.9629 52.4265 33.8183 52.2219 33.8183C52.1062 33.8183 52.0128 33.8584 51.9416 33.9385C51.8726 34.0185 51.8381 34.132 51.8381 34.2788V35.1397H51.5045V33.5614H51.8081L51.8281 33.7683H51.8381C51.8871 33.6926 51.9549 33.6326 52.0417 33.5881C52.1307 33.5436 52.2252 33.5214 52.3253 33.5214C52.5455 33.5214 52.699 33.6159 52.7858 33.805H52.7991C52.8525 33.7182 52.927 33.6493 53.0227 33.5981C53.1183 33.5469 53.2229 33.5214 53.3363 33.5214Z" fill="#222222"/>
<path d="M56.0838 33.5214C56.2974 33.5214 56.4742 33.5992 56.6144 33.7549C56.7567 33.9084 56.8279 34.1064 56.8279 34.3489C56.8279 34.5913 56.7567 34.7904 56.6144 34.9461C56.4742 35.1019 56.2974 35.1797 56.0838 35.1797C55.9771 35.1797 55.877 35.1586 55.7835 35.1163C55.6901 35.0718 55.6223 35.0129 55.58 34.9395H55.5666V35.8871H55.233V33.5614H55.5366L55.5566 33.7683H55.5666C55.6111 33.6949 55.6801 33.6359 55.7735 33.5914C55.867 33.5447 55.9704 33.5214 56.0838 33.5214ZM56.0204 34.8861C56.1606 34.8861 56.2729 34.8383 56.3574 34.7426C56.4442 34.6469 56.4876 34.5157 56.4876 34.3489C56.4876 34.1843 56.4442 34.0541 56.3574 33.9585C56.2707 33.8606 56.1584 33.8117 56.0204 33.8117C55.8825 33.8117 55.7702 33.8606 55.6834 33.9585C55.5967 34.0541 55.5533 34.1843 55.5533 34.3489C55.5533 34.5135 55.5967 34.6447 55.6834 34.7426C55.7702 34.8383 55.8825 34.8861 56.0204 34.8861Z" fill="#222222"/>
<path d="M58.7687 33.5214C58.98 33.5214 59.1424 33.5759 59.2558 33.6849C59.3693 33.7916 59.426 33.9451 59.426 34.1453V35.1397H59.1257L59.1057 34.9295H59.0957C59.0467 35.0051 58.9733 35.0663 58.8754 35.113C58.7776 35.1575 58.6708 35.1797 58.5551 35.1797C58.3949 35.1797 58.2659 35.1386 58.1681 35.0562C58.0724 34.9717 58.0246 34.8616 58.0246 34.7259C58.0246 34.5947 58.0713 34.4879 58.1647 34.4056C58.2604 34.3211 58.4005 34.2655 58.5851 34.2388L59.099 34.1653V34.1387C59.099 33.914 58.9844 33.8016 58.7553 33.8016C58.5418 33.8016 58.4283 33.8929 58.415 34.0753H58.078C58.0891 33.904 58.1547 33.7694 58.2748 33.6715C58.3972 33.5714 58.5618 33.5214 58.7687 33.5214ZM58.6352 34.9094C58.7709 34.9094 58.8821 34.8683 58.9689 34.786C59.0556 34.7014 59.099 34.5947 59.099 34.4657V34.4089L58.6886 34.4657C58.4728 34.4923 58.3649 34.5735 58.3649 34.7092C58.3649 34.7715 58.3883 34.8205 58.435 34.856C58.4817 34.8916 58.5484 34.9094 58.6352 34.9094Z" fill="#222222"/>
<path d="M61.6181 33.5214C61.7916 33.5214 61.9284 33.5759 62.0285 33.6849C62.1308 33.7939 62.182 33.9474 62.182 34.1453V35.1397H61.8483V34.2621C61.8483 34.1042 61.8205 33.9907 61.7649 33.9218C61.7093 33.8528 61.6259 33.8183 61.5147 33.8183C61.3901 33.8183 61.2911 33.8584 61.2177 33.9385C61.1465 34.0163 61.1109 34.1309 61.1109 34.2821V35.1397H60.7773V33.5614H61.0809L61.1009 33.7683H61.1109C61.1621 33.6904 61.2322 33.6304 61.3211 33.5881C61.4101 33.5436 61.5091 33.5214 61.6181 33.5214Z" fill="#222222"/>
<path d="M64.55 33.5614H64.897L63.9661 35.8871H63.6224L63.9194 35.1463L63.2854 33.5614H63.6424L64.0862 34.7393H64.0962L64.55 33.5614Z" fill="#222222"/>
</svg>
