<svg width="209" height="183" viewBox="0 0 209 183" fill="none" xmlns="http://www.w3.org/2000/svg">
<path opacity="0.5" d="M79.1016 78.8619C70.3406 87.6243 59.3894 92.0055 46.2479 92.0055C33.1064 92.0055 22.0709 87.6243 13.1415 78.8619C4.38049 69.9309 0 58.9779 0 46.0028C0 33.0276 4.38049 22.1588 13.1415 13.3964C22.0709 4.46547 33.1064 0 46.2479 0C59.3894 0 70.3406 4.46547 79.1016 13.3964C88.031 22.1588 92.4958 33.0276 92.4958 46.0028C92.4958 58.9779 88.031 69.9309 79.1016 78.8619ZM33.6118 179.967L146.325 3.03314H175.388L62.6747 179.967H33.6118ZM30.3265 62.9378C34.37 67.3191 39.6771 69.5097 46.2479 69.5097C52.8186 69.5097 58.1258 67.3191 62.1693 62.9378C66.2128 58.5566 68.2346 52.9116 68.2346 46.0028C68.2346 38.9254 66.2128 33.2804 62.1693 29.0677C58.1258 24.6865 52.8186 22.4959 46.2479 22.4959C39.6771 22.4959 34.37 24.6865 30.3265 29.0677C26.283 33.2804 24.2612 38.9254 24.2612 46.0028C24.2612 52.9116 26.283 58.5566 30.3265 62.9378ZM195.606 169.856C186.845 178.619 175.894 183 162.752 183C149.611 183 138.575 178.619 129.646 169.856C120.885 160.925 116.504 149.972 116.504 136.997C116.504 124.022 120.885 113.153 129.646 104.391C138.575 95.4599 149.611 90.9945 162.752 90.9945C175.894 90.9945 186.845 95.4599 195.606 104.391C204.535 113.153 209 124.022 209 136.997C209 149.972 204.535 160.925 195.606 169.856ZM146.831 154.185C150.874 158.398 156.181 160.504 162.752 160.504C169.323 160.504 174.63 158.314 178.674 153.932C182.717 149.551 184.739 143.906 184.739 136.997C184.739 130.088 182.717 124.443 178.674 120.062C174.63 115.681 169.323 113.49 162.752 113.49C156.181 113.49 150.874 115.681 146.831 120.062C142.787 124.275 140.765 129.92 140.765 136.997C140.765 144.075 142.787 149.804 146.831 154.185Z" fill="#EEEEEE"/>
</svg>
